<svg width="264" height="131" viewBox="0 0 264 131" fill="none" xmlns="http://www.w3.org/2000/svg">
<path d="M0 115.205L0 -0.000556946H2.93333L2.93333 115.205H0Z" fill="#374151"/>
<path d="M261.067 115.205V2.04341H264V115.205H261.067Z" fill="#374151"/>
<path d="M40.8222 115.205H2.44444V112.975H40.8222V115.205Z" fill="#374151"/>
<path d="M264 115.205H223.178V112.975H264V115.205Z" fill="#374151"/>
<path d="M202.644 115.205H154.733V112.975H202.644V115.205Z" fill="#374151"/>
<path d="M264 2.22923L2.44444 2.22923V-0.000556946L264 -0.000556946V2.22923Z" fill="#374151"/>
<path d="M106.822 115.205H58.9111V112.975H106.822V115.205Z" fill="#374151"/>
<path d="M12.7111 11.8916H2.93333V9.66186H12.7111V11.8916Z" fill="#374151"/>
<path d="M9.77778 9.66186L9.77778 2.22923H12.7111L12.7111 9.66186H9.77778Z" fill="#374151"/>
<path d="M251.289 11.8916H261.067V9.66186H251.289V11.8916Z" fill="#374151"/>
<path d="M254.222 9.66186V2.22923H251.289V9.66186H254.222Z" fill="#374151"/>
<path d="M12.7111 103.313H2.93333V105.543H12.7111V103.313Z" fill="#374151"/>
<path d="M9.77778 105.543V112.975H12.7111V105.543H9.77778Z" fill="#374151"/>
<path d="M28.3556 106.658V112.975H31.2889V106.658H28.3556Z" fill="#374151"/>
<path d="M37.8889 108.887V112.975H40.8222V108.887H37.8889Z" fill="#374151"/>
<path d="M31.2889 108.887H40.8222V106.611L31.2889 106.658V108.887Z" fill="#374151"/>
<path d="M251.289 103.313H261.067V105.543H251.289V103.313Z" fill="#374151"/>
<path d="M254.222 105.543V112.975H251.289V105.543H254.222Z" fill="#374151"/>
<path d="M235.644 106.611V112.975H232.711V106.611H235.644Z" fill="#374151"/>
<path d="M226.111 108.887V112.975H223.178V108.887H226.111Z" fill="#374151"/>
<path d="M232.711 108.887H223.178V106.611H232.711V108.887Z" fill="#374151"/>
<path d="M58.9111 106.611V112.975H61.8444V106.611H58.9111Z" fill="#374151"/>
<path d="M68.4444 108.887V112.975H71.3778V108.887H68.4444Z" fill="#374151"/>
<path d="M61.8444 108.887H71.3778V106.658L61.8444 106.611V108.887Z" fill="#374151"/>
<path d="M84.5778 106.658V112.975H87.5111V106.658H84.5778Z" fill="#374151"/>
<path d="M103.889 108.887V112.975H106.822V108.887H103.889Z" fill="#374151"/>
<path d="M87.5111 108.887H106.822V106.658H87.5111V108.887Z" fill="#374151"/>
<path d="M202.644 106.611V112.975H199.711V106.611H202.644Z" fill="#374151"/>
<path d="M193.111 108.887V112.975H190.178V108.887H193.111Z" fill="#374151"/>
<path d="M199.711 108.887H190.178V106.611H199.711V108.887Z" fill="#374151"/>
<path d="M176.978 106.658V112.975H174.044V106.658H176.978Z" fill="#374151"/>
<path d="M157.667 108.887V112.975H154.733V108.887H157.667Z" fill="#374151"/>
<path d="M174.044 108.887H154.733V106.658H174.044V108.887Z" fill="#374151"/>
<path d="M99 8.54696V2.22923H96.0667V8.54696H99Z" fill="#374151"/>
<path d="M79.6889 6.31717V2.22923H76.7556V6.31717H79.6889Z" fill="#374151"/>
<path d="M96.0667 6.31717H76.7556V8.54696H96.0667V6.31717Z" fill="#374151"/>
<path d="M191.4 8.54696V2.22923H188.467V8.54696H191.4Z" fill="#374151"/>
<path d="M172.089 6.31717V2.22923H169.156V6.31717H172.089Z" fill="#374151"/>
<path d="M188.467 6.31717H169.156V8.54696H188.467V6.31717Z" fill="#374151"/>
<path d="M11.2444 49.2406H2.93333V51.4704H11.2444V49.2406Z" fill="#374151"/>
<path d="M8.31111 63.92H2.93333V66.1498H8.31111V63.92Z" fill="#374151"/>
<path d="M8.31111 51.4704V66.1498H11.2444V51.4704H8.31111Z" fill="#374151"/>
<path d="M24.6445 6.0918H63.8607" stroke="#374151" stroke-width="3.22134"/>
<rect x="22.4404" y="3.93646" width="43.627" height="10.9983" fill="#9CA3AF" stroke="#4B5563" stroke-width="0.322134"/>
<rect x="22.4404" y="4.96575" width="15.0037" height="9.96919" fill="#9CA3AF" stroke="#4B5563" stroke-width="0.322134"/>
<rect x="37.54" y="4.96575" width="13.4261" height="9.96919" fill="#9CA3AF" stroke="#4B5563" stroke-width="0.322134"/>
<rect x="51.0634" y="4.96575" width="15.0037" height="9.96919" fill="#9CA3AF" stroke="#4B5563" stroke-width="0.322134"/>
<rect x="63.4579" y="4.96575" width="2.60736" height="7.91093" fill="#9CA3AF" stroke="#4B5563" stroke-width="0.322134"/>
<rect x="63.4579" y="5.47943" width="1.02994" height="7.39636" fill="#9CA3AF" stroke="#4B5563" stroke-width="0.322134"/>
<rect x="-0.161067" y="0.161067" width="2.60736" height="7.91093" transform="matrix(-1 0 0 1 24.8869 4.80469)" fill="#9CA3AF" stroke="#4B5563" stroke-width="0.322134"/>
<rect x="-0.161067" y="0.161067" width="1.02994" height="7.39636" transform="matrix(-1 0 0 1 24.8869 5.31836)" fill="#9CA3AF" stroke="#4B5563" stroke-width="0.322134"/>
<rect x="24.6943" y="4.622" width="39.1194" height="2.07917" fill="#9CA3AF" stroke="#4B5563" stroke-width="0.322134"/>
<line x1="24.5312" y1="5.7569" x2="63.7532" y2="5.7569" stroke="#4B5563" stroke-width="0.322134"/>
<path d="M114.984 6.0918H154.201" stroke="#374151" stroke-width="3.22134"/>
<rect x="112.78" y="3.93646" width="43.627" height="10.9983" fill="#9CA3AF" stroke="#4B5563" stroke-width="0.322134"/>
<rect x="112.78" y="4.96575" width="15.0037" height="9.96919" fill="#9CA3AF" stroke="#4B5563" stroke-width="0.322134"/>
<rect x="127.882" y="4.96575" width="13.4261" height="9.96919" fill="#9CA3AF" stroke="#4B5563" stroke-width="0.322134"/>
<rect x="141.403" y="4.96575" width="15.0037" height="9.96919" fill="#9CA3AF" stroke="#4B5563" stroke-width="0.322134"/>
<rect x="153.8" y="4.96575" width="2.60736" height="7.91093" fill="#9CA3AF" stroke="#4B5563" stroke-width="0.322134"/>
<rect x="153.8" y="5.47943" width="1.02994" height="7.39636" fill="#9CA3AF" stroke="#4B5563" stroke-width="0.322134"/>
<rect x="-0.161067" y="0.161067" width="2.60736" height="7.91093" transform="matrix(-1 0 0 1 115.227 4.80469)" fill="#9CA3AF" stroke="#4B5563" stroke-width="0.322134"/>
<rect x="-0.161067" y="0.161067" width="1.02994" height="7.39636" transform="matrix(-1 0 0 1 115.227 5.31836)" fill="#9CA3AF" stroke="#4B5563" stroke-width="0.322134"/>
<rect x="115.034" y="4.622" width="39.1194" height="2.07917" fill="#9CA3AF" stroke="#4B5563" stroke-width="0.322134"/>
<line x1="114.871" y1="5.7569" x2="154.093" y2="5.7569" stroke="#4B5563" stroke-width="0.322134"/>
<path d="M201.357 6.0918H240.574" stroke="#374151" stroke-width="3.22134"/>
<rect x="199.153" y="3.93646" width="43.627" height="10.9983" fill="#9CA3AF" stroke="#4B5563" stroke-width="0.322134"/>
<rect x="199.153" y="4.96575" width="15.0037" height="9.96919" fill="#9CA3AF" stroke="#4B5563" stroke-width="0.322134"/>
<rect x="214.253" y="4.96575" width="13.4261" height="9.96919" fill="#9CA3AF" stroke="#4B5563" stroke-width="0.322134"/>
<rect x="227.776" y="4.96575" width="15.0037" height="9.96919" fill="#9CA3AF" stroke="#4B5563" stroke-width="0.322134"/>
<rect x="240.173" y="4.96575" width="2.60736" height="7.91093" fill="#9CA3AF" stroke="#4B5563" stroke-width="0.322134"/>
<rect x="240.173" y="5.47943" width="1.02994" height="7.39636" fill="#9CA3AF" stroke="#4B5563" stroke-width="0.322134"/>
<rect x="-0.161067" y="0.161067" width="2.60736" height="7.91093" transform="matrix(-1 0 0 1 201.6 4.80469)" fill="#9CA3AF" stroke="#4B5563" stroke-width="0.322134"/>
<rect x="-0.161067" y="0.161067" width="1.02994" height="7.39636" transform="matrix(-1 0 0 1 201.6 5.31836)" fill="#9CA3AF" stroke="#4B5563" stroke-width="0.322134"/>
<rect x="201.405" y="4.622" width="39.1194" height="2.07917" fill="#9CA3AF" stroke="#4B5563" stroke-width="0.322134"/>
<line x1="201.242" y1="5.7569" x2="240.464" y2="5.7569" stroke="#4B5563" stroke-width="0.322134"/>
<rect x="30.3759" y="28.6397" width="10.3623" height="27.7565" transform="rotate(-90 30.3759 28.6397)" stroke="#4B5563" stroke-width="0.322134"/>
<rect x="31.4355" y="27.8711" width="8.82624" height="25.637" transform="rotate(-90 31.4355 27.8711)" fill="#9CA3AF"/>
<rect x="120.716" y="28.6397" width="10.3623" height="27.7565" transform="rotate(-90 120.716 28.6397)" stroke="#4B5563" stroke-width="0.322134"/>
<rect x="121.775" y="27.8711" width="8.82624" height="25.637" transform="rotate(-90 121.775 27.8711)" fill="#9CA3AF"/>
<rect x="207.089" y="28.6397" width="10.3623" height="27.7565" transform="rotate(-90 207.089 28.6397)" stroke="#4B5563" stroke-width="0.322134"/>
<rect x="208.148" y="27.8711" width="8.82624" height="25.637" transform="rotate(-90 208.148 27.8711)" fill="#9CA3AF"/>
<rect x="40.5918" y="115.205" width="0.464539" height="18.3121" transform="rotate(-90 40.5918 115.205)" fill="#374151"/>
<rect x="106.82" y="115.205" width="0.464539" height="48.5272" transform="rotate(-90 106.82 115.205)" fill="#374151"/>
<rect x="202.348" y="115.205" width="0.464539" height="21.059" transform="rotate(-90 202.348 115.205)" fill="#374151"/>
<rect x="40.5918" y="113.348" width="0.464539" height="18.6173" transform="rotate(-90 40.5918 113.348)" fill="#374151"/>
<rect x="106.82" y="113.348" width="0.464539" height="49.4428" transform="rotate(-90 106.82 113.348)" fill="#374151"/>
<rect x="106.82" y="131" width="0.610311" height="15.7943" transform="rotate(-180 106.82 131)" fill="#374151"/>
<rect x="155.348" y="131" width="0.610311" height="15.7943" transform="rotate(-180 155.348 131)" fill="#374151"/>
<path d="M202.654 113.348V112.883H223.408V113.348H202.654Z" fill="#374151"/>
<path d="M155.348 130.768C148.799 130.69 134.809 127.423 131.237 114.973" stroke="#374151" stroke-width="0.322134"/>
<path d="M106.82 130.768C113.452 130.69 127.619 127.423 131.236 114.973" stroke="#374151" stroke-width="0.322134"/>
<rect x="245.849" y="98.3214" width="35.2151" height="7.30792" transform="rotate(-90 245.849 98.3214)" fill="#9CA3AF" stroke="#4B5563" stroke-width="0.322134"/>
<path d="M249.475 66.0094C251.248 66.0094 252.684 67.4429 252.684 69.2103C252.684 70.9778 251.248 72.4112 249.475 72.4112C247.703 72.4112 246.267 70.9778 246.267 69.2103C246.267 67.4429 247.703 66.0094 249.475 66.0094Z" fill="#9CA3AF" stroke="#4B5563" stroke-width="0.322134"/>
<path d="M249.475 67.1679C250.605 67.1679 251.521 68.0822 251.521 69.2095C251.521 70.3367 250.605 71.251 249.475 71.251C248.344 71.251 247.429 70.3367 247.429 69.2095C247.429 68.0822 248.344 67.1679 249.475 67.1679Z" fill="#9CA3AF" stroke="#4B5563" stroke-width="0.322134"/>
<path d="M249.684 73.2812V65.1518" stroke="#4B5563" stroke-width="0.322134"/>
<path d="M249.475 88.9645C251.248 88.9645 252.684 90.398 252.684 92.1654C252.684 93.9328 251.248 95.3663 249.475 95.3663C247.703 95.3663 246.267 93.9328 246.267 92.1654C246.267 90.398 247.703 88.9645 249.475 88.9645Z" fill="#9CA3AF" stroke="#4B5563" stroke-width="0.322134"/>
<path d="M249.473 90.1229C250.604 90.1229 251.519 91.0373 251.519 92.1645C251.519 93.2917 250.604 94.2061 249.473 94.2061C248.343 94.2061 247.427 93.2917 247.427 92.1645C247.427 91.0373 248.343 90.1229 249.473 90.1229Z" fill="#9CA3AF" stroke="#4B5563" stroke-width="0.322134"/>
<path d="M249.684 96.2363V88.1069" stroke="#4B5563" stroke-width="0.322134"/>
<path d="M26.9886 27.2758C26.9188 27.5412 26.9014 27.6076 26.4654 27.8067L26.1166 27.873H22.6285V27.6076C19.28 27.4483 17.6581 25.5504 17.3965 24.4885V22.0995C18.7045 19.3786 21.2333 19.3123 22.7157 19.3123V19.0468H26.1166C26.8839 19.153 27.0176 19.4892 26.9886 19.6441V20.9713H26.6398V26.1061H26.9886V27.2758Z" fill="#9CA3AF" stroke="#4B5563" stroke-width="0.322134" stroke-linejoin="round"/>
<path d="M23.238 26.8105L21.93 26.6778C20.9708 26.6115 18.6164 25.8151 18.2676 24.3551V22.3642C18.442 21.6343 20.0988 20.1743 22.802 20.1079H23.674H23.9356C24.1972 20.0416 24.1972 19.8292 24.1972 19.5106C24.1972 19.1921 24.1972 19.0682 24.1972 19.0461" stroke="#4B5563" stroke-width="0.322134" stroke-linejoin="round"/>
<path d="M24.373 27.8724C24.373 27.8502 24.373 27.7264 24.373 27.4078C24.373 27.0893 24.373 26.8769 24.1114 26.8105H23.8498C23.6755 26.8105 23.2918 26.8105 23.1523 26.8105" stroke="#4B5563" stroke-width="0.322134" stroke-linejoin="round"/>
<path d="M11.7831 82.2381C11.6141 82.4667 11.5718 82.5239 11.0844 82.5804L10.7308 82.5384L7.45252 81.4941L7.55597 81.2446C4.47092 80.0925 3.68618 77.8231 3.8541 76.7468L4.78511 74.5014C7.07478 72.3358 9.47736 73.0305 10.8706 73.4743L10.9741 73.2248L14.1704 74.243C14.8502 74.5725 14.8448 74.9286 14.7572 75.0654L14.2399 76.3128L13.9121 76.2084L11.9111 81.0344L12.2389 81.1388L11.7831 82.2381Z" fill="#9CA3AF" stroke="#4B5563" stroke-width="0.322134" stroke-linejoin="round"/>
<path d="M8.43907 80.6795L7.26146 80.1631C6.3858 79.8136 4.48333 78.3603 4.72446 76.8837L5.5003 75.0125C5.94869 74.3786 8.07481 73.5025 10.6413 74.2494L11.4609 74.5105L11.7067 74.5888C11.9785 74.6048 12.0612 74.4052 12.1854 74.1058C12.3095 73.8064 12.3578 73.69 12.3664 73.6692" stroke="#4B5563" stroke-width="0.322134" stroke-linejoin="round"/>
<path d="M9.09282 82.0157C9.10144 81.9949 9.14972 81.8785 9.27385 81.5791C9.39798 81.2797 9.48074 81.0802 9.26077 80.9395L9.01493 80.8612C8.85104 80.809 8.49049 80.6941 8.35938 80.6523" stroke="#4B5563" stroke-width="0.322134" stroke-linejoin="round"/>
<path d="M17.0872 94.2315C17.2688 94.4526 17.3142 94.5078 17.1974 94.9264L17.0243 95.2L14.724 97.4981L14.4963 97.323C12.1514 99.4242 9.45396 99.2411 8.3708 98.7132L6.32189 97.1377C4.85103 94.4814 6.46187 92.7715 7.43952 91.7948L7.21186 91.6197L9.4547 89.3791C10.0518 88.9435 10.4284 89.0771 10.542 89.1984L11.6803 90.0737L11.4503 90.3036L15.854 93.69L16.0841 93.4601L17.0872 94.2315Z" fill="#9CA3AF" stroke="#4B5563" stroke-width="0.322134" stroke-linejoin="round"/>
<path d="M14.2155 96.3951L13.239 97.1693C12.5495 97.7576 10.3138 98.7836 8.83167 98.0506L7.12424 96.7376C6.6132 96.1413 6.45375 94.0868 8.1796 92.262L8.75469 91.6874L8.92722 91.5151C9.04283 91.2989 8.8607 91.1589 8.58751 90.9488C8.31432 90.7387 8.20808 90.657 8.18911 90.6424" stroke="#4B5563" stroke-width="0.322134" stroke-linejoin="round"/>
<path d="M15.8738 96.349C15.8548 96.3344 15.7486 96.2528 15.4754 96.0427C15.2023 95.8326 15.0202 95.6926 14.7908 95.8212L14.6182 95.9935C14.5032 96.1084 14.2502 96.3612 14.1582 96.4531" stroke="#4B5563" stroke-width="0.322134" stroke-linejoin="round"/>
<path d="M117.94 27.2758C117.87 27.5412 117.853 27.6076 117.417 27.8067L117.068 27.873H113.58V27.6076C110.231 27.4483 108.609 25.5504 108.348 24.4885V22.0995C109.656 19.3786 112.184 19.3123 113.667 19.3123V19.0468H117.068C117.835 19.153 117.969 19.4892 117.94 19.6441V20.9713H117.591V26.1061H117.94V27.2758Z" fill="#9CA3AF" stroke="#4B5563" stroke-width="0.322134" stroke-linejoin="round"/>
<path d="M114.191 26.8105L112.883 26.6778C111.924 26.6115 109.57 25.8151 109.221 24.3551V22.3642C109.395 21.6343 111.052 20.1743 113.755 20.1079H114.627H114.889C115.15 20.0416 115.15 19.8292 115.15 19.5106C115.15 19.1921 115.15 19.0682 115.15 19.0461" stroke="#4B5563" stroke-width="0.322134" stroke-linejoin="round"/>
<path d="M115.324 27.8724C115.324 27.8502 115.324 27.7264 115.324 27.4078C115.324 27.0893 115.324 26.8769 115.063 26.8105H114.801C114.627 26.8105 114.243 26.8105 114.104 26.8105" stroke="#4B5563" stroke-width="0.322134" stroke-linejoin="round"/>
<path d="M204.616 27.2758C204.546 27.5412 204.528 27.6076 204.092 27.8067L203.744 27.873H200.255V27.6076C196.907 27.4483 195.285 25.5504 195.023 24.4885V22.0995C196.331 19.3786 198.86 19.3123 200.343 19.3123V19.0468H203.744C204.511 19.153 204.645 19.4892 204.616 19.6441V20.9713H204.267V26.1061H204.616V27.2758Z" fill="#9CA3AF" stroke="#4B5563" stroke-width="0.322134" stroke-linejoin="round"/>
<path d="M200.865 26.8105L199.557 26.6778C198.598 26.6115 196.243 25.8151 195.895 24.3551V22.3642C196.069 21.6343 197.726 20.1743 200.429 20.1079H201.301H201.563C201.824 20.0416 201.824 19.8292 201.824 19.5106C201.824 19.1921 201.824 19.0682 201.824 19.0461" stroke="#4B5563" stroke-width="0.322134" stroke-linejoin="round"/>
<path d="M202 27.8724C202 27.8502 202 27.7264 202 27.4078C202 27.0893 202 26.8769 201.738 26.8105H201.477C201.302 26.8105 200.919 26.8105 200.779 26.8105" stroke="#4B5563" stroke-width="0.322134" stroke-linejoin="round"/>
<path d="M60.4333 19.6441C60.5031 19.3787 60.5205 19.3123 60.9565 19.1132L61.3053 19.0469H64.7934V19.3123C68.1419 19.4716 69.7638 21.3696 70.0254 22.4314V24.8204C68.7174 27.5413 66.1886 27.6077 64.7062 27.6077V27.8731H61.3053C60.538 27.7669 60.4043 27.4307 60.4333 27.2758V25.9486H60.7821V20.8138H60.4333V19.6441Z" fill="#9CA3AF" stroke="#4B5563" stroke-width="0.322134" stroke-linejoin="round"/>
<path d="M64.1819 20.1094L65.4899 20.2421C66.4491 20.3085 68.8035 21.1048 69.1523 22.5648V24.5557C68.9779 25.2857 67.3211 26.7456 64.6179 26.812H63.7459H63.4843C63.2227 26.8784 63.2227 27.0907 63.2227 27.4093C63.2227 27.7278 63.2227 27.8517 63.2227 27.8738" stroke="#4B5563" stroke-width="0.322134" stroke-linejoin="round"/>
<path d="M63.0489 19.0476C63.0489 19.0697 63.0489 19.1936 63.0489 19.5121C63.0489 19.8307 63.0489 20.043 63.3105 20.1094H63.572C63.7464 20.1094 64.13 20.1094 64.2695 20.1094" stroke="#4B5563" stroke-width="0.322134" stroke-linejoin="round"/>
<path d="M151.384 19.6441C151.454 19.3787 151.472 19.3123 151.908 19.1132L152.256 19.0469H155.745V19.3123C159.093 19.4716 160.715 21.3696 160.977 22.4314V24.8204C159.669 27.5413 157.14 27.6077 155.657 27.6077V27.8731H152.256C151.489 27.7669 151.355 27.4307 151.384 27.2758V25.9486H151.733V20.8138H151.384V19.6441Z" fill="#9CA3AF" stroke="#4B5563" stroke-width="0.322134" stroke-linejoin="round"/>
<path d="M155.133 20.1094L156.441 20.2421C157.4 20.3085 159.755 21.1048 160.104 22.5648V24.5557C159.929 25.2857 158.272 26.7456 155.569 26.812H154.697H154.435C154.174 26.8784 154.174 27.0907 154.174 27.4093C154.174 27.7278 154.174 27.8517 154.174 27.8738" stroke="#4B5563" stroke-width="0.322134" stroke-linejoin="round"/>
<path d="M154 19.0476C154 19.0697 154 19.1936 154 19.5121C154 19.8307 154 20.043 154.262 20.1094H154.523C154.698 20.1094 155.081 20.1094 155.221 20.1094" stroke="#4B5563" stroke-width="0.322134" stroke-linejoin="round"/>
<path d="M238.06 19.6441C238.13 19.3787 238.147 19.3123 238.583 19.1132L238.932 19.0469H242.42V19.3123C245.769 19.4716 247.391 21.3696 247.652 22.4314V24.8204C246.344 27.5413 243.816 27.6077 242.333 27.6077V27.8731H238.932C238.165 27.7669 238.031 27.4307 238.06 27.2758V25.9486H238.409V20.8138H238.06V19.6441Z" fill="#9CA3AF" stroke="#4B5563" stroke-width="0.322134" stroke-linejoin="round"/>
<path d="M241.811 20.1094L243.119 20.2421C244.078 20.3085 246.432 21.1048 246.781 22.5648V24.5557C246.607 25.2857 244.95 26.7456 242.247 26.812H241.375H241.113C240.852 26.8784 240.852 27.0907 240.852 27.4093C240.852 27.7278 240.852 27.8517 240.852 27.8738" stroke="#4B5563" stroke-width="0.322134" stroke-linejoin="round"/>
<path d="M240.678 19.0476C240.678 19.0697 240.678 19.1936 240.678 19.5121C240.678 19.8307 240.678 20.043 240.939 20.1094H241.201C241.375 20.1094 241.759 20.1094 241.898 20.1094" stroke="#4B5563" stroke-width="0.322134" stroke-linejoin="round"/>
<circle opacity="0.5" cx="45" cy="27" r="8" fill="#FF00C4"/>
<circle cx="45.0014" cy="26.9994" r="2.35294" fill="#FF00C4"/>
</svg>
