<svg width="488" height="310" viewBox="0 0 488 310" fill="none" xmlns="http://www.w3.org/2000/svg">
<g filter="url(#filter0_d_628_13276)">
<path fill-rule="evenodd" clip-rule="evenodd" d="M283.256 243.686C283.256 246.383 282.726 247.749 280.614 250.408C276.943 254.926 268.918 256.027 241.855 255.761C223.611 255.572 220.354 255.191 215.812 252.945C212.675 251.388 210.891 249.376 209.868 246.073C209.337 244.44 209.3 243.718 209.641 242.162C210.284 239.201 211.231 237.644 217.514 229.139C222.157 222.871 225.714 217.682 228.412 213.127C232.849 205.649 234.982 199.876 235.83 193.866C236.398 189.764 236.325 172.565 235.754 170.135C234.693 165.806 231.779 160.908 230.305 160.908C229.056 160.908 228.676 160.187 228.752 158.137C228.79 156.201 229.282 155.593 230.835 155.593C231.517 155.593 231.66 155.44 231.403 154.909C230.456 152.784 231.971 149.138 236.209 143.139C241.698 135.432 242.53 133.57 242.91 128.408C243.136 124.838 242.606 122.523 240.336 117.661C239.162 115.155 238.443 113.024 238.443 112.232C238.443 110.6 239.352 107.713 241.282 103.044C242.38 100.424 242.682 99.1337 242.758 97.1593C242.796 94.7676 242.758 94.6533 241.962 94.7295C241.467 94.804 240.676 94.6533 240.108 94.4628C239.2 94.0835 239.162 93.9659 239.352 92.2616C239.464 91.2678 239.616 88.9953 239.654 87.1733L239.768 83.8706L232.197 83.6801C223.568 83.4897 221.485 83.0342 219.139 80.9456C218.343 80.2251 217.171 78.7062 216.565 77.6428C215.959 76.5414 215.089 75.324 214.635 74.9463C212.779 73.2387 213.12 73.2006 225.384 73.2006H236.929V72.1372C236.929 71.3405 236.663 70.9231 236.019 70.6184C234.543 69.9741 232.387 67.8473 231.667 66.4047C231.289 65.6444 230.607 63.7545 230.153 62.1512C229.282 59.039 229.434 57.5947 230.683 57.1011C231.024 56.9885 234.013 56.8742 237.345 56.8742H243.366C244.614 56.8742 248.955 56.8444 250.291 56.7847C250.327 56.7847 250.375 56.7847 250.431 56.7715C251.239 56.8543 252.797 56.8758 255.55 56.8758C263.121 56.8758 263.651 57.0663 263.311 59.9516C263.046 62.0767 261.608 65.8366 260.358 67.6585C259.863 68.3807 258.656 69.4805 257.672 70.1264C256.308 71.0374 255.855 71.5691 255.855 72.2532V73.2022H267.136C273.305 73.2022 278.604 73.3546 278.87 73.5053C279.21 73.772 279.134 74.0023 278.53 74.5687C278.112 74.9497 277.044 76.4669 276.218 77.8814C274.628 80.6143 272.548 82.3236 269.859 83.0822C269.139 83.3108 265.091 83.6139 260.85 83.7282L253.205 83.9551L253.431 88.9671C253.735 94.5109 253.697 94.549 251.349 94.6252L249.987 94.6632L250.025 96.7519C250.101 98.8769 250.555 100.32 253.015 106.395C255.097 111.445 255.06 113.04 252.52 118.052C250.325 122.38 249.713 125.077 249.984 128.797C250.362 133.542 251.574 136.124 256.646 142.996C260.697 148.462 262.361 152.717 261.377 154.922C261.151 155.454 261.263 155.606 261.945 155.606C263.193 155.606 264.179 156.669 264.179 158.112C264.179 159.821 263.837 160.542 263.043 160.542C261.567 160.542 258.691 165.014 257.554 169.085C256.532 172.578 256.305 187.765 257.176 193.612C257.933 198.891 259.818 204.814 262.173 209.142C262.784 210.275 263.58 211.626 264.508 213.14C267.658 218.253 272.328 225.081 276.481 230.595C282.265 238.295 283.285 240.231 283.256 243.686Z" fill="#FF00C4"/>
</g>
<g filter="url(#filter1_d_628_13276)">
<path d="M324.357 156.208C324.357 154.138 324.698 151.478 325.38 148.227C326.063 144.977 326.964 141.503 328.085 137.807C324.868 138.053 321.628 138.373 318.363 138.768C315.146 139.162 312.343 139.383 309.955 139.431C307.943 144.11 306.186 148.897 304.692 153.768C303.462 157.946 302.462 162.19 301.695 166.478C299.843 166.037 298.308 165.249 297.09 164.115C295.772 162.908 294.639 161.513 293.727 159.974C294.116 159.186 294.557 158.176 295.048 156.945C295.585 155.712 296.194 154.234 296.875 152.511C297.606 150.736 298.411 148.693 299.288 146.382C300.214 144.019 301.259 141.285 302.425 138.18C300.819 137.489 299.747 136.528 299.21 135.298C299.454 135.1 299.99 134.903 300.819 134.707C301.699 134.459 302.771 134.213 304.033 133.966L304.985 131.603C306.008 128.942 306.834 126.7 307.461 124.877C308.121 123.134 308.685 121.356 309.151 119.551C309.639 117.777 310.08 115.831 310.472 113.713C310.912 111.595 311.424 108.91 312.007 105.658C314.068 106.059 315.986 107.003 317.563 108.393C319.302 109.86 320.785 111.608 321.949 113.565C321.353 114.414 320.815 115.303 320.341 116.226C319.707 117.408 319 118.837 318.221 120.512C317.49 122.139 316.686 123.986 315.808 126.054C314.928 128.075 313.978 130.218 312.958 132.484C315.978 132.09 319.023 131.72 322.094 131.376C325.214 131.031 327.966 130.785 330.35 130.637C331.231 128.075 332.133 125.587 333.055 123.172C334.029 120.71 334.98 118.468 335.907 116.448C336.834 114.427 337.71 112.653 338.537 111.127C339.418 109.598 340.198 108.465 340.877 107.727C341.536 107.828 342.177 108.027 342.777 108.318C343.632 108.626 344.462 108.996 345.263 109.426C346.061 109.85 346.82 110.345 347.53 110.905C348.212 111.397 348.675 111.864 348.918 112.308C347.923 113.291 347.04 114.382 346.286 115.561C345.325 117.038 344.446 118.568 343.654 120.143C342.826 121.868 341.998 123.74 341.169 125.759C340.34 127.779 339.56 129.873 338.829 132.04C339.3 132.454 339.675 132.966 339.928 133.541C340.181 134.115 340.305 134.738 340.292 135.366C340.301 136.262 340.101 137.148 339.708 137.953C339.274 137.855 338.831 137.805 338.387 137.806C337.947 137.756 337.484 137.706 336.998 137.657C336.169 140.319 335.414 142.955 334.731 145.564C334.049 148.173 333.464 150.662 332.978 153.029C332.537 155.394 332.172 157.562 331.881 159.532C331.66 161.174 331.538 162.828 331.515 164.484V165.667C331.564 165.962 331.612 166.208 331.661 166.406C330.59 166.356 329.81 166.159 329.322 165.814C328.88 165.561 328.504 165.206 328.225 164.779C327.977 164.427 327.756 164.057 327.565 163.671C327.344 163.304 327.01 163.018 326.614 162.858C326.274 162.71 325.957 162.365 325.664 161.823C325.354 161.236 325.108 160.616 324.933 159.976C324.74 159.297 324.593 158.606 324.494 157.907C324.41 157.344 324.364 156.777 324.357 156.208Z" fill="#00FFF9"/>
<path d="M351.794 163.081C349.015 162.785 346.797 161.553 345.141 159.385C343.486 157.218 342.657 154.457 342.656 151.104C342.671 149.031 342.966 146.969 343.533 144.975C344.124 142.844 344.958 140.787 346.018 138.847C347.091 136.827 348.363 134.921 349.816 133.157C351.214 131.446 352.809 129.908 354.568 128.574C357.247 126.555 359.757 125.545 362.098 125.545C363.656 126.383 365.191 128.132 366.703 130.792H367.363C367.58 130.74 367.801 130.715 368.024 130.718C370.606 130.718 371.898 133.033 371.898 137.664C371.891 143.621 369.882 149.402 366.196 154.072C364.428 156.351 362.275 158.302 359.835 159.836C357.362 161.375 354.641 162.473 351.794 163.081ZM355.521 139.801C353.786 142.197 352.361 144.804 351.282 147.561C350.765 148.831 350.349 150.141 350.039 151.478C349.765 152.566 349.618 153.682 349.601 154.804C349.597 155.962 349.795 157.113 350.186 158.203C350.575 159.288 351.016 159.904 351.507 160.051C353.673 159.57 355.715 158.638 357.501 157.317C359.374 155.914 360.983 154.187 362.251 152.217C363.654 150.108 364.713 147.788 365.388 145.345C366.182 142.683 366.576 139.919 366.558 137.141C366.578 136.126 366.505 135.112 366.34 134.111C366.215 133.431 365.967 132.78 365.608 132.19C363.489 132.815 361.522 133.871 359.829 135.294C358.246 136.647 356.802 138.157 355.521 139.801Z" fill="#00FFF9"/>
<path d="M395.317 158.869C394.402 158.098 393.739 157.067 393.416 155.912C393.151 154.924 393.004 153.907 392.977 152.883C392.958 151.982 393.082 151.084 393.344 150.221C393.148 150.221 392.708 150.616 392.023 151.404C391.338 152.192 390.582 153.131 389.756 154.22C388.976 155.303 388.197 156.362 387.418 157.397C386.638 158.431 386.053 159.195 385.662 159.689C385.117 160.299 384.504 160.845 383.835 161.314C383.3 161.708 382.859 161.929 382.514 161.976C381.669 161.912 380.836 161.738 380.037 161.458C378.318 160.965 376.788 159.96 375.651 158.576C375.112 157.881 374.737 157.072 374.555 156.211C374.555 154.833 374.579 153.7 374.627 152.812C374.739 151.842 374.91 150.879 375.139 149.93C375.662 147.777 376.298 145.653 377.045 143.568C377.922 141.201 378.922 138.883 380.042 136.621C381.117 134.385 382.364 132.235 383.77 130.191C385.184 128.171 386.67 126.594 388.228 125.461C388.743 125.468 389.256 125.518 389.762 125.61C390.36 125.661 390.95 125.785 391.518 125.979C392.126 126.165 392.713 126.413 393.271 126.718C393.831 126.947 394.332 127.301 394.734 127.753C394.294 128.245 393.173 129.895 391.371 132.704C389.617 135.511 387.643 139.551 385.449 144.823C385.207 145.367 384.915 146.155 384.573 147.189C384.23 148.222 383.889 149.306 383.549 150.44C383.209 151.573 382.916 152.682 382.672 153.766C382.502 154.618 382.404 155.484 382.38 156.353C382.363 156.656 382.413 156.958 382.525 157.239C382.638 157.395 382.76 157.543 382.892 157.683C383.621 157.387 384.547 156.574 385.669 155.243C386.791 153.913 388.35 151.87 390.347 149.115C390.836 148.426 391.397 147.637 392.029 146.75C392.712 145.866 393.394 144.928 394.075 143.934C394.758 142.899 395.391 141.84 395.976 140.755C396.587 139.722 397.101 138.633 397.511 137.504C397.706 136.912 397.95 136.223 398.243 135.435C398.583 134.597 398.973 133.735 399.412 132.848C399.9 131.965 400.436 131.078 401.02 130.188C401.656 129.249 402.392 128.382 403.213 127.601C403.901 127.607 404.587 127.681 405.261 127.823C405.958 127.961 406.643 128.159 407.306 128.414C407.921 128.583 408.511 128.831 409.062 129.153C409.478 129.347 409.851 129.623 410.158 129.966C409.277 132.134 408.303 134.277 407.234 136.396C406.165 138.515 405.166 140.609 404.237 142.677C403.331 144.646 402.549 146.67 401.897 148.737C401.282 150.648 400.962 152.642 400.948 154.65C400.938 155.566 401.011 156.481 401.166 157.383C401.363 158.124 401.558 158.765 401.752 159.305C401.947 159.798 402.117 160.217 402.264 160.562C402.434 160.828 402.534 161.133 402.556 161.448C402.556 161.498 402.506 161.572 402.409 161.67C402.391 161.691 402.369 161.709 402.344 161.722C402.319 161.735 402.292 161.742 402.264 161.744C401.816 161.728 401.372 161.653 400.943 161.522C400.319 161.345 399.708 161.123 399.115 160.86C398.481 160.615 397.823 160.319 397.142 159.974C396.513 159.637 395.905 159.269 395.317 158.869Z" fill="#00FFF9"/>
<path d="M436.778 131.08C436.718 132.082 436.546 133.073 436.266 134.037C436.038 134.977 435.719 135.892 435.315 136.771C434.975 137.477 434.558 138.143 434.074 138.759C433.633 139.3 433.219 139.57 432.83 139.57C432.294 139.523 431.978 139.154 431.881 138.462C431.897 138.236 431.946 138.012 432.026 137.8C432.173 137.454 432.318 137.084 432.465 136.69C432.609 136.303 432.731 135.908 432.83 135.507C432.964 135.179 433.038 134.829 433.05 134.474C433.076 133.866 432.895 133.267 432.538 132.774C432.42 132.547 432.241 132.358 432.021 132.227C431.802 132.096 431.55 132.029 431.295 132.034C429.346 132.034 427.86 133.266 426.836 135.729C425.813 138.193 425.301 141.814 425.301 146.593C425.301 147.09 425.326 147.382 425.373 147.481C426.397 147.431 427.299 147.406 428.078 147.406C428.907 147.357 429.711 147.332 430.491 147.332C430.554 147.522 430.579 147.723 430.565 147.923C430.565 148.365 430.467 148.685 430.273 148.884C429.152 149.13 428.25 149.351 427.568 149.546C427.068 149.652 426.579 149.8 426.105 149.99C425.765 150.138 425.545 150.311 425.444 150.507C425.387 150.723 425.361 150.946 425.37 151.17V152.352C425.425 152.843 425.45 153.337 425.444 153.831C425.444 157.969 424.323 161.294 422.081 163.807C419.89 166.325 416.823 167.783 412.879 168.18C412.142 168.115 411.423 167.915 410.759 167.589C410.004 167.229 409.293 166.785 408.638 166.264C408.004 165.72 407.439 165.099 406.957 164.415C406.494 163.823 406.147 163.149 405.934 162.428C405.926 160.589 406.326 158.772 407.104 157.108C407.857 155.42 408.922 153.89 410.242 152.599C411.621 151.26 413.231 150.184 414.994 149.422C416.888 148.574 418.918 148.073 420.988 147.943C420.989 146.727 420.867 145.514 420.623 144.322C420.378 143.14 420.11 142.007 419.819 140.924C419.574 139.788 419.331 138.704 419.087 137.671C418.849 136.628 418.727 135.563 418.722 134.494C418.725 133.147 418.999 131.815 419.526 130.577C420.048 129.27 420.763 128.049 421.647 126.956C422.509 125.836 423.546 124.863 424.716 124.074C425.826 123.312 427.065 122.761 428.372 122.447C428.907 122.594 429.613 123.036 430.491 123.772C432.409 125.219 434.108 126.937 435.535 128.872C436.217 129.753 436.632 130.489 436.778 131.08ZM412.654 164.78C413.866 164.261 414.978 163.536 415.943 162.636C417.009 161.709 417.944 160.64 418.722 159.46C419.495 158.29 420.11 157.022 420.55 155.69C421.023 154.438 421.27 153.111 421.28 151.773C420.306 151.922 419.234 152.39 418.063 153.177C416.857 153.947 415.752 154.866 414.774 155.912C413.796 156.889 412.937 157.981 412.217 159.163C411.533 160.296 411.192 161.281 411.193 162.12C411.193 163.203 411.68 164.089 412.654 164.78Z" fill="#00FFF9"/>
<path d="M463 129.899C462.805 132.954 462.269 135.59 461.392 137.808C460.522 139.964 459.23 141.924 457.594 143.572C455.985 145.196 454.012 146.674 451.672 148.006C449.035 149.476 446.299 150.76 443.484 151.848C443.483 152.17 443.458 152.491 443.411 152.809V153.77C443.414 154.438 443.463 155.104 443.558 155.765C443.648 156.425 443.82 157.071 444.07 157.687C444.295 158.251 444.644 158.756 445.092 159.164C445.578 159.525 446.172 159.708 446.775 159.683C448.116 159.677 449.439 159.374 450.649 158.795C451.913 158.205 453.113 157.487 454.23 156.652C455.368 155.791 456.443 154.85 457.447 153.836C458.471 152.801 459.372 151.863 460.151 151.02C460.59 151.415 461.005 151.834 461.395 152.277C459.202 155.232 456.79 157.696 454.158 159.668C451.575 161.589 449.114 162.82 446.775 163.361C443.411 162.967 440.779 161.736 438.879 159.668C437.027 157.548 436.102 155.008 436.102 152.049C436.108 149.98 436.378 147.92 436.906 145.92C437.48 143.826 438.264 141.796 439.245 139.86C440.253 137.914 441.427 136.06 442.754 134.318C444.037 132.679 445.479 131.173 447.059 129.821C448.506 128.61 450.103 127.592 451.81 126.791C453.346 126.079 455.015 125.7 456.707 125.682C458.953 125.982 461.05 127.388 463 129.899ZM457.957 132.338C456.636 132.536 455.272 133.078 453.864 133.963C452.353 134.936 450.998 136.132 449.843 137.511C448.544 139.112 447.417 140.846 446.481 142.684C445.439 144.704 444.629 146.837 444.069 149.041C447.967 147.07 451.207 144.655 453.791 141.798C456.372 138.893 457.761 135.739 457.957 132.338Z" fill="#00FFF9"/>
<path d="M72.7994 110.881C72.9425 111.697 73.0383 112.273 73.0867 112.609C73.1965 113.007 73.245 113.42 73.2304 113.833C73.2394 115.389 72.8698 116.924 72.1538 118.305C71.4856 119.648 70.5532 120.607 69.3566 121.184C68.3903 119.878 67.1992 118.756 65.8395 117.871C64.4215 116.896 62.877 116.121 61.2492 115.567C59.6022 114.938 57.8953 114.48 56.1552 114.2C54.4473 113.917 52.7195 113.773 50.9885 113.768C49.3998 113.76 47.814 113.905 46.2529 114.2C44.9247 114.41 43.6249 114.772 42.3791 115.279C41.3896 115.641 40.4856 116.205 39.724 116.935C39.1243 117.551 38.7893 118.378 38.7911 119.239C38.9353 120.295 39.5809 121.374 40.7279 122.477C42.0421 123.658 43.459 124.718 44.9616 125.646C46.636 126.653 48.4776 127.66 50.4866 128.668C52.5429 129.676 54.5519 130.635 56.5135 131.547C58.9562 132.693 61.0582 133.774 62.8195 134.789C64.5896 135.747 66.0487 136.826 67.1968 138.027C68.3261 139.15 69.2061 140.499 69.7793 141.987C70.354 143.474 70.6413 145.274 70.6413 147.385C70.6572 149.744 70.2436 152.085 69.421 154.295C68.6281 156.376 67.4053 158.264 65.8329 159.837C64.2545 161.453 62.3453 162.706 60.237 163.509C58.0354 164.42 55.5723 164.876 52.8478 164.876C50.1673 164.876 47.2733 164.468 44.1657 163.653C41.1293 162.865 38.1929 161.729 35.4143 160.269C32.7361 158.878 30.4877 157.27 28.6691 155.446C26.9012 153.569 26.0167 151.602 26.0156 149.545C26.0156 148.584 26.2787 147.36 26.8049 145.873C27.3773 144.385 28.3818 142.826 29.8184 141.195C29.9626 142.631 30.7276 144.334 32.1136 146.305C33.5446 148.273 35.673 150.095 38.4988 151.771C41.0339 153.266 43.7619 154.405 46.6062 155.155C49.1894 155.796 51.8381 156.134 54.499 156.162C57.1773 156.162 59.3536 155.826 61.0279 155.155C62.7022 154.483 64.0177 153.691 64.9743 152.778C65.9298 151.819 66.5997 150.86 66.9838 149.899C67.368 148.939 67.5832 148.171 67.6295 147.595C67.5821 146.637 67.1275 145.725 66.2656 144.861C65.4532 143.95 64.3292 143.086 62.8938 142.269C61.3214 141.306 59.692 140.441 58.0145 139.678C56.1508 138.813 54.2139 137.949 52.2038 137.086C49.1909 135.743 46.5837 134.496 44.3821 133.344C42.4822 132.313 40.6813 131.108 39.0024 129.745C37.6154 128.496 36.5867 127.2 35.9163 125.858C35.2932 124.515 34.9823 122.98 34.9834 121.251C34.9834 118.563 35.7969 116.019 37.4239 113.621C39.0508 111.222 41.3945 109.4 44.4547 108.155C46.0154 107.474 47.6544 106.991 49.334 106.716C51.0413 106.432 52.7686 106.288 54.499 106.283C57.6292 106.28 60.7444 106.716 63.7541 107.578C66.8422 108.467 69.8647 109.57 72.7994 110.881Z" fill="#00FFF9"/>
<path d="M117.232 137.3C116.468 137.347 115.535 137.851 114.434 138.81C113.144 139.911 111.944 141.114 110.846 142.408C109.603 143.843 108.288 145.451 106.9 147.231C105.561 149.006 104.246 150.782 102.955 152.558C101.71 154.285 100.538 155.916 99.4381 157.452C98.3383 158.988 97.406 160.212 96.6409 161.124C95.556 160.708 94.5896 160.03 93.8265 159.152C93.0633 158.273 92.5266 157.221 92.2635 156.086C92.5169 154.533 92.8526 152.995 93.2691 151.478C93.7244 149.768 94.2757 148.086 94.9203 146.439C95.637 144.712 96.4978 142.913 97.5028 141.041C98.6573 138.957 99.9252 136.938 101.301 134.994C100.584 135.041 99.6037 135.569 98.3598 136.577C96.9122 137.728 95.5674 139.002 94.3408 140.387C92.9097 141.922 91.4269 143.673 89.8924 145.641C88.3623 147.561 86.9274 149.456 85.5877 151.327C83.8176 153.824 82.3348 156.007 81.1393 157.878C79.9912 159.755 79.154 160.859 78.6278 161.19C77.385 160.279 76.5242 159.296 76.0453 158.239C75.5455 157.111 75.184 155.927 74.9688 154.713C75.0478 153.264 75.2132 151.822 75.4641 150.393C75.8162 148.593 76.271 146.814 76.8264 145.066C77.96 141.481 79.3757 137.992 81.0601 134.631C82.8302 131.176 84.5282 128.009 86.1541 125.129C87.4201 125.389 88.6353 125.855 89.752 126.507C90.8528 127.131 92.001 128.042 93.1965 129.242C92.6366 130.905 91.8905 132.499 90.9723 133.994C89.9684 135.624 88.916 137.352 87.8152 139.176C86.7177 140.996 85.712 142.87 84.8017 144.791C83.9168 146.634 83.3124 148.599 83.0085 150.621C84.3471 148.702 85.9256 146.494 87.7442 143.996C89.6089 141.502 91.4985 139.15 93.4128 136.942C95.1895 134.91 97.1332 133.032 99.2234 131.327C101.137 129.792 102.859 129.024 104.39 129.023C105.022 129.032 105.649 129.129 106.254 129.311C106.897 129.493 107.521 129.734 108.12 130.03C108.623 130.275 109.103 130.564 109.555 130.895C109.938 131.135 110.153 131.327 110.201 131.471C109.961 132.429 109.387 133.749 108.478 135.43C107.618 137.062 106.685 138.789 105.681 140.612C104.677 142.435 103.742 144.211 102.874 145.939C102.013 147.618 101.511 148.962 101.368 149.97C103.712 146.754 105.914 143.85 107.973 141.26C109.788 138.902 111.729 136.643 113.785 134.494C115.602 132.622 117.276 131.182 118.807 130.174C120.388 129.165 121.87 128.66 123.255 128.66C124.199 128.656 125.122 128.931 125.91 129.452C126.759 129.915 127.4 130.685 127.703 131.605C127.274 133.041 126.559 134.768 125.557 136.788C124.601 138.802 123.621 140.937 122.614 143.193C121.611 145.401 120.702 147.585 119.888 149.744C119.123 151.903 118.738 153.847 118.732 155.574C118.732 156.583 118.876 157.255 119.163 157.59C119.449 157.878 119.857 158.022 120.382 158.022C120.922 158.028 121.458 157.931 121.961 157.734C122.487 157.494 122.872 157.374 123.116 157.374C123.245 157.453 123.355 157.557 123.44 157.681C123.526 157.805 123.584 157.945 123.612 158.093C123.657 158.355 123.681 158.619 123.683 158.885C122.778 159.621 121.791 160.249 120.742 160.756C119.699 161.293 118.541 161.565 117.369 161.548C116.222 161.548 115.265 161.357 114.499 160.973C113.786 160.593 113.172 160.051 112.706 159.39C112.218 158.698 111.877 157.915 111.702 157.086C111.503 156.161 111.407 155.217 111.414 154.27C111.414 152.641 111.631 151.019 112.06 149.447C112.469 147.883 112.972 146.344 113.566 144.841C114.191 143.364 114.839 142.001 115.511 140.751C116.18 139.458 116.754 138.308 117.232 137.3Z" fill="#00FFF9"/>
<path d="M139.09 161.919C136.365 161.631 134.189 160.431 132.562 158.32C130.935 156.208 130.121 153.521 130.121 150.257C130.136 148.235 130.426 146.225 130.983 144.282C131.564 142.203 132.382 140.198 133.422 138.308C134.476 136.339 135.726 134.482 137.154 132.766C138.526 131.095 140.091 129.594 141.817 128.294C144.446 126.328 146.91 125.345 149.207 125.344C150.738 126.159 152.244 127.862 153.727 130.454H154.372C154.584 130.403 154.801 130.38 155.018 130.382C157.55 130.382 158.816 132.638 158.816 137.148C158.829 140.095 158.319 143.019 157.31 145.786C156.367 148.447 154.985 150.929 153.22 153.129C151.481 155.35 149.369 157.25 146.978 158.744C144.55 160.248 141.882 161.322 139.09 161.919ZM142.75 139.244C141.908 140.393 141.142 141.595 140.454 142.843C139.745 144.119 139.122 145.442 138.589 146.801C138.081 148.037 137.673 149.311 137.368 150.611C137.099 151.67 136.955 152.757 136.937 153.849C136.933 154.979 137.128 156.1 137.512 157.162C137.895 158.218 138.325 158.819 138.803 158.962C140.928 158.495 142.931 157.588 144.686 156.299C146.524 154.934 148.103 153.251 149.351 151.33C150.729 149.278 151.77 147.018 152.436 144.637C153.217 142.046 153.607 139.353 153.591 136.647C153.612 135.658 153.54 134.67 153.377 133.695C153.255 133.032 153.012 132.397 152.658 131.823C150.584 132.432 148.655 133.461 146.992 134.846C145.433 136.165 144.012 137.638 142.75 139.244Z" fill="#00FFF9"/>
<path d="M223.223 129.596C223.032 132.571 222.506 135.139 221.645 137.298C220.79 139.402 219.521 141.312 217.915 142.913C216.336 144.497 214.399 145.936 212.102 147.231C209.514 148.664 206.829 149.915 204.068 150.975C204.065 151.288 204.041 151.601 203.995 151.91V152.841C203.997 153.492 204.045 154.141 204.139 154.784C204.224 155.427 204.39 156.056 204.634 156.656C204.855 157.206 205.198 157.698 205.638 158.095C206.116 158.444 206.699 158.619 207.289 158.592C208.603 158.586 209.899 158.291 211.087 157.727C212.326 157.154 213.504 156.454 214.602 155.64C215.718 154.804 216.773 153.89 217.759 152.904C218.763 151.897 219.648 150.986 220.415 150.17C220.844 150.554 221.251 150.962 221.633 151.394C219.482 154.272 217.116 156.672 214.533 158.592C212.001 160.469 209.585 161.669 207.286 162.191C203.983 161.807 201.4 160.607 199.537 158.592C197.718 156.528 196.809 154.056 196.811 151.177C196.817 149.159 197.082 147.152 197.6 145.202C198.165 143.163 198.934 141.186 199.895 139.301C200.885 137.404 202.038 135.598 203.339 133.901C204.603 132.301 206.021 130.83 207.573 129.51C208.996 128.331 210.563 127.339 212.236 126.559C213.745 125.866 215.383 125.498 217.043 125.48C219.246 125.775 221.306 127.147 223.223 129.596ZM218.27 131.972C216.978 132.164 215.639 132.692 214.252 133.555C212.771 134.501 211.44 135.665 210.306 137.01C209.031 138.568 207.924 140.257 207.003 142.049C205.982 144.015 205.187 146.092 204.636 148.24C208.463 146.321 211.644 143.969 214.178 141.186C216.718 138.356 218.083 135.284 218.273 131.972H218.27Z" fill="#00FFF9"/>
<path fill-rule="evenodd" clip-rule="evenodd" d="M163.73 145.433C162.868 148.504 162.438 150.904 162.438 152.632C162.438 154.311 162.581 155.702 162.868 156.806C163.156 157.909 163.515 158.626 163.945 158.959C164.244 159.212 164.509 159.502 164.734 159.822C165.022 160.206 165.356 160.686 165.738 161.263C166.069 161.886 166.977 162.269 168.464 162.414C168.307 161.877 168.234 161.318 168.25 160.758C168.258 159.552 168.354 158.349 168.537 157.158C168.731 155.85 168.994 154.553 169.326 153.273C169.709 151.928 170.14 150.632 170.618 149.385C171.048 148.237 171.576 147.129 172.196 146.073C173.583 143.673 175.018 141.441 176.501 139.378C177.881 137.496 179.366 135.694 180.949 133.98C182.432 132.445 183.819 131.245 185.11 130.381C186.402 129.516 187.525 129.06 188.482 129.012C189.009 129.012 189.272 129.205 189.271 129.589C189.271 132.027 187.857 134.837 185.028 138.018C184.918 139.504 184.987 140.761 185.236 141.789C185.488 142.748 185.938 143.642 186.557 144.415C186.624 144.368 186.694 144.322 186.763 144.272C188.092 143.322 189.277 142.182 190.279 140.89C191.314 139.576 192.158 138.121 192.788 136.57C193.392 135.084 193.708 133.496 193.721 131.891C193.721 129.351 192.669 127.312 190.564 125.773C189.133 125.821 187.603 126.277 185.974 127.141C184.395 127.957 182.769 129.133 181.095 130.669C179.268 132.371 177.588 134.225 176.072 136.211C174.311 138.5 172.705 140.905 171.265 143.409C172.464 139.777 173.878 136.219 175.499 132.756C177.16 129.217 179.029 125.78 181.095 122.462C182.997 119.348 185.107 116.366 187.409 113.536C189.656 110.801 191.857 108.569 194.014 106.843C194.014 106.17 193.775 105.426 193.297 104.611C192.851 103.773 192.296 102.998 191.646 102.307C190.999 101.558 190.25 100.904 189.422 100.365C188.657 99.8357 187.941 99.5475 187.275 99.5C186.078 100.365 184.619 102.021 182.898 104.469C181.223 106.915 179.454 109.818 177.589 113.178C175.772 116.537 173.955 120.16 172.14 124.047C170.325 127.934 168.699 131.701 167.262 135.348C165.817 139 164.64 142.361 163.73 145.433ZM183.16 147.678C182.31 145.477 182.039 143.095 182.373 140.759C181.483 141.63 180.626 142.42 179.802 143.129C178.997 143.796 178.159 144.421 177.29 145.001C177.817 147.976 178.415 150.831 179.083 153.566C179.65 155.953 180.344 158.308 181.164 160.62C182.074 163.068 183.079 164.94 184.177 166.235C185.327 167.53 186.546 168.178 187.836 168.18C188.616 168.177 189.39 168.055 190.133 167.818C190.912 167.64 191.661 167.349 192.357 166.956C192.993 166.643 193.575 166.23 194.08 165.731C194.513 165.313 194.875 164.827 195.155 164.292C193.488 163.338 191.967 162.15 190.635 160.764C189.333 159.359 188.156 157.842 187.12 156.229C186.122 154.612 185.235 152.928 184.465 151.191C183.975 150.01 183.54 148.839 183.16 147.678Z" fill="#00FFF9"/>
<path d="M50.2499 98.2098C42.5751 98.2098 36.3863 97.8294 31.6837 97.0686C27.2276 96.2658 25.0023 95.1699 25.0078 93.7808C25.0078 93.5599 25.2555 93.2242 25.7509 92.7737C26.1911 92.3631 26.6925 92.0239 27.237 91.7683C31.4464 91.9019 35.4094 91.9914 39.1257 92.0366H53.6085C66.2336 92.0366 77.9919 91.9693 88.8833 91.8346C100.025 91.6999 110.051 91.543 118.962 91.3642C123.998 91.2637 128.639 91.1698 132.886 91.0826L141.983 90.8954L142.569 90.8838C148.722 90.7569 153.477 90.6934 156.836 90.6934C161.54 90.6934 165.626 91.2079 169.091 92.237C172.803 93.2662 175.526 94.7425 177.259 96.6661C171.071 96.5324 165.996 96.443 162.035 96.3977C158.075 96.3525 154.607 96.3304 151.633 96.3315C147.478 96.3315 143.437 96.3486 139.508 96.3828C136.337 96.4093 133.241 96.4474 130.218 96.4971C127.39 96.5446 124.627 96.5998 121.927 96.6627C112.768 96.8416 104.103 97.0431 95.934 97.2673C87.7649 97.4915 79.9667 97.7123 72.5396 97.9298C65.1069 98.1164 57.677 98.2098 50.2499 98.2098Z" fill="#00FFF9"/>
<path d="M57.8756 190.11C47.8847 190.11 39.8268 189.73 33.7019 188.969C27.9017 188.164 25.0011 187.068 25 185.681C25 185.46 25.322 185.125 25.966 184.674C26.5624 184.252 27.2135 183.913 27.9012 183.667C33.3799 183.802 38.5366 183.891 43.3714 183.935H62.2266C78.6649 183.935 93.975 183.869 108.157 183.735C112.845 183.692 117.382 183.646 121.768 183.597L128.207 183.525C130.519 183.496 132.789 183.467 135.017 183.438L137.429 183.407C140.842 183.363 144.141 183.315 147.327 183.265C158.929 183.086 168.921 182.929 177.301 182.796C185.682 182.662 192.128 182.595 196.64 182.594C202.764 182.594 208.082 183.108 212.594 184.137C217.429 185.167 220.975 186.643 223.231 188.566C215.173 188.433 208.566 188.343 203.408 188.298C198.251 188.253 193.738 188.23 189.869 188.23C176.008 188.23 163.116 188.341 151.191 188.561C147.146 188.622 143.177 188.686 139.282 188.752L138.346 188.767L137.621 188.78L136.465 188.8L129.621 188.923L123.224 189.045L117.349 189.166C106.713 189.387 96.5602 189.61 86.8907 189.837C77.2168 190.019 67.5451 190.11 57.8756 190.11Z" fill="#00FFF9"/>
<path d="M437.749 98.2098C445.423 98.2098 451.612 97.8294 456.316 97.0686C460.771 96.2636 462.999 95.1676 463 93.7808C463 93.5599 462.752 93.2242 462.257 92.7737C461.816 92.3635 461.315 92.0244 460.771 91.7683C456.563 91.9019 452.6 91.9914 448.882 92.0366H434.401C421.776 92.0366 410.017 91.9693 399.124 91.8346C387.985 91.6999 377.96 91.543 369.047 91.3642L354.654 91.0726L349.305 90.9633L346.025 90.8954C339.588 90.7618 334.637 90.6945 331.172 90.6934C326.467 90.6934 322.382 91.2079 318.918 92.237C315.205 93.2662 312.482 94.7425 310.748 96.6661C316.937 96.5324 322.012 96.443 325.974 96.3977C329.936 96.3525 333.403 96.3304 336.376 96.3315C341.893 96.3315 347.209 96.3613 352.326 96.4209C354.13 96.443 355.91 96.4679 357.666 96.4955C360.538 96.543 363.345 96.5982 366.087 96.6611C375.247 96.84 383.91 97.0415 392.078 97.2656C400.246 97.4898 408.045 97.7106 415.473 97.9282C422.896 98.1159 430.321 98.2098 437.749 98.2098Z" fill="#00FFF9"/>
<path d="M430.12 190.11C440.113 190.11 448.171 189.73 454.293 188.969C460.096 188.164 462.997 187.068 462.997 185.681C462.997 185.458 462.667 185.121 462.029 184.674C461.433 184.252 460.783 183.913 460.096 183.667C454.616 183.802 449.459 183.891 444.624 183.935H425.769C409.332 183.935 394.021 183.869 379.839 183.735C375.467 183.694 371.229 183.652 367.124 183.607C364.428 183.578 361.79 183.547 359.208 183.516C352.67 183.439 346.495 183.355 340.684 183.265C329.08 183.086 319.088 182.929 310.707 182.796C302.327 182.662 295.881 182.595 291.368 182.594C285.246 182.594 279.928 183.108 275.414 184.137C270.58 185.167 267.034 186.643 264.777 188.566C272.835 188.433 279.44 188.343 284.592 188.298C289.744 188.253 294.257 188.23 298.132 188.23C311.991 188.23 324.883 188.341 336.808 188.561C343.862 188.672 350.687 188.786 357.283 188.903C360.08 188.953 362.837 189.009 365.554 189.068C367.266 189.101 368.963 189.136 370.645 189.173C381.282 189.394 391.435 189.617 401.105 189.843C410.779 190.021 420.45 190.11 430.12 190.11Z" fill="#00FFF9"/>
<path d="M119.309 170.81C119.629 173.121 120.008 175.44 120.445 177.767H126.972C126.462 175.062 126.042 172.346 125.71 169.621L119.309 170.81Z" fill="#00FFF9"/>
<path d="M121.148 123.153L129.525 121.614C131.065 116.073 132.973 110.641 135.235 105.355H126.495C124.298 111.155 122.512 117.102 121.148 123.153Z" fill="#00FFF9"/>
<path d="M368.627 177.771C369.103 175.618 369.948 171.477 370.153 169.976C370.318 168.777 370.483 167.227 370.648 165.516L362.741 169.007C362.359 171.26 361.375 175.632 360.873 177.771H368.627Z" fill="#00FFF9"/>
<path d="M355.168 102.656C357.149 107.357 359.075 112.655 360.31 117.013C360.422 117.404 360.534 117.8 360.64 118.201L367.176 121.616C366.515 119.092 365.777 116.545 364.961 113.976C363.738 110.122 362.295 106.343 360.638 102.656H355.168Z" fill="#00FFF9"/>
<path d="M341.545 72.7594C330.202 60.0951 319.253 52.0553 306.977 46.4636C303.114 44.413 303.152 44.4892 307.733 47.565C322.952 57.8016 336.035 70.9164 346.251 86.1756L351.617 86.2585C349.033 82.5466 344.477 76.0323 341.545 72.7594Z" fill="#00FFF9"/>
<path fill-rule="evenodd" clip-rule="evenodd" d="M135.754 177.76H133.772C133.178 174.651 132.697 171.724 132.324 168.93L135.744 177.708L135.754 177.76Z" fill="#00FFF9"/>
<path fill-rule="evenodd" clip-rule="evenodd" d="M364.083 193.588C358.081 209.907 348.603 224.716 336.31 236.983C324.046 249.323 310.003 258.516 293.727 264.81C286.957 267.43 285.742 267.809 279.343 269.404C268.708 272.025 260.419 273.048 249.327 273.048C239.372 273.048 233.203 272.29 222.642 269.784C203.984 265.341 187.706 257.065 172.445 244.155C162.178 235.511 153.521 224.977 146.867 213.26C144.059 208.316 141.616 203.172 139.555 197.871C138.951 196.319 138.48 195.155 137.943 193.576H141.163C142.129 195.873 143.026 197.734 144.135 199.96C146.408 204.552 148.97 208.995 151.807 213.26C162.016 228.581 175.494 240.921 192.097 250.196C204.89 257.371 217.494 261.548 233.354 263.978C237.812 264.661 240.546 264.806 247.927 264.851C259.169 264.851 263.711 264.32 275.559 261.434C295.961 256.536 315.683 245.222 331.204 229.578C339.964 220.857 347.194 210.716 352.589 199.582C353.522 197.684 354.533 195.408 355.335 193.579L364.083 193.588Z" fill="#00FFF9"/>
<path fill-rule="evenodd" clip-rule="evenodd" d="M271.017 22.2779C268.785 21.7463 252.129 20.8353 248.685 21.0258C248.52 21.0407 247.881 21.0688 246.963 21.1119C245.673 21.1699 243.825 21.256 241.872 21.367C230.706 21.8639 223.325 23.0746 212.536 26.1123C195.768 30.8594 180.363 38.9455 165.829 50.6789C160.604 54.8545 150.611 64.9548 146.22 70.4985C143.956 73.3474 141.81 76.3045 139.781 79.3698C138.473 81.3409 136.759 84.2957 135.559 86.3413H145.383C146.741 84.2875 148.755 81.3342 150.228 79.3698C161.499 64.3052 176.087 52.0561 192.854 43.5783C202.203 38.8329 209.736 36.0602 220.675 33.3273C226.466 31.8846 231.425 31.1244 240.282 30.2515C242.516 30.061 241.91 30.6308 239.147 31.391C237.707 31.7703 233.393 33.213 229.532 34.6176C212.878 40.693 205.307 45.218 205.345 49.0458C205.383 50.7916 207.39 52.4628 209.473 52.4628C210.116 52.4628 214.81 51.4375 219.876 50.1854C230.059 47.6793 233.693 46.9953 241.112 46.2367C249.325 45.4085 261.967 46.0462 262.233 47.3001C262.271 47.4889 259.621 48.5522 256.366 49.6537C249.431 51.9725 247.129 53.1469 245.049 55.3862L243.795 56.7759H249.983C249.855 56.7047 249.869 56.6103 249.968 56.4927C250.61 55.696 253.866 54.5183 257.917 53.6073C264.54 52.0885 267.682 50.3411 268.319 47.7224C269.416 43.3182 259.953 41.1534 241.482 41.5708C235.691 41.7232 232.813 41.647 233.533 41.4184C236.175 40.6218 249.015 37.6221 252.989 36.9464C255.336 36.4909 260.445 35.8847 264.345 35.5799C268.205 35.2387 272.105 34.8213 272.974 34.5861C277.479 33.5923 279.523 31.8913 279.523 29.1567C279.534 25.8854 276.655 23.6063 271.017 22.2779Z" fill="#00FFF9"/>
<path fill-rule="evenodd" clip-rule="evenodd" d="M242.816 280.999C239.679 281.037 232.414 280.467 228.054 279.86C226.502 279.631 224.61 279.363 223.89 279.29C216.547 278.226 203.677 274.43 195.312 270.823C167.882 258.98 146.499 239.195 132.87 213.274C130.256 208.291 127.951 203.152 125.968 197.885C125.521 196.679 125.143 195.442 124.576 193.59H131.016C131.511 195.104 131.929 196.205 132.479 197.694C132.502 197.759 132.527 197.822 132.55 197.885C134.492 203.164 136.788 208.305 139.422 213.274C144.361 222.529 150.495 230.917 158.672 239.841C179.907 262.963 206.062 276.1 238.653 280.09C244.67 280.847 245.238 280.961 242.816 280.999Z" fill="#00FFF9"/>
</g>
<defs>
<filter id="filter0_d_628_13276" x="184.42" y="35.7715" width="123.836" height="249.027" filterUnits="userSpaceOnUse" color-interpolation-filters="sRGB">
<feFlood flood-opacity="0" result="BackgroundImageFix"/>
<feColorMatrix in="SourceAlpha" type="matrix" values="0 0 0 0 0 0 0 0 0 0 0 0 0 0 0 0 0 0 127 0" result="hardAlpha"/>
<feOffset dy="4"/>
<feGaussianBlur stdDeviation="12.5"/>
<feComposite in2="hardAlpha" operator="out"/>
<feColorMatrix type="matrix" values="0 0 0 0 1 0 0 0 0 0 0 0 0 0 0.768627 0 0 0 0.24 0"/>
<feBlend mode="normal" in2="BackgroundImageFix" result="effect1_dropShadow_628_13276"/>
<feBlend mode="normal" in="SourceGraphic" in2="effect1_dropShadow_628_13276" result="shape"/>
</filter>
<filter id="filter1_d_628_13276" x="0" y="0" width="488" height="310" filterUnits="userSpaceOnUse" color-interpolation-filters="sRGB">
<feFlood flood-opacity="0" result="BackgroundImageFix"/>
<feColorMatrix in="SourceAlpha" type="matrix" values="0 0 0 0 0 0 0 0 0 0 0 0 0 0 0 0 0 0 127 0" result="hardAlpha"/>
<feOffset dy="4"/>
<feGaussianBlur stdDeviation="12.5"/>
<feComposite in2="hardAlpha" operator="out"/>
<feColorMatrix type="matrix" values="0 0 0 0 0 0 0 0 0 1 0 0 0 0 0.977273 0 0 0 0.25 0"/>
<feBlend mode="normal" in2="BackgroundImageFix" result="effect1_dropShadow_628_13276"/>
<feBlend mode="normal" in="SourceGraphic" in2="effect1_dropShadow_628_13276" result="shape"/>
</filter>
</defs>
</svg>
