<svg width="80" height="20" viewBox="0 0 80 20" fill="none" xmlns="http://www.w3.org/2000/svg">
<path d="M5.8063 0V14.4571H12.4836V20H0V0H5.8063Z" fill="white"/>
<path d="M14.2323 20V0H20.0386V20H14.2323Z" fill="white"/>
<path d="M33.91 9.71429L40.2388 20H33.7938L28.7423 11.4286V20H22.936V0H28.7423V8L33.5035 0H39.9485L33.91 9.71429Z" fill="white"/>
<path d="M47.1989 12.5143V14.7429H54.7471V20H41.3926V0H54.6019V5.2H47.1989V7.37143H53.8762V12.5143H47.1989Z" fill="white"/>
<path d="M57.0708 20V0H62.8771V20H57.0708Z" fill="#FF0000"/>
<path d="M64.6133 0H80V5.54286H75.2098V20H69.4035V5.54286H64.6133V0Z" fill="#FF0000"/>
</svg>
