<svg width="114" height="68" viewBox="0 0 114 68" fill="none" xmlns="http://www.w3.org/2000/svg">
<path fill-rule="evenodd" clip-rule="evenodd" d="M67.2176 57.7802C67.2176 58.4798 67.0796 58.8344 66.5299 59.5242C65.5745 60.6966 63.4859 60.9824 56.442 60.9132C51.6935 60.8642 50.846 60.7653 49.6637 60.1826C48.8471 59.7786 48.383 59.2564 48.1165 58.3995C47.9785 57.9757 47.9687 57.7883 48.0576 57.3848C48.2248 56.6164 48.4715 56.2124 50.1068 54.0055C51.3153 52.3793 52.241 51.0328 52.9432 49.8509C54.098 47.9105 54.6533 46.4128 54.8737 44.8532C55.0216 43.7891 55.0027 39.3263 54.854 38.6959C54.5781 37.5725 53.8195 36.3016 53.4357 36.3016C53.1108 36.3016 53.012 36.1147 53.0318 35.5826C53.0416 35.0802 53.1697 34.9225 53.5737 34.9225C53.7512 34.9225 53.7886 34.883 53.7215 34.745C53.4753 34.1936 53.8694 33.2477 54.9726 31.6911C56.4011 29.6914 56.6177 29.2083 56.7166 27.8687C56.7755 26.9426 56.6375 26.3418 56.0466 25.0804C55.741 24.4302 55.5541 23.877 55.5541 23.6716C55.5541 23.2483 55.7904 22.4992 56.2928 21.2877C56.5786 20.6078 56.6573 20.273 56.6771 19.7607C56.6869 19.1401 56.6771 19.1105 56.4699 19.1302C56.341 19.1496 56.1351 19.1105 55.9873 19.0611C55.7509 18.9626 55.741 18.9321 55.7904 18.4899C55.8197 18.232 55.8592 17.6424 55.8691 17.1696L55.8987 16.3127L53.9283 16.2633C51.6823 16.2138 51.1403 16.0957 50.5296 15.5537C50.3225 15.3668 50.0174 14.9727 49.8596 14.6968C49.7019 14.411 49.4754 14.0951 49.3572 13.9971C48.8742 13.554 48.9631 13.5441 52.155 13.5441H55.16V13.2682C55.16 13.0615 55.0908 12.9532 54.9232 12.8741C54.539 12.7069 53.9777 12.1551 53.7903 11.7808C53.6919 11.5835 53.5144 11.0932 53.3962 10.6771C53.1697 9.8696 53.2093 9.49484 53.5342 9.36677C53.6231 9.33755 54.401 9.3079 55.2683 9.3079H56.8352C57.1601 9.3079 58.29 9.30016 58.6377 9.28469C58.6471 9.28469 58.6596 9.28469 58.6742 9.28125C58.8843 9.30274 59.29 9.30833 60.0065 9.30833C61.977 9.30833 62.1149 9.35775 62.0264 10.1064C61.9576 10.6578 61.5833 11.6334 61.258 12.1061C61.129 12.2935 60.8149 12.5789 60.5587 12.7465C60.2037 12.9828 60.086 13.1208 60.086 13.2983V13.5446H63.0222C64.6278 13.5446 66.0069 13.5841 66.0761 13.6232C66.1646 13.6924 66.1448 13.7521 65.9876 13.8991C65.8788 13.998 65.6008 14.3916 65.3859 14.7586C64.972 15.4678 64.4305 15.9113 63.7308 16.1081C63.5435 16.1674 62.4897 16.2461 61.386 16.2757L59.3962 16.3346L59.4551 17.6351C59.5342 19.0735 59.5243 19.0834 58.9131 19.1032L58.5586 19.1131L58.5685 19.655C58.5882 20.2064 58.7064 20.5807 59.3468 22.1571C59.8887 23.4675 59.8788 23.8813 59.2178 25.1818C58.6467 26.3048 58.4872 27.0045 58.5577 27.9697C58.6561 29.201 58.9716 29.871 60.2918 31.6541C61.3461 33.0724 61.7793 34.1764 61.5231 34.7485C61.4642 34.8864 61.4935 34.9259 61.671 34.9259C61.9959 34.9259 62.2524 35.2019 62.2524 35.5762C62.2524 36.0197 62.1635 36.2067 61.9568 36.2067C61.5725 36.2067 60.8239 37.367 60.5282 38.4234C60.2622 39.3298 60.2029 43.2703 60.4298 44.7874C60.6266 46.1571 61.1174 47.6939 61.7303 48.8169C61.8893 49.1109 62.0964 49.4616 62.338 49.8544C63.158 51.1811 64.3733 52.9526 65.4542 54.3833C66.9597 56.3813 67.2253 56.8837 67.2176 57.7802Z" fill="white"/>
<path d="M77.9146 35.0809C77.9146 34.544 78.0034 33.8538 78.181 33.0103C78.3587 32.1668 78.5933 31.2656 78.885 30.3066C78.0478 30.3703 77.2043 30.4533 76.3545 30.5559C75.5173 30.6582 74.7879 30.7155 74.1661 30.7278C73.6424 31.9421 73.1852 33.1839 72.7965 34.4479C72.4763 35.5321 72.2159 36.6331 72.0164 37.7459C71.5342 37.6313 71.1347 37.4269 70.8178 37.1327C70.4748 36.8195 70.1798 36.4575 69.9424 36.0582C70.0438 35.8537 70.1584 35.5917 70.2862 35.2722C70.426 34.9524 70.5846 34.5689 70.7619 34.1217C70.9522 33.6613 71.1615 33.1312 71.3898 32.5316C71.6308 31.9184 71.903 31.209 72.2064 30.4033C71.7884 30.224 71.5095 29.9747 71.3696 29.6555C71.433 29.6043 71.5725 29.5531 71.7882 29.5021C72.0175 29.4379 72.2964 29.3739 72.625 29.31L72.8725 28.6967C73.139 28.0062 73.3539 27.4245 73.5172 26.9514C73.689 26.4993 73.8357 26.038 73.9569 25.5697C74.0841 25.1093 74.1987 24.6043 74.3007 24.0548C74.4153 23.5053 74.5485 22.8086 74.7004 21.9648C75.2368 22.0688 75.736 22.3137 76.1465 22.6744C76.5991 23.0551 76.9849 23.5087 77.288 24.0166C77.1328 24.2368 76.9929 24.4674 76.8694 24.7068C76.7044 25.0136 76.5204 25.3844 76.3176 25.819C76.1273 26.241 75.918 26.7204 75.6897 27.257C75.4605 27.7813 75.2132 28.3374 74.9479 28.9254C75.7338 28.8231 76.5264 28.7272 77.3258 28.6379C78.1378 28.5485 78.8541 28.4846 79.4746 28.4462C79.7039 27.7815 79.9385 27.1358 80.1786 26.5092C80.4322 25.8703 80.6796 25.2887 80.9208 24.7644C81.1621 24.24 81.3903 23.7799 81.6054 23.3839C81.8346 22.9871 82.0376 22.693 82.2144 22.5016C82.386 22.5279 82.5527 22.5796 82.7091 22.6551C82.9314 22.7349 83.1476 22.831 83.3559 22.9426C83.5637 23.0525 83.7612 23.181 83.946 23.3264C84.1236 23.4538 84.2441 23.5752 84.3074 23.6904C84.0483 23.9453 83.8185 24.2284 83.6223 24.5344C83.3721 24.9177 83.1434 25.3145 82.9373 25.7232C82.7218 26.1707 82.5062 26.6565 82.2905 27.1805C82.0747 27.7045 81.8717 28.2478 81.6815 28.8102C81.8041 28.9176 81.9016 29.0505 81.9674 29.1995C82.0332 29.3486 82.0656 29.5103 82.0623 29.6732C82.0646 29.9057 82.0125 30.1356 81.9101 30.3445C81.7973 30.3189 81.682 30.3061 81.5663 30.3062C81.4517 30.2933 81.3312 30.2804 81.2049 30.2675C80.9891 30.9583 80.7925 31.6422 80.6148 32.3193C80.4372 32.9963 80.285 33.6419 80.1584 34.2562C80.0438 34.8699 79.9487 35.4324 79.873 35.9435C79.8155 36.3695 79.7837 36.7986 79.7776 37.2285V37.5354C79.7905 37.6118 79.803 37.6759 79.8159 37.727C79.5371 37.7141 79.3341 37.663 79.2069 37.5736C79.0919 37.5079 78.9941 37.4158 78.9215 37.305C78.8569 37.2138 78.7994 37.1176 78.7496 37.0175C78.6922 36.9222 78.6053 36.8481 78.5021 36.8065C78.4135 36.7681 78.3312 36.6785 78.255 36.5379C78.1742 36.3856 78.1103 36.2249 78.0646 36.0587C78.0144 35.8825 77.9762 35.7032 77.9503 35.5219C77.9284 35.3759 77.9165 35.2286 77.9146 35.0809Z" fill="white"/>
<path d="M85.0561 36.8644C84.3326 36.7876 83.7555 36.468 83.3245 35.9056C82.8936 35.3432 82.678 34.6269 82.6777 33.7568C82.6817 33.2188 82.7584 32.6839 82.9059 32.1666C83.0599 31.6135 83.2769 31.08 83.5527 30.5765C83.8319 30.0525 84.163 29.5579 84.5412 29.1002C84.905 28.6563 85.3202 28.2571 85.7781 27.911C86.4755 27.387 87.1287 27.125 87.7378 27.125C88.1435 27.3425 88.5431 27.7963 88.9365 28.4865H89.1084C89.1646 28.4729 89.2224 28.4665 89.2803 28.4672C89.9524 28.4672 90.2885 29.068 90.2885 30.2696C90.2867 31.8152 89.7639 33.3151 88.8045 34.5269C88.3443 35.1183 87.784 35.6245 87.149 36.0225C86.5053 36.4219 85.7971 36.7068 85.0561 36.8644ZM86.0261 30.824C85.5745 31.4457 85.2038 32.1223 84.9228 32.8375C84.7881 33.1671 84.6799 33.507 84.5992 33.8539C84.528 34.1362 84.4898 34.4258 84.4853 34.7169C84.4843 35.0174 84.5358 35.3159 84.6375 35.5987C84.7389 35.8804 84.8535 36.0403 84.9813 36.0784C85.5452 35.9535 86.0766 35.7118 86.5413 35.3688C87.029 35.0049 87.4477 34.5567 87.7778 34.0456C88.143 33.4984 88.4187 32.8964 88.5944 32.2625C88.8009 31.572 88.9035 30.8545 88.8986 30.1338C88.904 29.8706 88.885 29.6075 88.8419 29.3478C88.8095 29.1713 88.745 29.0024 88.6515 28.8492C88.1 29.0113 87.5879 29.2855 87.1473 29.6546C86.7352 30.0058 86.3596 30.3975 86.0261 30.824Z" fill="white"/>
<path d="M96.3844 35.7739C96.1461 35.5737 95.9737 35.3064 95.8897 35.0068C95.8206 34.7502 95.7822 34.4863 95.7754 34.2207C95.7704 33.9869 95.8026 33.7538 95.8708 33.5301C95.8198 33.5301 95.7052 33.6324 95.527 33.8369C95.3488 34.0415 95.1521 34.285 94.9369 34.5675C94.7341 34.8486 94.5312 35.1234 94.3284 35.3918C94.1255 35.6603 93.9732 35.8586 93.8715 35.9866C93.7297 36.145 93.5701 36.2865 93.3958 36.4082C93.2565 36.5105 93.1419 36.5678 93.052 36.5801C92.8321 36.5635 92.6154 36.5183 92.4073 36.4456C91.9599 36.3176 91.5619 36.0569 91.2658 35.6978C91.1255 35.5175 91.0279 35.3076 90.9805 35.0841C90.9805 34.7265 90.9868 34.4326 90.9994 34.2022C91.0285 33.9505 91.073 33.7008 91.1326 33.4544C91.2687 32.8958 91.4343 32.3448 91.6286 31.8037C91.8569 31.1897 92.1173 30.588 92.4086 30.0012C92.6885 29.4209 93.013 28.8631 93.379 28.3329C93.7469 27.8086 94.1337 27.3994 94.5394 27.1055C94.6733 27.1073 94.8068 27.1203 94.9386 27.1441C95.0942 27.1574 95.2476 27.1896 95.3955 27.24C95.5537 27.2882 95.7067 27.3524 95.8519 27.4317C95.9976 27.491 96.1279 27.5829 96.2327 27.7003C96.1181 27.8278 95.8263 28.256 95.3572 28.9848C94.9008 29.7132 94.3871 30.7614 93.8161 32.1295C93.753 32.2704 93.677 32.475 93.5879 32.7432C93.4988 33.0113 93.4099 33.2926 93.3214 33.5868C93.2329 33.8808 93.1568 34.1684 93.0932 34.4498C93.049 34.671 93.0235 34.8956 93.0171 35.1211C93.0128 35.1996 93.0257 35.278 93.055 35.351C93.0843 35.3914 93.1161 35.4299 93.1504 35.4662C93.3403 35.3894 93.5813 35.1784 93.8732 34.8331C94.1652 34.4879 94.571 33.9578 95.0908 33.243C95.218 33.0642 95.364 32.8596 95.5287 32.6293C95.7063 32.4001 95.8838 32.1565 96.0612 31.8987C96.2388 31.6302 96.4037 31.3553 96.5559 31.0739C96.7149 30.8057 96.8487 30.5233 96.9555 30.2303C97.0063 30.0767 97.0697 29.8978 97.1459 29.6935C97.2345 29.4761 97.3359 29.2523 97.4502 29.0222C97.5771 28.793 97.7167 28.563 97.8688 28.332C98.0343 28.0884 98.2257 27.8633 98.4395 27.6607C98.6186 27.6623 98.7971 27.6816 98.9724 27.7183C99.154 27.7541 99.3322 27.8054 99.5049 27.8717C99.6649 27.9155 99.8185 27.9799 99.9618 28.0634C100.07 28.1137 100.167 28.1855 100.247 28.2744C100.018 28.8369 99.7642 29.393 99.486 29.9428C99.2078 30.4926 98.9478 31.0358 98.706 31.5725C98.4702 32.0833 98.2668 32.6086 98.097 33.145C97.9368 33.6408 97.8535 34.1582 97.8499 34.6793C97.8474 34.9169 97.8663 35.1542 97.9066 35.3884C97.9579 35.5806 98.0088 35.7468 98.0592 35.8869C98.1099 36.015 98.1543 36.1237 98.1924 36.2131C98.2367 36.2822 98.2628 36.3612 98.2685 36.443C98.2685 36.4559 98.2556 36.4753 98.2302 36.5006C98.2256 36.5062 98.2198 36.5108 98.2133 36.5142C98.2068 36.5175 98.1997 36.5195 98.1924 36.52C98.0758 36.5157 97.9602 36.4963 97.8486 36.4624C97.6862 36.4162 97.5272 36.3588 97.3728 36.2905C97.2078 36.2269 97.0366 36.1502 96.8593 36.0606C96.6957 35.9732 96.5374 35.8776 96.3844 35.7739Z" fill="white"/>
<path d="M107.176 28.5603C107.16 28.8201 107.115 29.0774 107.042 29.3274C106.983 29.5713 106.9 29.8089 106.795 30.0369C106.706 30.2201 106.598 30.393 106.472 30.5527C106.357 30.6931 106.249 30.7633 106.148 30.7633C106.008 30.7509 105.926 30.6551 105.901 30.4757C105.905 30.4169 105.918 30.359 105.939 30.3038C105.977 30.214 106.015 30.1182 106.053 30.0159C106.09 29.9154 106.122 29.813 106.148 29.709C106.183 29.6237 106.202 29.5329 106.205 29.4409C106.212 29.283 106.165 29.1276 106.072 28.9999C106.041 28.941 105.995 28.8918 105.937 28.8578C105.88 28.8239 105.815 28.8066 105.748 28.8078C105.241 28.8078 104.854 29.1274 104.588 29.7666C104.321 30.4058 104.188 31.3455 104.188 32.5855C104.188 32.7144 104.195 32.79 104.207 32.8158C104.474 32.8029 104.708 32.7965 104.911 32.7965C105.127 32.7836 105.336 32.7772 105.539 32.7772C105.555 32.8265 105.562 32.8787 105.558 32.9306C105.558 33.0452 105.533 33.1283 105.482 33.1798C105.191 33.2437 104.956 33.301 104.778 33.3518C104.648 33.3791 104.521 33.4177 104.398 33.4669C104.309 33.5053 104.252 33.55 104.226 33.601C104.211 33.657 104.204 33.715 104.206 33.7729V34.0798C104.221 34.2072 104.227 34.3354 104.226 34.4636C104.226 35.5371 103.934 36.4 103.35 37.0521C102.78 37.7053 101.982 38.0835 100.955 38.1866C100.763 38.1698 100.576 38.1178 100.403 38.0332C100.207 37.9399 100.022 37.8246 99.8515 37.6894C99.6863 37.5482 99.5394 37.3871 99.4139 37.2098C99.2934 37.0562 99.203 36.8812 99.1475 36.6941C99.1455 36.217 99.2496 35.7455 99.4522 35.3136C99.6481 34.8757 99.9252 34.4787 100.269 34.1438C100.628 33.7964 101.047 33.5171 101.506 33.3195C101.999 33.0995 102.527 32.9695 103.066 32.9357C103.066 32.6202 103.034 32.3054 102.971 31.9963C102.907 31.6894 102.837 31.3954 102.761 31.1144C102.698 30.8198 102.634 30.5385 102.571 30.2703C102.509 29.9999 102.477 29.7234 102.476 29.446C102.477 29.0966 102.548 28.7509 102.685 28.4296C102.821 28.0905 103.007 27.7738 103.237 27.4901C103.462 27.1997 103.731 26.9472 104.036 26.7423C104.325 26.5447 104.647 26.4017 104.988 26.3203C105.127 26.3584 105.311 26.473 105.539 26.6641C106.038 27.0395 106.48 27.4853 106.852 27.9874C107.03 28.216 107.137 28.407 107.176 28.5603ZM100.897 37.3043C101.212 37.1697 101.502 36.9816 101.753 36.7482C102.03 36.5076 102.274 36.2303 102.476 35.9239C102.677 35.6204 102.837 35.2914 102.952 34.9458C103.075 34.6209 103.139 34.2767 103.142 33.9294C102.888 33.968 102.609 34.0895 102.305 34.2938C101.991 34.4936 101.703 34.732 101.448 35.0034C101.194 35.257 100.97 35.5403 100.783 35.847C100.605 36.141 100.516 36.3967 100.516 36.6141C100.516 36.8952 100.643 37.1253 100.897 37.3043Z" fill="white"/>
<path d="M114 28.2543C113.949 29.0471 113.81 29.7312 113.581 30.3065C113.355 30.866 113.019 31.3745 112.593 31.8021C112.174 32.2235 111.661 32.607 111.052 32.9526C110.365 33.334 109.653 33.6672 108.921 33.9496C108.92 34.0331 108.914 34.1164 108.902 34.1989V34.4482C108.902 34.6215 108.915 34.7945 108.94 34.966C108.963 35.1372 109.008 35.3047 109.073 35.4646C109.132 35.6109 109.222 35.742 109.339 35.8479C109.465 35.9415 109.62 35.989 109.777 35.9824C110.126 35.9809 110.47 35.9023 110.785 35.7521C111.114 35.5991 111.427 35.4128 111.717 35.196C112.014 34.9728 112.293 34.7286 112.555 34.4654C112.821 34.1969 113.056 33.9534 113.259 33.7347C113.373 33.8371 113.481 33.946 113.582 34.0609C113.011 34.8276 112.384 35.4669 111.699 35.9786C111.026 36.4771 110.386 36.7966 109.777 36.937C108.901 36.8347 108.216 36.5152 107.722 35.9786C107.24 35.4285 106.999 34.7695 106.999 34.0016C107.001 33.4648 107.071 32.9305 107.208 32.4115C107.358 31.8682 107.562 31.3413 107.817 30.839C108.08 30.3341 108.385 29.853 108.731 29.401C109.064 28.9759 109.44 28.585 109.851 28.2341C110.228 27.9201 110.643 27.6559 111.087 27.4481C111.487 27.2632 111.922 27.165 112.362 27.1602C112.947 27.2381 113.493 27.6028 114 28.2543ZM112.687 28.8874C112.344 28.9387 111.988 29.0792 111.622 29.309C111.229 29.5614 110.876 29.8718 110.576 30.2296C110.238 30.6449 109.944 31.0948 109.701 31.5717C109.429 32.0959 109.219 32.6493 109.073 33.2212C110.087 32.7098 110.931 32.0833 111.603 31.3418C112.275 30.588 112.636 29.7698 112.687 28.8874Z" fill="white"/>
<path d="M12.4413 23.3219C12.4785 23.5337 12.5034 23.6831 12.5161 23.7702C12.5446 23.8735 12.5572 23.9806 12.5534 24.0878C12.5558 24.4916 12.4596 24.8899 12.2732 25.2482C12.0993 25.5966 11.8566 25.8455 11.5452 25.9951C11.2937 25.6564 10.9837 25.3653 10.6298 25.1356C10.2607 24.8827 9.85874 24.6815 9.43504 24.5378C9.00638 24.3746 8.56211 24.2558 8.10921 24.1832C7.6647 24.1098 7.215 24.0723 6.76446 24.071C6.35097 24.069 5.93822 24.1065 5.53189 24.1832C5.1862 24.2375 4.8479 24.3314 4.52365 24.463C4.26611 24.557 4.03082 24.7033 3.83259 24.8927C3.6765 25.0525 3.58932 25.2672 3.58977 25.4906C3.6273 25.7645 3.79534 26.0445 4.09388 26.3308C4.43593 26.6371 4.80471 26.9123 5.19581 27.1529C5.6316 27.4142 6.11093 27.6756 6.63382 27.9372C7.16902 28.1985 7.6919 28.4475 8.20247 28.6842C8.83824 28.9816 9.38533 29.2619 9.84375 29.5252C10.3045 29.7739 10.6842 30.054 10.9831 30.3654C11.277 30.6568 11.506 31.007 11.6552 31.393C11.8048 31.7789 11.8796 32.2458 11.8796 32.7936C11.8837 33.4056 11.7761 34.0132 11.562 34.5866C11.3556 35.1265 11.0373 35.6165 10.6281 36.0246C10.2173 36.4439 9.72033 36.769 9.1716 36.9774C8.59857 37.2138 7.9575 37.332 7.24838 37.332C6.55073 37.332 5.79749 37.2262 4.98866 37.0148C4.19834 36.8101 3.43409 36.5155 2.71089 36.1368C2.01381 35.7758 1.4286 35.3586 0.955286 34.8853C0.495148 34.3982 0.264935 33.8878 0.264648 33.354C0.264648 33.1048 0.333126 32.7872 0.470079 32.4012C0.619065 32.0153 0.880508 31.6107 1.25441 31.1876C1.29194 31.56 1.49106 32.002 1.85178 32.5134C2.22425 33.024 2.77822 33.4967 3.5137 33.9316C4.17353 34.3196 4.88356 34.6151 5.62386 34.8097C6.29619 34.976 6.98558 35.0637 7.67815 35.071C8.37524 35.071 8.94167 34.9839 9.37746 34.8097C9.81324 34.6355 10.1556 34.4299 10.4046 34.1929C10.6533 33.9442 10.8276 33.6953 10.9276 33.446C11.0276 33.1967 11.0836 32.9975 11.0957 32.8482C11.0834 32.5995 10.965 32.363 10.7407 32.1386C10.5292 31.9023 10.2367 31.6781 9.8631 31.4661C9.45385 31.2164 9.02974 30.9919 8.59313 30.7939C8.10806 30.5696 7.60395 30.3454 7.08078 30.1213C6.29659 29.7729 5.61799 29.4493 5.04496 29.1505C4.55048 28.8829 4.08176 28.5703 3.64478 28.2166C3.28377 27.8925 3.01603 27.5563 2.84154 27.2079C2.67937 26.8595 2.59843 26.4611 2.59872 26.0127C2.59872 25.3151 2.81045 24.6551 3.23392 24.0328C3.65738 23.4105 4.26737 22.9377 5.06387 22.6145C5.47008 22.4379 5.89667 22.3124 6.33384 22.2411C6.7782 22.1676 7.22776 22.1301 7.67815 22.1289C8.49285 22.128 9.30366 22.2411 10.087 22.465C10.8908 22.6954 11.6774 22.9818 12.4413 23.3219Z" fill="white"/>
<path d="M24.0058 30.1775C23.8069 30.1898 23.5643 30.3204 23.2778 30.5694C22.942 30.8551 22.6297 31.1672 22.3439 31.5029C22.0204 31.8753 21.678 32.2925 21.3167 32.7544C20.9683 33.2151 20.6261 33.6758 20.29 34.1365C19.966 34.5846 19.6608 35.0079 19.3746 35.4065C19.0884 35.805 18.8457 36.1226 18.6466 36.3593C18.3642 36.2512 18.1127 36.0754 17.914 35.8475C17.7154 35.6196 17.5757 35.3464 17.5073 35.0519C17.5732 34.649 17.6606 34.2499 17.769 33.8563C17.8875 33.4127 18.031 32.9763 18.1988 32.5489C18.3853 32.1008 18.6093 31.634 18.8709 31.1483C19.1714 30.6076 19.5014 30.0837 19.8594 29.5792C19.6729 29.5915 19.4177 29.7285 19.094 29.9901C18.7172 30.2885 18.3672 30.6193 18.0479 30.9786C17.6754 31.3768 17.2895 31.8312 16.8901 32.3418C16.4919 32.84 16.1184 33.3318 15.7697 33.8172C15.309 34.465 14.9231 35.0316 14.6119 35.5169C14.3131 36.004 14.0952 36.2905 13.9582 36.3764C13.6348 36.1401 13.4107 35.8848 13.2861 35.6106C13.156 35.3181 13.0619 35.0108 13.0059 34.6956C13.0264 34.3198 13.0695 33.9455 13.1348 33.5748C13.2264 33.1077 13.3448 32.6462 13.4893 32.1927C13.7844 31.2624 14.1529 30.357 14.5913 29.4851C15.052 28.5886 15.4939 27.7668 15.9171 27.0195C16.2466 27.087 16.5629 27.2078 16.8536 27.3771C17.1401 27.539 17.4389 27.7755 17.7501 28.0866C17.6044 28.5182 17.4102 28.9319 17.1712 29.3196C16.9099 29.7428 16.636 30.1911 16.3495 30.6644C16.0638 31.1366 15.802 31.6229 15.5651 32.1213C15.3348 32.5994 15.1775 33.1093 15.0984 33.6341C15.4468 33.1361 15.8577 32.5631 16.331 31.915C16.8163 31.2678 17.3081 30.6577 17.8064 30.0846C18.2688 29.5575 18.7747 29.0702 19.3187 28.6277C19.8167 28.2295 20.2649 28.0302 20.6635 28.0299C20.8279 28.0322 20.9912 28.0574 21.1487 28.1047C21.3159 28.1519 21.4785 28.2143 21.6343 28.2912C21.7652 28.3548 21.8902 28.4299 22.0078 28.5156C22.1075 28.578 22.1635 28.6279 22.1758 28.6651C22.1134 28.9138 21.964 29.2562 21.7276 29.6923C21.5035 30.1157 21.2608 30.564 20.9995 31.037C20.7383 31.51 20.4947 31.9707 20.2689 32.4191C20.0449 32.8549 19.9142 33.2036 19.877 33.4652C20.487 32.6306 21.06 31.8772 21.5961 31.205C22.0685 30.5932 22.5735 30.0071 23.1089 29.4494C23.5816 28.9638 24.0172 28.5902 24.4158 28.3286C24.8272 28.0667 25.2131 27.9358 25.5736 27.9358C25.8191 27.9347 26.0596 28.0062 26.2646 28.1412C26.4855 28.2615 26.6523 28.4612 26.7314 28.6999C26.6196 29.0724 26.4334 29.5206 26.1727 30.0447C25.924 30.5673 25.6687 31.1212 25.4068 31.7066C25.1455 32.2796 24.909 32.8462 24.6973 33.4063C24.4981 33.9667 24.3979 34.471 24.3964 34.9191C24.3964 35.181 24.4338 35.3553 24.5086 35.4421C24.583 35.5169 24.6891 35.5543 24.8258 35.5543C24.9663 35.556 25.1058 35.5306 25.2366 35.4795C25.3736 35.4173 25.4739 35.3863 25.5375 35.3863C25.5708 35.4066 25.5996 35.4337 25.6218 35.4658C25.644 35.4979 25.6592 35.5344 25.6664 35.5728C25.6782 35.6406 25.6844 35.7093 25.6849 35.7782C25.4494 35.9692 25.1926 36.1322 24.9195 36.2638C24.648 36.4032 24.3465 36.4737 24.0414 36.4693C23.7429 36.4693 23.4939 36.4196 23.2945 36.3201C23.1091 36.2213 22.9493 36.0807 22.8278 35.9093C22.7009 35.7299 22.612 35.5264 22.5665 35.3115C22.5149 35.0714 22.4898 34.8264 22.4917 34.5809C22.4916 34.1581 22.5481 33.7372 22.6597 33.3294C22.7662 32.9235 22.8971 32.5243 23.0517 32.1342C23.2144 31.7511 23.3832 31.3974 23.558 31.0731C23.7322 30.7376 23.8814 30.4391 24.0058 30.1775Z" fill="white"/>
<path d="M29.6949 36.5644C28.9855 36.4896 28.419 36.1783 27.9956 35.6305C27.5721 35.0827 27.3604 34.3853 27.3604 33.5384C27.3641 33.0138 27.4396 32.4923 27.5847 31.9882C27.7358 31.4487 27.9488 30.9286 28.2195 30.438C28.4938 29.9271 28.8193 29.4453 29.1907 29C29.5479 28.5665 29.9553 28.1769 30.4044 27.8396C31.0889 27.3296 31.7301 27.0745 32.328 27.0742C32.7263 27.2857 33.1184 27.7276 33.5043 28.4001H33.6724C33.7274 28.3871 33.7838 28.3809 33.8404 28.3816C34.4994 28.3816 34.8289 28.9668 34.8289 30.1372C34.8324 30.9016 34.6997 31.6606 34.4369 32.3784C34.1916 33.0688 33.8317 33.7128 33.3724 34.2836C32.9197 34.86 32.37 35.353 31.7479 35.7405C31.1159 36.1309 30.4214 36.4096 29.6949 36.5644ZM30.6472 30.6808C30.4282 30.979 30.2287 31.2909 30.0498 31.6147C29.8652 31.9459 29.7029 32.289 29.5642 32.6419C29.4321 32.9624 29.3259 33.2929 29.2466 33.6303C29.1766 33.9051 29.1389 34.187 29.1344 34.4705C29.1333 34.7636 29.1839 35.0546 29.284 35.3301C29.3837 35.6043 29.4957 35.76 29.6201 35.7972C30.173 35.6759 30.6946 35.4405 31.1513 35.1062C31.6295 34.752 32.0406 34.3154 32.3654 33.8169C32.724 33.2845 32.995 32.6982 33.1682 32.0802C33.3716 31.408 33.473 30.7092 33.4691 30.007C33.4745 29.7505 33.4558 29.4941 33.4132 29.2411C33.3816 29.069 33.3182 28.9044 33.2263 28.7555C32.6862 28.9135 32.1842 29.1804 31.7513 29.5398C31.3457 29.882 30.9758 30.2642 30.6472 30.6808Z" fill="white"/>
<path d="M51.5924 28.1773C51.5425 28.9492 51.4055 29.6154 51.1815 30.1758C50.959 30.7217 50.6288 31.2171 50.2106 31.6327C49.7998 32.0435 49.2955 32.417 48.6979 32.7531C48.0241 33.1249 47.3253 33.4494 46.6066 33.7244C46.606 33.8056 46.5997 33.8868 46.5877 33.9672V34.2087C46.5882 34.3774 46.6007 34.5459 46.6251 34.7128C46.6473 34.8795 46.6906 35.0427 46.754 35.1985C46.8116 35.3412 46.9009 35.4689 47.0153 35.5719C47.1398 35.6624 47.2914 35.7078 47.4451 35.7009C47.787 35.6993 48.1244 35.6227 48.4336 35.4765C48.7562 35.3276 49.0627 35.1462 49.3485 34.935C49.6388 34.718 49.9134 34.4808 50.1702 34.225C50.4315 33.9637 50.6619 33.7272 50.8613 33.5155C50.9731 33.6151 51.079 33.7212 51.1785 33.8331C50.6186 34.58 50.0026 35.2026 49.3305 35.7009C48.6715 36.1879 48.0428 36.4992 47.4442 36.6348C46.5847 36.535 45.9124 36.2238 45.4273 35.7009C44.954 35.1654 44.7175 34.524 44.7178 33.7768C44.7194 33.2534 44.7884 32.7324 44.9232 32.2266C45.0703 31.6974 45.2704 31.1844 45.5206 30.6954C45.7783 30.2033 46.0783 29.7345 46.4171 29.2943C46.7459 28.8791 47.115 28.4975 47.519 28.155C47.8893 27.849 48.2971 27.5916 48.7327 27.3891C49.1255 27.2093 49.5517 27.114 49.9837 27.1094C50.557 27.1859 51.0932 27.5419 51.5924 28.1773ZM50.303 28.7936C49.967 28.8435 49.6184 28.9804 49.2574 29.2045C48.8718 29.4498 48.5255 29.7521 48.2303 30.101C47.8985 30.5053 47.6104 30.9435 47.3707 31.4083C47.1048 31.9186 46.898 32.4576 46.7544 33.0148C47.7506 32.5169 48.5785 31.9067 49.2381 31.1844C49.8991 30.4501 50.2543 29.6532 50.3039 28.7936H50.303Z" fill="white"/>
<path fill-rule="evenodd" clip-rule="evenodd" d="M36.108 32.2855C35.8837 33.0823 35.7715 33.7049 35.7715 34.1533C35.7715 34.5891 35.8089 34.9501 35.8837 35.2363C35.9584 35.5225 36.0518 35.7088 36.1639 35.795C36.2416 35.8606 36.3106 35.9359 36.3693 36.0189C36.4441 36.1186 36.5312 36.2433 36.6306 36.3928C36.7165 36.5544 36.9531 36.654 37.3401 36.6915C37.299 36.5521 37.2802 36.407 37.2843 36.2617C37.2864 35.949 37.3114 35.6369 37.359 35.3279C37.4095 34.9884 37.4781 34.6518 37.5645 34.3196C37.6642 33.9706 37.7762 33.6344 37.9006 33.311C38.0125 33.0131 38.1499 32.7256 38.3114 32.4514C38.6724 31.8288 39.0459 31.2498 39.4318 30.7143C39.7911 30.226 40.1777 29.7584 40.5896 29.3137C40.9755 28.9154 41.3366 28.6041 41.6726 28.3798C42.0087 28.1555 42.3012 28.0371 42.5502 28.0248C42.6875 28.0248 42.7559 28.0747 42.7556 28.1744C42.7556 28.807 42.3875 29.536 41.6511 30.3615C41.6225 30.7471 41.6405 31.0733 41.7053 31.34C41.7708 31.5887 41.888 31.8208 42.0491 32.0212C42.0667 32.0092 42.0848 31.9972 42.1028 31.9843C42.4488 31.7377 42.757 31.442 43.0178 31.1067C43.2872 30.7656 43.5071 30.3883 43.6711 29.9858C43.8281 29.6001 43.9105 29.1882 43.9139 28.7717C43.9139 28.1128 43.64 27.5836 43.0922 27.1842C42.7197 27.1968 42.3214 27.3151 41.8974 27.5392C41.4865 27.7509 41.0632 28.056 40.6274 28.4546C40.152 28.8963 39.7147 29.3774 39.3201 29.8926C38.8618 30.4865 38.4438 31.1105 38.069 31.7603C38.3811 30.8179 38.7491 29.8948 39.171 28.9961C39.6035 28.0779 40.0898 27.186 40.6274 26.3251C41.1227 25.5171 41.6717 24.7433 42.2709 24.009C42.8556 23.2994 43.4287 22.7205 43.9899 22.2724C43.9899 22.0979 43.9278 21.9049 43.8034 21.6935C43.6874 21.476 43.5428 21.2749 43.3737 21.0956C43.2053 20.9012 43.0105 20.7315 42.7948 20.5915C42.5956 20.4543 42.4094 20.3795 42.2361 20.3672C41.9246 20.5915 41.5448 21.0213 41.0967 21.6565C40.661 22.2911 40.2004 23.0444 39.715 23.9162C39.242 24.7878 38.7693 25.7278 38.2968 26.7364C37.8243 27.7449 37.4012 28.7223 37.0273 29.6687C36.6511 30.6162 36.3447 31.4884 36.108 32.2855ZM41.1651 32.8679C40.9439 32.297 40.8733 31.6788 40.9601 31.0727C40.7286 31.2988 40.5055 31.5038 40.2909 31.6877C40.0816 31.8608 39.8634 32.0229 39.6372 32.1734C39.7745 32.9452 39.9301 33.686 40.104 34.3957C40.2515 35.0151 40.4322 35.6261 40.6455 36.2261C40.8824 36.8613 41.1439 37.3469 41.4298 37.683C41.7289 38.0191 42.0464 38.1872 42.3822 38.1875C42.5851 38.1869 42.7866 38.1553 42.98 38.0938C43.1827 38.0475 43.3777 37.9721 43.5589 37.8699C43.7244 37.7889 43.8758 37.6816 44.0071 37.5523C44.1198 37.4436 44.2143 37.3175 44.2869 37.1789C43.8533 36.9313 43.4572 36.623 43.1106 36.2635C42.7716 35.8989 42.4654 35.5051 42.1957 35.0868C41.9361 34.6671 41.7052 34.2303 41.5046 33.7794C41.3771 33.4731 41.2639 33.1693 41.1651 32.8679Z" fill="white"/>
<path d="M6.57182 20.0362C4.57426 20.0362 2.96349 19.9375 1.73951 19.7401C0.579707 19.5318 0.000523215 19.2475 0.00195578 18.887C0.00195578 18.8297 0.066421 18.7426 0.195352 18.6257C0.30993 18.5192 0.44043 18.4312 0.582143 18.3649C1.67777 18.3995 2.70921 18.4227 3.67647 18.4345H7.44597C10.732 18.4345 13.7924 18.417 16.6271 18.382C19.5269 18.3471 22.1365 18.3064 24.4558 18.26C25.7666 18.2339 26.9746 18.2096 28.08 18.1869L30.4476 18.1384L30.6002 18.1354C32.2015 18.1024 33.4392 18.0859 34.3134 18.0859C35.5379 18.0859 36.6012 18.2194 37.5031 18.4865C38.4692 18.7535 39.1779 19.1366 39.6292 19.6357C38.0184 19.601 36.6976 19.5778 35.6667 19.5661C34.6358 19.5543 33.7333 19.5486 32.9592 19.5489C31.8779 19.5489 30.8259 19.5533 29.8034 19.5622C28.9782 19.5691 28.1723 19.5789 27.3855 19.5918C26.6495 19.6042 25.9302 19.6185 25.2276 19.6348C22.8436 19.6812 20.5884 19.7335 18.4622 19.7917C16.336 19.8498 14.3064 19.9071 12.3733 19.9636C10.4387 20.012 8.50492 20.0362 6.57182 20.0362Z" fill="white"/>
<path d="M8.55669 43.88C5.9563 43.88 3.85903 43.7813 2.26488 43.5839C0.755245 43.375 0.000286512 43.0906 0 42.7308C0 42.6735 0.0838038 42.5864 0.251413 42.4695C0.406658 42.3599 0.576114 42.272 0.755102 42.2082C2.18107 42.2431 3.52324 42.2663 4.7816 42.2778H9.68913C13.9676 42.2778 17.9524 42.2605 21.6436 42.2258C22.8638 42.2146 24.0447 42.2027 25.1861 42.1901L26.8622 42.1712C27.4639 42.1638 28.0547 42.1563 28.6346 42.1489L29.2625 42.1407C30.1507 42.1292 31.0094 42.1169 31.8385 42.1037C34.8584 42.0573 37.4589 42.0168 39.6401 41.9821C41.8213 41.9474 43.4991 41.93 44.6736 41.9297C46.2674 41.9297 47.6516 42.0632 48.826 42.3302C50.0843 42.5973 51.0072 42.9803 51.5945 43.4794C49.4973 43.4448 47.7775 43.4216 46.4352 43.4098C45.0929 43.3981 43.9182 43.3922 42.9111 43.3922C39.3036 43.3922 35.948 43.4208 32.8442 43.4781C31.7915 43.4939 30.7584 43.5104 29.7447 43.5276L29.501 43.5314L29.3123 43.5349L29.0115 43.54L27.2301 43.5718L25.5652 43.6036L24.0361 43.635C21.2678 43.6923 18.6253 43.7503 16.1086 43.8091C13.5907 43.8563 11.0734 43.88 8.55669 43.88Z" fill="white"/>
<path d="M107.428 20.0362C109.426 20.0362 111.036 19.9375 112.261 19.7401C113.42 19.5312 114 19.2469 114 18.887C114 18.8297 113.936 18.7426 113.807 18.6257C113.692 18.5193 113.562 18.4313 113.42 18.3649C112.325 18.3995 111.294 18.4227 110.326 18.4345H106.557C103.271 18.4345 100.21 18.417 97.3751 18.382C94.4759 18.3471 91.8665 18.3064 89.5469 18.26L85.8006 18.1844L84.4086 18.156L83.5546 18.1384C81.8794 18.1037 80.5908 18.0862 79.6888 18.0859C78.4643 18.0859 77.4012 18.2194 76.4995 18.4865C75.5331 18.7535 74.8243 19.1366 74.373 19.6357C75.9838 19.601 77.3048 19.5778 78.3359 19.5661C79.3671 19.5543 80.2696 19.5486 81.0435 19.5489C82.4792 19.5489 83.8629 19.5566 85.1946 19.5721C85.6642 19.5778 86.1275 19.5843 86.5845 19.5914C87.332 19.6037 88.0626 19.6181 88.7763 19.6344C91.1604 19.6808 93.4154 19.7331 95.5413 19.7913C97.6672 19.8494 99.6969 19.9067 101.63 19.9632C103.562 20.0119 105.495 20.0362 107.428 20.0362Z" fill="white"/>
<path d="M105.443 43.88C108.044 43.88 110.141 43.7813 111.734 43.5839C113.245 43.375 114 43.0906 114 42.7308C114 42.6728 113.914 42.5855 113.748 42.4695C113.593 42.3599 113.423 42.272 113.245 42.2082C111.818 42.2431 110.476 42.2663 109.218 42.2778H104.31C100.032 42.2778 96.0472 42.2605 92.3557 42.2258C91.218 42.2152 90.1149 42.2042 89.0465 42.1927C88.3449 42.185 87.6581 42.1771 86.9862 42.1691C85.2843 42.149 83.6772 42.1272 82.1647 42.1037C79.1445 42.0573 76.5439 42.0168 74.3626 41.9821C72.1814 41.9474 70.5036 41.93 69.3292 41.9297C67.7356 41.9297 66.3515 42.0632 65.1768 42.3302C63.9184 42.5973 62.9956 42.9803 62.4082 43.4794C64.5055 43.4448 66.2245 43.4216 67.5654 43.4098C68.9063 43.3981 70.081 43.3922 71.0895 43.3922C74.6967 43.3922 78.0522 43.4208 81.156 43.4781C82.992 43.5068 84.7683 43.5363 86.4851 43.5667C87.2131 43.5799 87.9307 43.5942 88.6378 43.6097C89.0833 43.6182 89.525 43.6273 89.9628 43.6367C92.7314 43.694 95.374 43.752 97.8907 43.8108C100.409 43.8569 102.926 43.88 105.443 43.88Z" fill="white"/>
<path d="M24.5459 38.8711C24.6293 39.4707 24.7278 40.0724 24.8416 40.6761H26.5405C26.4078 39.9741 26.2983 39.2696 26.2121 38.5625L24.5459 38.8711Z" fill="white"/>
<path d="M25.0254 26.5046L27.2056 26.1053C27.6064 24.6676 28.1029 23.2582 28.6917 21.8867H26.417C25.8452 23.3914 25.3802 24.9345 25.0254 26.5046Z" fill="white"/>
<path d="M89.4371 40.6799C89.5609 40.1212 89.7809 39.0467 89.8342 38.6574C89.8772 38.3462 89.9202 37.944 89.9632 37.5L87.905 38.4059C87.8057 38.9904 87.5496 40.125 87.4189 40.6799H89.4371Z" fill="white"/>
<path d="M85.9346 21.1875C86.4503 22.4072 86.9514 23.782 87.2729 24.9127C87.3021 25.0142 87.3313 25.1169 87.3588 25.2209L89.0598 26.1071C88.8879 25.4521 88.6958 24.7912 88.4835 24.1245C88.1651 23.1247 87.7895 22.1441 87.3584 21.1875H85.9346Z" fill="white"/>
<path d="M82.3887 13.4316C79.4366 10.1456 76.5868 8.05952 73.3915 6.60862C72.3863 6.07657 72.3962 6.09634 73.5883 6.89442C77.5495 9.55049 80.9547 12.9534 83.6135 16.9127L85.0103 16.9342C84.3377 15.9711 83.152 14.2808 82.3887 13.4316Z" fill="white"/>
<path fill-rule="evenodd" clip-rule="evenodd" d="M28.8262 40.6739H28.3105C28.1558 39.8672 28.0307 39.1078 27.9336 38.3828L28.8236 40.6606L28.8262 40.6739Z" fill="white"/>
<path fill-rule="evenodd" clip-rule="evenodd" d="M88.255 44.7803C86.6928 49.0146 84.2259 52.8572 81.0263 56.0403C77.8344 59.2421 74.1792 61.6273 69.943 63.2604C68.1809 63.9403 67.8646 64.0387 66.1993 64.4526C63.4311 65.1325 61.2737 65.3981 58.3869 65.3981C55.7959 65.3981 54.1902 65.2012 51.4415 64.551C46.5851 63.3983 42.3484 61.2508 38.3765 57.9012C35.7042 55.6582 33.4509 52.9249 31.719 49.8847C30.9883 48.6018 30.3523 47.2672 29.8159 45.8917C29.6586 45.489 29.5362 45.1869 29.3965 44.7773H30.2345C30.4859 45.3734 30.7193 45.8561 31.0081 46.4337C31.5995 47.6254 32.2664 48.7781 33.0048 49.8847C35.6621 53.8601 39.1698 57.0618 43.4912 59.4685C46.821 61.3303 50.1014 62.4142 54.2294 63.0446C55.3897 63.2217 56.1014 63.2595 58.0225 63.2711C60.9484 63.2711 62.1306 63.1332 65.2142 62.3845C70.5244 61.1137 75.6576 58.1779 79.6974 54.1188C81.9773 51.856 83.859 49.2246 85.2633 46.3357C85.5062 45.8432 85.7692 45.2527 85.9781 44.7782L88.255 44.7803Z" fill="white"/>
<path fill-rule="evenodd" clip-rule="evenodd" d="M64.0319 0.331588C63.4508 0.193632 59.1157 -0.0427402 58.2192 0.00668312C58.1763 0.010551 58.0099 0.0178579 57.771 0.0290319C57.4353 0.0440738 56.9544 0.0664208 56.446 0.0952153C53.5399 0.224146 51.6189 0.538307 48.8108 1.3265C44.4465 2.55822 40.4367 4.65634 36.6539 7.70082C35.2941 8.78427 32.6932 11.405 31.5504 12.8434C30.961 13.5826 30.4023 14.3499 29.8743 15.1453C29.5339 15.6567 29.0878 16.4234 28.7754 16.9542H31.3325C31.6858 16.4213 32.2101 15.655 32.5935 15.1453C35.5269 11.2364 39.3238 8.05816 43.6879 5.85841C46.1213 4.62712 48.0819 3.90769 50.9291 3.19858C52.4363 2.82425 53.7269 2.62698 56.0322 2.40049C56.6136 2.35107 56.4559 2.49891 55.7369 2.69617C55.3621 2.79459 54.2392 3.16892 53.2344 3.53336C48.8997 5.10975 46.9292 6.28388 46.9391 7.27707C46.949 7.73005 47.4712 8.16368 48.0135 8.16368C48.1807 8.16368 49.4025 7.89766 50.7211 7.57275C53.3715 6.92251 54.3174 6.74502 56.2483 6.54819C58.386 6.3333 61.6763 6.49876 61.7455 6.8241C61.7554 6.87309 61.0656 7.149 60.2185 7.4348C58.4135 8.03647 57.8144 8.34118 57.2729 8.92223L56.9467 9.2828H58.557C58.5239 9.26432 58.5274 9.23983 58.5532 9.20931C58.7204 9.00259 59.5679 8.69703 60.6221 8.46066C62.3459 8.06656 63.1637 7.61315 63.3296 6.93369C63.615 5.79093 61.152 5.22923 56.3446 5.33753C54.8374 5.37707 54.0883 5.3573 54.2757 5.29799C54.9633 5.09127 58.3052 4.31296 59.3397 4.13762C59.9504 4.01943 61.2801 3.86214 62.2952 3.78306C63.3 3.69453 64.3151 3.58623 64.5411 3.5252C65.7135 3.26734 66.2456 2.82596 66.2456 2.11642C66.2486 1.26762 65.4991 0.676262 64.0319 0.331588Z" fill="white"/>
<path fill-rule="evenodd" clip-rule="evenodd" d="M56.6918 67.4614C55.8753 67.4713 53.9843 67.3235 52.8497 67.1657C52.4457 67.1064 51.9532 67.0368 51.7658 67.0179C49.8547 66.742 46.505 65.757 44.3278 64.8209C37.1885 61.7481 31.623 56.6145 28.0757 49.8886C27.3953 48.5959 26.7953 47.2624 26.2793 45.8956C26.1628 45.5828 26.0644 45.2617 25.917 44.7812H27.5931C27.722 45.1741 27.8307 45.4599 27.9739 45.8462C27.9799 45.863 27.9863 45.8793 27.9923 45.8956C28.4979 47.2654 29.0955 48.5995 29.781 49.8886C31.0665 52.2902 32.6631 54.4665 34.7913 56.7821C40.3181 62.7817 47.1256 66.1902 55.6084 67.2255C57.1745 67.4219 57.3223 67.4515 56.6918 67.4614Z" fill="white"/>
</svg>
