<svg width="840" height="538" viewBox="0 0 840 538" fill="none" xmlns="http://www.w3.org/2000/svg">
<g filter="url(#filter0_f_736_12968)">
<path fill-rule="evenodd" clip-rule="evenodd" d="M475.498 411.776C475.498 415.956 474.7 418.046 471.409 422.126C465.723 429.092 453.354 430.784 411.559 430.385C383.43 430.087 378.343 429.49 371.36 426.106C366.473 423.718 363.779 420.633 362.183 415.558C361.385 413.07 361.286 411.975 361.784 409.587C362.782 405.009 364.278 402.621 373.954 389.585C381.136 379.932 386.622 371.971 390.811 365.005C397.694 353.56 400.986 344.704 402.283 335.449C403.18 329.179 403.08 302.709 402.183 299.027C400.587 292.359 396.098 284.896 393.804 284.896C391.909 284.896 391.31 283.801 391.41 280.616C391.51 277.631 392.208 276.735 394.602 276.735C395.699 276.735 395.899 276.536 395.5 275.641C394.003 272.357 396.397 266.784 402.881 257.529C411.36 245.687 412.656 242.801 413.255 234.939C413.654 229.466 412.756 225.884 409.265 218.42C407.469 214.539 406.372 211.255 406.372 210.061C406.372 207.573 407.769 203.095 410.761 195.93C412.457 191.949 412.956 189.959 413.055 186.874C413.155 183.192 413.055 182.993 411.858 183.192C411.06 183.292 409.863 183.092 408.966 182.794C407.569 182.197 407.469 181.998 407.769 179.41C407.968 177.918 408.168 174.435 408.267 171.648L408.467 166.573L396.796 166.275C383.53 165.976 380.238 165.279 376.647 162.095C375.45 161 373.654 158.612 372.657 157.02C371.759 155.328 370.363 153.437 369.665 152.84C366.772 150.253 367.37 150.153 386.223 150.153H404.078V148.561C404.078 147.367 403.679 146.67 402.681 146.272C400.387 145.277 397.096 141.993 395.998 139.804C395.4 138.61 394.402 135.724 393.704 133.236C392.407 128.459 392.607 126.27 394.502 125.474C395.001 125.275 399.689 125.175 404.776 125.175H414.053C415.948 125.175 422.631 125.175 424.726 125.076C424.826 125.076 424.826 125.076 424.926 125.076C426.123 125.175 428.616 125.275 432.806 125.275C444.476 125.275 445.274 125.573 444.776 129.952C444.377 133.236 442.182 139.008 440.187 141.794C439.389 142.889 437.594 144.58 435.998 145.576C433.903 146.969 433.205 147.765 433.205 148.86V150.352H450.661C460.137 150.352 468.316 150.551 468.815 150.85C469.314 151.248 469.214 151.646 468.316 152.442C467.718 153.039 466.022 155.328 464.725 157.517C462.232 161.697 459.04 164.384 454.95 165.478C453.853 165.877 447.569 166.275 441.085 166.474L429.315 166.772L429.714 174.435C430.212 182.993 430.112 182.993 426.522 183.092L424.427 183.192L424.527 186.376C424.626 189.66 425.325 191.85 429.115 201.204C432.307 208.966 432.307 211.355 428.317 219.117C424.926 225.784 424.028 229.864 424.427 235.636C425.025 242.901 426.921 246.881 434.701 257.43C440.985 265.789 443.479 272.357 441.983 275.74C441.584 276.536 441.783 276.835 442.88 276.835C444.776 276.835 446.372 278.427 446.372 280.716C446.372 283.303 445.873 284.398 444.576 284.398C442.282 284.398 437.893 291.265 436.097 297.534C434.501 302.908 434.202 326.194 435.499 335.15C436.696 343.211 439.589 352.366 443.18 359.034C444.077 360.725 445.374 362.815 446.771 365.204C451.658 373.065 458.84 383.514 465.224 391.973C474.002 403.417 475.598 406.403 475.498 411.776Z" fill="#FF00C4"/>
<path d="M538.939 277.432C538.939 274.247 539.438 270.167 540.535 265.192C541.632 260.216 543.029 254.842 544.724 249.17C539.737 249.568 534.75 250.065 529.762 250.662C524.775 251.26 520.485 251.558 516.795 251.658C513.702 258.823 511.009 266.187 508.715 273.65C506.82 280.019 505.224 286.587 504.127 293.155C501.234 292.458 498.94 291.264 497.044 289.573C495.049 287.682 493.254 285.592 491.857 283.204C492.456 282.009 493.154 280.417 493.852 278.526C494.65 276.636 495.648 274.347 496.645 271.759C497.743 269.073 499.039 265.888 500.336 262.306C501.733 258.723 503.428 254.444 505.224 249.667C502.73 248.573 501.134 247.179 500.236 245.289C500.635 244.99 501.433 244.692 502.73 244.393C504.127 243.995 505.723 243.597 507.718 243.298L509.214 239.716C510.81 235.636 512.107 232.153 513.004 229.366C514.002 226.679 514.899 223.993 515.598 221.206C516.396 218.519 516.994 215.534 517.593 212.25C518.291 208.966 519.089 204.886 519.987 199.91C523.179 200.507 526.171 202 528.565 204.09C531.258 206.379 533.553 209.065 535.348 212.051C534.45 213.345 533.553 214.738 532.854 216.131C531.857 217.922 530.76 220.112 529.563 222.699C528.465 225.187 527.169 228.073 525.872 231.158C524.475 234.243 523.079 237.527 521.483 241.01C526.171 240.412 530.859 239.815 535.548 239.318C540.336 238.82 544.625 238.422 548.315 238.223C549.712 234.243 551.108 230.461 552.505 226.779C554.001 222.997 555.497 219.514 556.894 216.43C558.29 213.345 559.687 210.558 560.984 208.269C562.38 205.881 563.577 204.189 564.575 203.095C565.572 203.294 566.57 203.592 567.467 203.99C568.764 204.488 570.061 204.985 571.258 205.682C572.455 206.379 573.652 207.075 574.749 207.971C575.846 208.767 576.544 209.464 576.844 210.16C575.347 211.653 573.951 213.345 572.754 215.136C571.258 217.425 569.961 219.713 568.664 222.201C567.368 224.888 566.071 227.675 564.874 230.859C563.577 233.944 562.38 237.128 561.283 240.512C561.981 241.109 562.58 241.905 562.979 242.801C563.378 243.696 563.577 244.592 563.577 245.587C563.577 246.98 563.278 248.274 562.679 249.568C561.981 249.369 561.283 249.369 560.684 249.369C559.986 249.269 559.288 249.17 558.59 249.17C557.293 253.25 556.096 257.33 555.098 261.31C554.001 265.291 553.103 269.172 552.405 272.755C551.707 276.337 551.208 279.721 550.709 282.706C550.41 285.194 550.211 287.781 550.111 290.269V292.06C550.211 292.558 550.211 292.856 550.31 293.155C548.615 293.056 547.418 292.757 546.719 292.259C546.021 291.861 545.423 291.364 545.024 290.667C544.625 290.17 544.325 289.573 544.026 288.975C543.727 288.378 543.128 287.98 542.53 287.682C542.031 287.483 541.533 286.886 541.034 286.09C540.535 285.194 540.136 284.199 539.937 283.303C539.637 282.308 539.438 281.213 539.238 280.119C539.039 279.223 538.939 278.327 538.939 277.432Z" fill="#00FFF9"/>
<path d="M581.332 287.981C577.043 287.483 573.652 285.593 571.058 282.309C568.465 279.025 567.268 274.745 567.268 269.571C567.268 266.386 567.766 263.202 568.664 260.117C569.562 256.833 570.859 253.648 572.455 250.663C574.15 247.578 576.045 244.593 578.34 241.906C580.534 239.318 582.928 236.93 585.721 234.84C589.811 231.755 593.701 230.163 597.292 230.163C599.686 231.457 602.08 234.144 604.374 238.224H605.372C605.671 238.124 606.07 238.124 606.369 238.124C610.359 238.124 612.354 241.707 612.354 248.772C612.354 257.928 609.262 266.784 603.576 273.949C600.883 277.432 597.492 280.418 593.801 282.806C589.911 285.394 585.721 287.085 581.332 287.981ZM587.018 252.255C584.325 255.937 582.13 259.918 580.434 264.197C579.636 266.187 579.038 268.178 578.539 270.168C578.14 271.86 577.841 273.551 577.841 275.243C577.841 277.034 578.14 278.826 578.739 280.418C579.337 282.11 580.035 283.005 580.734 283.304C584.125 282.607 587.217 281.114 590.01 279.124C592.903 276.935 595.397 274.347 597.292 271.262C599.487 267.979 601.083 264.496 602.18 260.714C603.377 256.634 603.975 252.355 603.975 248.076C603.975 246.483 603.876 244.991 603.676 243.398C603.477 242.403 603.078 241.309 602.579 240.413C599.287 241.408 596.295 243 593.701 245.19C591.307 247.479 589.013 249.767 587.018 252.255Z" fill="#00FFF9"/>
<path d="M648.462 281.512C647.065 280.318 646.068 278.726 645.569 276.934C645.17 275.442 644.97 273.849 644.871 272.257C644.871 270.864 645.07 269.471 645.469 268.177C645.17 268.177 644.472 268.774 643.474 269.968C642.377 271.163 641.28 272.655 639.983 274.248C638.786 275.939 637.589 277.531 636.392 279.124C635.195 280.716 634.297 281.91 633.699 282.607C632.901 283.502 631.903 284.398 630.906 285.095C630.108 285.692 629.409 285.99 628.911 286.09C627.614 285.99 626.317 285.692 625.12 285.294C622.427 284.497 620.133 283.005 618.337 280.915C617.539 279.82 616.941 278.626 616.642 277.332C616.642 275.243 616.642 273.451 616.741 272.158C616.941 270.665 617.14 269.172 617.539 267.779C618.337 264.495 619.335 261.211 620.432 258.027C621.829 254.444 623.325 250.862 625.021 247.379C626.716 243.995 628.612 240.612 630.806 237.527C633 234.442 635.295 232.053 637.689 230.262C638.487 230.262 639.285 230.362 640.083 230.461C640.98 230.561 641.878 230.76 642.776 231.058C643.674 231.357 644.571 231.755 645.469 232.153C646.367 232.551 647.065 233.049 647.763 233.745C647.065 234.541 645.369 237.029 642.576 241.308C639.883 245.587 636.791 251.857 633.399 259.917C633 260.714 632.601 262.007 632.003 263.5C631.504 265.092 630.906 266.784 630.407 268.476C629.908 270.167 629.41 271.959 629.011 273.551C628.711 274.845 628.612 276.138 628.512 277.531C628.512 278.029 628.611 278.427 628.711 278.925C628.911 279.124 629.11 279.422 629.31 279.621C630.407 279.124 631.903 277.93 633.599 275.84C635.295 273.75 637.689 270.665 640.781 266.386C641.579 265.291 642.377 264.097 643.374 262.803C644.472 261.41 645.469 260.017 646.566 258.524C647.664 256.932 648.561 255.34 649.459 253.648C650.357 252.056 651.155 250.364 651.853 248.672C652.152 247.777 652.551 246.682 652.95 245.488C653.449 244.194 654.048 242.901 654.746 241.507C655.544 240.114 656.342 238.82 657.24 237.427C658.237 236.034 659.334 234.641 660.631 233.447C661.728 233.447 662.726 233.546 663.823 233.745C664.92 233.944 665.918 234.243 667.015 234.641C668.012 234.939 668.91 235.238 669.708 235.735C670.307 236.034 670.905 236.432 671.404 237.029C670.007 240.313 668.511 243.597 666.915 246.881C665.219 250.165 663.723 253.35 662.327 256.534C660.93 259.519 659.733 262.704 658.736 265.789C657.738 268.675 657.339 271.76 657.24 274.845C657.24 276.238 657.339 277.631 657.539 279.024C657.838 280.119 658.137 281.114 658.437 282.01C658.736 282.806 659.035 283.403 659.234 283.9C659.534 284.298 659.633 284.796 659.733 285.294C659.733 285.393 659.633 285.493 659.534 285.592L659.434 285.692H659.334C658.636 285.692 657.938 285.592 657.339 285.393C656.342 285.095 655.444 284.796 654.546 284.398C653.549 284 652.551 283.602 651.454 283.005C650.357 282.706 649.359 282.209 648.462 281.512Z" fill="#00FFF9"/>
<path d="M712.502 238.92C712.403 240.412 712.103 242.005 711.704 243.497C711.305 244.891 710.906 246.383 710.208 247.677C709.709 248.772 709.011 249.767 708.313 250.762C707.615 251.558 707.016 252.056 706.418 252.056C705.62 251.956 705.121 251.459 704.922 250.364C704.922 250.065 705.021 249.667 705.121 249.369C705.321 248.871 705.62 248.274 705.819 247.677C706.019 247.08 706.218 246.483 706.418 245.886C706.617 245.388 706.717 244.891 706.717 244.294C706.717 243.398 706.518 242.403 705.919 241.706C705.72 241.308 705.42 241.109 705.121 240.91C704.822 240.711 704.423 240.612 704.024 240.612C701.031 240.612 698.737 242.502 697.141 246.284C695.545 250.065 694.747 255.638 694.747 263.002C694.747 263.798 694.747 264.196 694.847 264.395C696.443 264.296 697.839 264.296 699.036 264.296C700.333 264.196 701.53 264.196 702.727 264.196C702.827 264.495 702.827 264.793 702.827 265.092C702.827 265.789 702.627 266.286 702.328 266.585C700.632 266.983 699.236 267.281 698.139 267.58C697.341 267.779 696.642 267.978 695.844 268.276C695.346 268.476 694.947 268.774 694.847 269.073C694.747 269.371 694.747 269.769 694.747 270.068V271.859C694.847 272.655 694.847 273.352 694.847 274.148C694.847 280.517 693.151 285.592 689.66 289.473C686.268 293.354 681.58 295.543 675.496 296.14C674.398 296.041 673.201 295.742 672.204 295.245C671.007 294.648 669.91 294.051 668.912 293.255C667.915 292.458 667.017 291.463 666.319 290.369C665.62 289.473 665.022 288.378 664.723 287.284C664.723 284.497 665.321 281.711 666.518 279.124C667.715 276.536 669.311 274.148 671.406 272.158C673.501 270.068 675.994 268.476 678.787 267.281C681.68 265.988 684.872 265.192 688.064 264.993C688.064 263.102 687.864 261.31 687.465 259.42C687.066 257.628 686.667 255.837 686.268 254.245C685.869 252.454 685.47 250.861 685.171 249.269C684.772 247.677 684.573 245.985 684.573 244.393C684.573 242.303 684.972 240.313 685.77 238.422C686.568 236.432 687.665 234.541 689.061 232.849C690.358 231.158 691.954 229.665 693.75 228.471C695.445 227.277 697.341 226.48 699.435 225.983C700.233 226.182 701.331 226.879 702.727 227.973C705.72 230.163 708.313 232.849 710.507 235.835C711.605 236.83 712.203 238.024 712.502 238.92ZM675.196 290.667C677.092 289.871 678.787 288.776 680.283 287.383C681.879 285.99 683.376 284.298 684.573 282.507C685.77 280.716 686.667 278.725 687.366 276.735C688.064 274.844 688.463 272.755 688.463 270.764C686.967 270.963 685.271 271.759 683.475 272.954C681.58 274.148 679.885 275.541 678.388 277.133C676.892 278.626 675.595 280.318 674.398 282.109C673.301 283.801 672.802 285.393 672.802 286.687C673.002 288.179 673.7 289.573 675.196 290.667Z" fill="#00FFF9"/>
<path d="M752.901 237.129C752.602 241.806 751.804 245.886 750.407 249.269C749.111 252.553 747.116 255.539 744.522 258.126C742.028 260.614 739.036 262.903 735.345 264.893C731.255 267.182 727.066 269.073 722.677 270.765C722.677 271.262 722.677 271.76 722.577 272.257V273.75C722.577 274.745 722.677 275.84 722.777 276.835C722.877 277.83 723.176 278.825 723.575 279.82C723.874 280.716 724.473 281.413 725.171 282.109C725.969 282.706 726.867 282.905 727.764 282.905C729.859 282.905 731.854 282.408 733.749 281.512C735.744 280.616 737.54 279.522 739.235 278.228C741.031 276.934 742.627 275.442 744.223 273.949C745.819 272.357 747.215 270.964 748.412 269.67C749.111 270.267 749.709 270.964 750.308 271.561C746.916 276.138 743.225 279.92 739.136 282.905C735.146 285.891 731.355 287.781 727.764 288.578C722.577 287.98 718.488 286.09 715.595 282.905C712.702 279.621 711.306 275.74 711.306 271.163C711.306 267.978 711.705 264.794 712.503 261.709C713.4 258.524 714.597 255.34 716.094 252.454C717.69 249.468 719.485 246.583 721.48 243.995C723.475 241.507 725.67 239.218 728.163 237.129C730.358 235.238 732.851 233.745 735.445 232.452C737.839 231.357 740.432 230.76 743.026 230.76C746.717 231.058 749.909 233.248 752.901 237.129ZM745.121 240.811C743.126 241.109 740.931 241.905 738.836 243.299C736.542 244.791 734.447 246.583 732.652 248.772C730.657 251.26 728.861 253.847 727.465 256.733C725.869 259.818 724.572 263.102 723.774 266.485C729.759 263.5 734.747 259.718 738.737 255.34C742.727 250.862 744.821 246.085 745.121 240.811Z" fill="#00FFF9"/>
<path d="M150.813 207.872C151.013 209.165 151.212 209.961 151.212 210.559C151.412 211.156 151.412 211.852 151.412 212.449C151.412 214.838 150.813 217.226 149.716 219.316C148.718 221.406 147.222 222.898 145.427 223.694C143.93 221.704 142.135 220.012 140.04 218.619C137.846 217.126 135.452 215.932 132.958 215.037C130.464 214.042 127.771 213.345 125.078 212.947C122.484 212.549 119.791 212.25 117.098 212.25C114.604 212.25 112.21 212.449 109.816 212.947C107.721 213.245 105.726 213.843 103.831 214.639C102.335 215.236 100.939 216.032 99.7415 217.226C98.8438 218.122 98.3451 219.415 98.3451 220.809C98.5446 222.401 99.542 224.092 101.338 225.784C103.333 227.575 105.527 229.267 107.821 230.66C110.415 232.253 113.208 233.745 116.3 235.338C119.492 236.93 122.584 238.323 125.577 239.716C129.367 241.507 132.559 243.1 135.352 244.692C138.045 246.185 140.339 247.777 142.135 249.668C143.831 251.359 145.227 253.449 146.125 255.738C147.023 258.027 147.422 260.813 147.422 263.998C147.422 267.58 146.823 271.163 145.526 274.646C144.329 277.83 142.434 280.716 139.94 283.104C137.546 285.592 134.554 287.483 131.262 288.777C127.871 290.17 124.08 290.867 119.891 290.867C115.801 290.867 111.312 290.269 106.524 288.976C101.836 287.782 97.3476 285.99 93.0583 283.801C88.9686 281.711 85.4774 279.223 82.6844 276.437C79.9912 273.551 78.5947 270.566 78.5947 267.381C78.5947 265.888 78.9937 263.998 79.7917 261.709C80.6895 259.42 82.1857 257.032 84.4799 254.544C84.6794 256.733 85.8764 259.321 88.0709 262.405C90.2654 265.391 93.5571 268.177 97.9461 270.765C101.836 273.054 106.026 274.845 110.415 275.939C114.405 276.935 118.494 277.432 122.584 277.532C126.674 277.532 130.065 277.034 132.659 275.939C135.252 274.944 137.247 273.651 138.743 272.257C140.24 270.765 141.237 269.272 141.836 267.879C142.434 266.386 142.733 265.192 142.833 264.296C142.733 262.804 142.035 261.41 140.738 260.117C139.442 258.723 137.746 257.43 135.551 256.136C133.157 254.643 130.564 253.35 128.07 252.156C125.178 250.862 122.185 249.469 119.093 248.175C114.405 246.085 110.415 244.194 107.023 242.403C104.131 240.811 101.338 239.02 98.744 236.83C96.6493 234.94 95.0533 232.949 93.9561 230.859C92.9586 228.77 92.5596 226.481 92.5596 223.794C92.5596 219.714 93.8563 215.733 96.3501 212.051C98.8438 208.369 102.435 205.583 107.223 203.692C109.617 202.597 112.21 201.901 114.704 201.503C117.297 201.105 119.991 200.806 122.684 200.806C127.472 200.806 132.36 201.503 136.948 202.796C141.536 204.19 146.225 205.881 150.813 207.872Z" fill="#00FFF9"/>
<path d="M219.342 248.473C218.145 248.573 216.749 249.269 215.053 250.762C213.058 252.454 211.163 254.345 209.467 256.235C207.572 258.425 205.477 260.913 203.382 263.599C201.288 266.286 199.293 269.073 197.298 271.76C195.402 274.446 193.607 276.934 191.911 279.223C190.215 281.611 188.819 283.502 187.622 284.895C185.926 284.298 184.43 283.204 183.233 281.91C182.036 280.517 181.238 278.925 180.839 277.233C181.238 274.845 181.737 272.456 182.435 270.167C183.133 267.58 184.031 264.993 185.029 262.405C186.126 259.718 187.423 257.031 189.019 254.146C190.814 250.961 192.709 247.876 194.904 244.891C193.806 244.99 192.31 245.786 190.415 247.279C188.221 249.07 186.126 250.961 184.231 253.15C182.036 255.539 179.742 258.226 177.348 261.211C174.954 264.196 172.759 267.082 170.665 269.968C167.971 273.849 165.677 277.133 163.782 280.019C161.986 282.905 160.69 284.597 159.892 285.094C157.997 283.701 156.6 282.209 155.902 280.517C155.104 278.825 154.605 276.934 154.206 275.143C154.306 272.954 154.605 270.665 155.004 268.476C155.503 265.689 156.201 263.002 157.099 260.315C158.894 254.842 160.989 249.468 163.582 244.294C166.276 239.019 168.969 234.143 171.463 229.665C173.458 230.063 175.253 230.76 177.049 231.755C178.744 232.75 180.54 234.143 182.335 235.934C181.438 238.522 180.34 240.91 178.944 243.199C177.348 245.687 175.752 248.374 174.056 251.16C172.36 253.947 170.764 256.832 169.368 259.818C167.971 262.604 167.074 265.689 166.575 268.774C168.67 265.789 171.064 262.405 173.857 258.624C176.749 254.842 179.642 251.16 182.635 247.777C185.328 244.692 188.42 241.806 191.612 239.119C194.604 236.731 197.198 235.536 199.592 235.536C200.589 235.536 201.487 235.735 202.485 235.934C203.482 236.233 204.48 236.631 205.377 237.029C206.175 237.427 206.874 237.825 207.572 238.323C208.17 238.721 208.47 239.019 208.569 239.218C208.17 240.711 207.273 242.701 205.876 245.289C204.579 247.777 203.083 250.464 201.587 253.25C199.991 256.036 198.594 258.823 197.298 261.41C196.001 263.997 195.203 266.087 195.003 267.58C198.594 262.604 201.986 258.226 205.178 254.245C207.971 250.663 210.963 247.18 214.155 243.896C216.948 241.01 219.542 238.82 221.936 237.228C224.33 235.636 226.624 234.939 228.818 234.939C230.315 234.939 231.711 235.337 232.908 236.133C234.205 236.83 235.202 238.024 235.701 239.417C235.003 241.607 233.906 244.294 232.409 247.379C230.913 250.464 229.417 253.747 227.821 257.23C226.225 260.614 224.828 263.997 223.631 267.281C222.434 270.565 221.836 273.551 221.836 276.238C221.836 277.83 222.035 278.825 222.534 279.323C222.933 279.721 223.631 280.019 224.429 280.019C225.227 280.019 226.125 279.92 226.823 279.621C227.621 279.223 228.22 279.024 228.619 279.024C228.818 279.124 229.018 279.323 229.118 279.522C229.217 279.721 229.317 279.92 229.417 280.119C229.517 280.517 229.517 280.915 229.517 281.313C228.12 282.408 226.624 283.403 224.928 284.199C223.332 284.995 221.537 285.393 219.741 285.393C217.946 285.393 216.45 285.094 215.352 284.497C214.255 283.9 213.258 283.104 212.559 282.109C211.761 281.014 211.263 279.82 210.963 278.527C210.664 277.133 210.465 275.641 210.564 274.247C210.564 271.76 210.864 269.272 211.562 266.883C212.16 264.495 212.958 262.107 213.856 259.818C214.854 257.529 215.851 255.439 216.849 253.548C217.746 251.757 218.644 249.966 219.342 248.473Z" fill="#00FFF9"/>
<path d="M253.057 286.19C248.867 285.792 245.476 283.901 242.982 280.617C240.488 277.333 239.191 273.253 239.191 268.277C239.191 265.192 239.69 262.107 240.488 259.122C241.386 255.937 242.683 252.852 244.279 249.966C245.875 246.981 247.87 244.095 250.064 241.508C252.159 238.92 254.553 236.632 257.246 234.641C261.336 231.656 265.126 230.163 268.617 230.163C271.011 231.457 273.306 234.044 275.6 238.025H276.597C276.897 237.925 277.296 237.925 277.595 237.925C281.485 237.925 283.48 241.408 283.48 248.275C283.48 252.753 282.682 257.33 281.186 261.51C279.69 265.59 277.595 269.372 274.902 272.755C272.208 276.139 268.917 279.124 265.226 281.413C261.535 283.702 257.346 285.294 253.057 286.19ZM258.742 251.459C257.445 253.25 256.249 255.042 255.151 257.032C254.054 259.022 253.057 261.013 252.259 263.102C251.461 264.993 250.862 266.983 250.363 268.974C249.964 270.566 249.765 272.258 249.665 273.949C249.665 275.641 249.964 277.432 250.563 279.025C251.161 280.617 251.86 281.612 252.558 281.811C255.85 281.114 258.942 279.721 261.635 277.731C264.428 275.641 266.922 273.054 268.817 270.068C270.912 266.884 272.508 263.5 273.605 259.818C274.802 255.838 275.4 251.758 275.4 247.578C275.4 246.085 275.301 244.593 275.101 243C274.902 242.005 274.503 241.01 274.004 240.115C270.812 241.01 267.819 242.602 265.226 244.792C262.832 246.682 260.637 248.971 258.742 251.459Z" fill="#00FFF9"/>
<path d="M382.931 236.631C382.632 241.208 381.834 245.09 380.537 248.473C379.24 251.657 377.245 254.643 374.751 257.131C372.357 259.519 369.365 261.808 365.774 263.798C361.784 265.988 357.595 267.878 353.405 269.57C353.405 270.068 353.405 270.565 353.305 270.963V272.356C353.305 273.352 353.405 274.347 353.505 275.342C353.605 276.337 353.904 277.332 354.303 278.228C354.602 279.024 355.201 279.82 355.899 280.417C356.597 280.915 357.495 281.213 358.492 281.213C360.487 281.213 362.482 280.716 364.378 279.92C366.273 279.024 368.068 277.929 369.764 276.735C371.46 275.441 373.155 274.048 374.652 272.555C376.248 270.963 377.544 269.57 378.741 268.376C379.44 268.973 380.038 269.57 380.637 270.267C377.345 274.645 373.654 278.327 369.664 281.313C365.774 284.199 361.984 285.99 358.492 286.886C353.405 286.288 349.415 284.497 346.522 281.313C343.73 278.128 342.333 274.347 342.333 269.968C342.333 266.883 342.732 263.798 343.53 260.813C344.428 257.728 345.625 254.643 347.121 251.757C348.617 248.871 350.413 246.085 352.408 243.497C354.403 241.009 356.497 238.82 358.891 236.73C361.086 234.939 363.48 233.446 366.073 232.153C368.368 231.058 370.961 230.56 373.455 230.461C376.746 230.759 379.938 232.849 382.931 236.631ZM375.25 240.313C373.255 240.611 371.16 241.408 369.066 242.701C366.772 244.194 364.677 245.985 362.981 247.975C360.986 250.364 359.29 252.951 357.894 255.738C356.298 258.723 355.101 261.907 354.203 265.191C360.088 262.206 364.976 258.623 368.966 254.344C372.856 250.065 374.951 245.388 375.25 240.313Z" fill="#00FFF9"/>
<path fill-rule="evenodd" clip-rule="evenodd" d="M291.06 260.912C289.764 265.59 289.065 269.272 289.065 271.958C289.065 274.546 289.265 276.636 289.764 278.327C290.163 280.019 290.761 281.114 291.459 281.611C291.958 282.009 292.357 282.407 292.656 282.905C293.055 283.502 293.654 284.199 294.252 285.094C294.751 286.089 296.148 286.687 298.442 286.886C298.242 286.089 298.043 285.194 298.143 284.298C298.143 282.407 298.342 280.616 298.542 278.725C298.841 276.735 299.24 274.745 299.739 272.755C300.337 270.665 301.035 268.674 301.734 266.784C302.432 264.992 303.23 263.301 304.128 261.708C306.222 258.026 308.516 254.643 310.811 251.458C312.905 248.573 315.2 245.786 317.693 243.199C319.988 240.81 322.082 239.019 324.077 237.626C326.072 236.332 327.768 235.636 329.264 235.536C330.062 235.536 330.461 235.835 330.461 236.432C330.461 240.213 328.267 244.493 323.878 249.369C323.678 251.658 323.778 253.548 324.177 255.141C324.576 256.633 325.274 258.026 326.172 259.121C326.272 259.022 326.372 259.022 326.471 258.922C328.566 257.429 330.362 255.738 331.858 253.747C333.454 251.757 334.751 249.468 335.748 247.08C336.646 244.791 337.144 242.403 337.144 239.915C337.144 236.034 335.549 232.849 332.257 230.561C330.062 230.66 327.668 231.357 325.175 232.65C322.781 233.944 320.187 235.735 317.693 238.024C314.9 240.611 312.307 243.497 309.913 246.483C307.22 249.966 304.726 253.648 302.532 257.529C304.427 251.956 306.522 246.483 309.115 241.209C311.708 235.735 314.601 230.461 317.793 225.386C320.686 220.609 323.978 216.031 327.569 211.653C331.06 207.473 334.451 203.99 337.743 201.403C337.743 200.408 337.344 199.214 336.646 198.019C335.948 196.726 335.15 195.531 334.052 194.437C333.055 193.243 331.858 192.248 330.661 191.451C329.464 190.655 328.367 190.158 327.369 190.158C325.474 191.451 323.279 194.039 320.586 197.82C317.993 201.602 315.299 205.98 312.407 211.155C309.614 216.33 306.821 221.903 304.028 227.874C301.235 233.844 298.741 239.616 296.547 245.189C294.352 251.06 292.457 256.235 291.06 260.912ZM321.085 264.395C319.788 261.012 319.389 257.33 319.888 253.747C318.491 255.041 317.195 256.335 315.898 257.429C314.701 258.424 313.404 259.42 312.008 260.315C312.806 264.893 313.703 269.272 314.801 273.451C315.698 277.133 316.796 280.716 317.993 284.298C319.389 288.08 320.985 290.966 322.681 292.956C324.476 294.946 326.372 295.941 328.367 295.941C329.564 295.941 330.761 295.742 331.958 295.344C333.155 295.046 334.352 294.648 335.349 294.051C336.347 293.553 337.244 292.956 338.042 292.16C338.741 291.563 339.239 290.767 339.738 289.971C337.144 288.478 334.85 286.687 332.756 284.597C330.761 282.407 328.965 280.119 327.369 277.631C325.873 275.143 324.476 272.556 323.279 269.869C322.282 267.978 321.683 266.187 321.085 264.395Z" fill="#00FFF9"/>
<path d="M116.002 188.466C104.132 188.466 94.6555 187.869 87.3738 186.675C80.4911 185.481 77.0996 183.789 77.0996 181.599C77.0996 181.301 77.4986 180.704 78.1969 180.007C78.8951 179.41 79.6931 178.813 80.4911 178.415C86.9748 178.614 93.0595 178.714 98.8449 178.813H121.189C140.64 178.813 158.794 178.714 175.652 178.515C192.809 178.315 208.27 178.116 222.035 177.818C229.816 177.619 236.997 177.519 243.481 177.42L257.546 177.121H258.444C267.92 176.922 275.301 176.823 280.488 176.823C287.77 176.823 294.054 177.619 299.44 179.211C305.126 180.803 309.415 183.092 312.009 185.978C302.433 185.779 294.652 185.68 288.468 185.58C282.383 185.48 276.997 185.481 272.408 185.481C266.024 185.481 259.74 185.48 253.656 185.58C248.768 185.58 243.98 185.68 239.292 185.779C234.903 185.879 230.614 185.978 226.524 186.078C212.359 186.376 198.993 186.675 186.425 186.973C173.856 187.272 161.787 187.67 150.315 187.968C138.944 188.267 127.473 188.466 116.002 188.466Z" fill="#00FFF9"/>
<path d="M127.772 329.478C112.311 329.478 99.9423 328.881 90.4661 327.687C81.4887 326.493 77 324.801 77 322.612C77 322.313 77.4987 321.716 78.4962 321.019C79.394 320.323 80.3915 319.825 81.4887 319.427C89.9674 319.626 97.9473 319.726 105.329 319.825H134.456C159.792 319.825 183.432 319.726 205.377 319.527C212.659 319.427 219.641 319.427 226.424 319.328L236.399 319.228C239.99 319.228 243.481 319.129 246.873 319.129H250.563C255.85 319.029 260.937 319.029 265.825 318.93C283.68 318.631 299.141 318.432 312.109 318.233C325.076 318.034 334.951 317.935 341.934 317.935C351.41 317.935 359.589 318.731 366.572 320.323C374.053 321.915 379.539 324.204 383.03 327.09C370.562 326.891 360.387 326.791 352.407 326.692C344.427 326.592 337.445 326.592 331.56 326.592C310.213 326.592 290.264 326.791 271.91 327.09C265.626 327.189 259.541 327.289 253.556 327.388H252.159H251.062H249.267L238.693 327.587L228.818 327.786L219.741 327.985C203.282 328.284 187.622 328.682 172.759 328.981C157.597 329.379 142.635 329.478 127.772 329.478Z" fill="#00FFF9"/>
<path d="M713.998 188.466C725.869 188.466 735.345 187.869 742.626 186.675C749.509 185.481 752.901 183.789 752.901 181.599C752.901 181.301 752.502 180.704 751.803 180.007C751.105 179.41 750.307 178.813 749.509 178.415C743.025 178.614 736.941 178.714 731.155 178.813H708.811C689.36 178.813 671.206 178.714 654.348 178.515C637.192 178.315 621.73 178.116 607.965 177.818L585.721 177.42L577.442 177.221L572.355 177.121C562.38 176.922 554.799 176.823 549.412 176.823C542.131 176.823 535.846 177.619 530.46 179.211C524.774 180.803 520.485 183.092 517.892 185.978C527.468 185.779 535.248 185.68 541.432 185.58C547.517 185.48 552.904 185.481 557.492 185.481C565.971 185.481 574.25 185.48 582.13 185.58C584.923 185.58 587.616 185.68 590.409 185.68C594.798 185.779 599.187 185.879 603.377 185.978C617.541 186.277 630.907 186.575 643.476 186.874C656.044 187.172 668.114 187.57 679.585 187.869C691.056 188.267 702.527 188.466 713.998 188.466Z" fill="#00FFF9"/>
<path d="M702.227 329.478C717.688 329.478 730.057 328.881 739.533 327.687C748.511 326.493 752.999 324.801 752.999 322.612C752.999 322.313 752.5 321.716 751.503 321.019C750.605 320.323 749.608 319.825 748.511 319.427C740.032 319.626 732.052 319.726 724.67 319.825H695.444C670.108 319.825 646.467 319.726 624.522 319.527C617.739 319.427 611.256 319.427 604.872 319.328C600.682 319.328 596.593 319.228 592.702 319.228C582.628 319.129 573.052 319.029 564.074 318.83C546.12 318.532 530.758 318.333 517.791 318.133C504.823 317.934 494.948 317.835 487.966 317.835C478.49 317.835 470.31 318.631 463.328 320.223C455.847 321.816 450.36 324.104 446.869 326.99C459.338 326.791 469.512 326.692 477.492 326.592C485.472 326.493 492.454 326.493 498.34 326.493C519.686 326.493 539.636 326.692 557.99 326.99C568.862 327.189 579.436 327.289 589.61 327.488C593.899 327.587 598.189 327.687 602.378 327.786C604.972 327.886 607.665 327.886 610.258 327.985C626.717 328.284 642.377 328.682 657.24 328.981C672.302 329.379 687.265 329.478 702.227 329.478Z" fill="#00FFF9"/>
<path d="M222.534 299.923C223.033 303.505 223.631 306.988 224.33 310.571H234.404C233.606 306.391 233.008 302.211 232.409 298.032L222.534 299.923Z" fill="#00FFF9"/>
<path d="M225.426 226.78L238.393 224.391C240.787 215.932 243.68 207.573 247.171 199.413H233.605C230.214 208.27 227.521 217.425 225.426 226.78Z" fill="#00FFF9"/>
<path d="M607.267 310.57C607.965 307.286 609.262 300.918 609.661 298.629C609.96 296.837 610.159 294.449 610.459 291.762L598.289 297.136C597.691 300.619 596.194 307.286 595.396 310.57H607.267Z" fill="#00FFF9"/>
<path d="M586.519 195.233C589.611 202.398 592.504 210.558 594.498 217.225C594.698 217.823 594.798 218.42 594.997 219.017L605.072 224.291C604.074 220.41 602.877 216.529 601.68 212.548C599.785 206.677 597.591 200.806 594.997 195.133H586.519V195.233Z" fill="#00FFF9"/>
<path d="M565.471 149.357C548.014 129.952 531.057 117.612 512.105 108.955C506.12 105.77 506.22 105.969 513.302 110.646C536.743 126.37 556.992 146.472 572.752 169.857L581.031 169.957C577.041 164.384 570.059 154.433 565.471 149.357Z" fill="#00FFF9"/>
<path fill-rule="evenodd" clip-rule="evenodd" d="M247.87 310.571H244.777C243.88 305.794 243.082 301.316 242.583 297.037L247.87 310.571Z" fill="#00FFF9"/>
<path fill-rule="evenodd" clip-rule="evenodd" d="M600.283 334.852C591.006 359.93 576.443 382.619 557.391 401.427C538.439 420.335 516.793 434.466 491.656 444.119C481.183 448.099 479.287 448.696 469.412 451.184C452.954 455.165 440.186 456.757 423.129 456.757C407.767 456.757 398.291 455.563 381.932 451.781C353.105 444.915 328.068 432.276 304.427 412.473C288.567 399.238 275.201 383.017 264.927 365.005C260.637 357.442 256.847 349.481 253.655 341.42C252.757 339.032 251.959 337.24 251.161 334.852H256.149C257.645 338.335 259.041 341.221 260.737 344.604C264.228 351.67 268.218 358.437 272.607 365.005C288.368 388.49 309.115 407.497 334.751 421.728C354.501 432.774 373.952 439.143 398.391 442.924C405.274 444.019 409.463 444.218 420.834 444.218C438.191 444.218 445.173 443.422 463.427 438.944C494.948 431.381 525.372 414.065 549.311 390.082C562.877 376.747 573.949 361.124 582.328 344.007C583.725 341.121 585.321 337.638 586.518 334.752L600.283 334.852Z" fill="#00FFF9"/>
<path fill-rule="evenodd" clip-rule="evenodd" d="M456.646 71.9349C453.154 71.1388 427.519 69.7456 422.132 70.0442C421.833 70.0442 420.935 70.1437 419.439 70.1437C417.444 70.2432 414.551 70.3427 411.559 70.5417C394.302 71.3379 382.931 73.1291 366.273 77.8063C340.438 85.0708 316.598 97.5101 294.154 115.522C286.075 121.891 270.713 137.415 263.93 145.974C260.439 150.352 257.147 154.93 253.955 159.607C251.96 162.592 249.267 167.17 247.472 170.355H262.634C264.728 167.17 267.821 162.692 270.115 159.607C287.471 136.52 310.014 117.712 335.849 104.675C350.313 97.4106 361.884 93.1315 378.742 88.9519C387.719 86.7626 395.3 85.5684 408.966 84.2747C412.457 83.9762 411.459 84.8718 407.17 86.066C404.976 86.6631 398.292 88.8524 392.307 91.0417C366.572 100.396 354.902 107.263 355.001 113.233C355.101 115.92 358.193 118.508 361.385 118.508C362.383 118.508 369.664 116.915 377.445 115.025C393.205 111.144 398.791 110.148 410.262 108.954C422.93 107.661 442.481 108.656 442.88 110.546C442.98 110.845 438.89 112.437 433.803 114.129C423.13 117.712 419.539 119.503 416.347 122.886L414.452 124.976H424.028C423.828 124.877 423.828 124.678 424.028 124.578C425.025 123.384 430.013 121.593 436.297 120.1C446.471 117.811 451.359 115.124 452.356 111.044C454.052 104.277 439.489 100.993 410.96 101.59C401.983 101.789 397.594 101.69 398.691 101.391C402.781 100.197 422.631 95.5198 428.716 94.5247C432.307 93.8281 440.187 92.9325 446.272 92.4349C452.257 91.9373 458.242 91.2407 459.638 90.9422C466.621 89.4495 469.713 86.7626 469.713 82.583C469.813 77.4082 465.324 73.9252 456.646 71.9349Z" fill="#00FFF9"/>
<path fill-rule="evenodd" clip-rule="evenodd" d="M413.154 468.997C408.266 469.097 397.094 468.201 390.411 467.206C388.017 466.808 385.125 466.41 384.027 466.31C372.656 464.718 352.806 458.847 339.938 453.274C297.645 435.063 264.628 404.711 243.581 364.905C239.591 357.243 236 349.381 232.907 341.32C232.209 339.43 231.611 337.539 230.713 334.752H240.688C241.486 337.041 242.084 338.733 242.982 341.022C242.982 341.121 243.082 341.221 243.082 341.32C246.074 349.381 249.665 357.342 253.655 364.905C261.236 379.136 270.712 391.973 283.38 405.706C316.198 441.233 356.497 461.335 406.77 467.504C416.047 468.798 416.845 468.898 413.154 468.997Z" fill="#00FFF9"/>
</g>
<defs>
<filter id="filter0_f_736_12968" x="26" y="19.0029" width="777.999" height="501.002" filterUnits="userSpaceOnUse" color-interpolation-filters="sRGB">
<feFlood flood-opacity="0" result="BackgroundImageFix"/>
<feBlend mode="normal" in="SourceGraphic" in2="BackgroundImageFix" result="shape"/>
<feGaussianBlur stdDeviation="25.5" result="effect1_foregroundBlur_736_12968"/>
</filter>
</defs>
</svg>
