<svg width="728" height="474" viewBox="0 0 728 474" fill="none" xmlns="http://www.w3.org/2000/svg">
<path fill-rule="evenodd" clip-rule="evenodd" d="M424.5 387.5C424.5 391.7 423.7 393.8 420.4 397.9C414.7 404.9 402.3 406.6 360.4 406.2C332.2 405.9 327.1 405.3 320.1 401.9C315.2 399.5 312.5 396.4 310.9 391.3C310.1 388.8 310 387.7 310.5 385.3C311.5 380.7 313 378.3 322.7 365.2C329.9 355.5 335.4 347.5 339.6 340.5C346.5 329 349.8 320.1 351.1 310.8C352 304.5 351.9 277.9 351 274.2C349.4 267.5 344.9 260 342.6 260C340.7 260 340.1 258.9 340.2 255.7C340.3 252.7 341 251.8 343.4 251.8C344.5 251.8 344.7 251.6 344.3 250.7C342.8 247.4 345.2 241.8 351.7 232.5C360.2 220.6 361.5 217.7 362.1 209.8C362.5 204.3 361.6 200.7 358.1 193.2C356.3 189.3 355.2 186 355.2 184.8C355.2 182.3 356.6 177.8 359.6 170.6C361.3 166.6 361.8 164.6 361.9 161.5C362 157.8 361.9 157.6 360.7 157.8C359.9 157.9 358.7 157.7 357.8 157.4C356.4 156.8 356.3 156.6 356.6 154C356.8 152.5 357 149 357.1 146.2L357.3 141.1L345.6 140.8C332.3 140.5 329 139.8 325.4 136.6C324.2 135.5 322.4 133.1 321.4 131.5C320.5 129.8 319.1 127.9 318.4 127.3C315.5 124.7 316.1 124.6 335 124.6H352.9V123C352.9 121.8 352.5 121.1 351.5 120.7C349.2 119.7 345.9 116.4 344.8 114.2C344.2 113 343.2 110.1 342.5 107.6C341.2 102.8 341.4 100.6 343.3 99.7999C343.8 99.5999 348.5 99.4999 353.6 99.4999H362.9C364.8 99.4999 371.5 99.4999 373.6 99.3999C373.7 99.3999 373.7 99.3999 373.8 99.3999C375 99.4999 377.5 99.5999 381.7 99.5999C393.4 99.5999 394.2 99.8999 393.7 104.3C393.3 107.6 391.1 113.4 389.1 116.2C388.3 117.3 386.5 119 384.9 120C382.8 121.4 382.1 122.2 382.1 123.3V124.8H399.6C409.1 124.8 417.3 125 417.8 125.3C418.3 125.7 418.2 126.1 417.3 126.9C416.7 127.5 415 129.8 413.7 132C411.2 136.2 408 138.9 403.9 140C402.8 140.4 396.5 140.8 390 141L378.2 141.3L378.6 149C379.1 157.6 379 157.6 375.4 157.7L373.3 157.8L373.4 161C373.5 164.3 374.2 166.5 378 175.9C381.2 183.7 381.2 186.1 377.2 193.9C373.8 200.6 372.9 204.7 373.3 210.5C373.9 217.8 375.8 221.8 383.6 232.4C389.9 240.8 392.4 247.4 390.9 250.8C390.5 251.6 390.7 251.9 391.8 251.9C393.7 251.9 395.3 253.5 395.3 255.8C395.3 258.4 394.8 259.5 393.5 259.5C391.2 259.5 386.8 266.4 385 272.7C383.4 278.1 383.1 301.5 384.4 310.5C385.6 318.6 388.5 327.8 392.1 334.5C393 336.2 394.3 338.3 395.7 340.7C400.6 348.6 407.8 359.1 414.2 367.6C423 379.1 424.6 382.1 424.5 387.5Z" fill="#FF00C4"/>
<path d="M488.1 252.5C488.1 249.3 488.6 245.2 489.7 240.2C490.8 235.2 492.2 229.8 493.9 224.1C488.9 224.5 483.9 225 478.9 225.6C473.9 226.2 469.6 226.5 465.9 226.6C462.8 233.8 460.1 241.2 457.8 248.7C455.9 255.1 454.3 261.7 453.2 268.3C450.3 267.6 448 266.4 446.1 264.7C444.1 262.8 442.3 260.7 440.9 258.3C441.5 257.1 442.2 255.5 442.9 253.6C443.7 251.7 444.7 249.4 445.7 246.8C446.8 244.1 448.1 240.9 449.4 237.3C450.8 233.7 452.5 229.4 454.3 224.6C451.8 223.5 450.2 222.1 449.3 220.2C449.7 219.9 450.5 219.6 451.8 219.3C453.2 218.9 454.8 218.5 456.8 218.2L458.3 214.6C459.9 210.5 461.2 207 462.1 204.2C463.1 201.5 464 198.8 464.7 196C465.5 193.3 466.1 190.3 466.7 187C467.4 183.7 468.2 179.6 469.1 174.6C472.3 175.2 475.3 176.7 477.7 178.8C480.4 181.1 482.7 183.8 484.5 186.8C483.6 188.1 482.7 189.5 482 190.9C481 192.7 479.9 194.9 478.7 197.5C477.6 200 476.3 202.9 475 206C473.6 209.1 472.2 212.4 470.6 215.9C475.3 215.3 480 214.7 484.7 214.2C489.5 213.7 493.8 213.3 497.5 213.1C498.9 209.1 500.3 205.3 501.7 201.6C503.2 197.8 504.7 194.3 506.1 191.2C507.5 188.1 508.9 185.3 510.2 183C511.6 180.6 512.8 178.9 513.8 177.8C514.8 178 515.8 178.3 516.7 178.7C518 179.2 519.3 179.7 520.5 180.4C521.7 181.1 522.9 181.8 524 182.7C525.1 183.5 525.8 184.2 526.1 184.9C524.6 186.4 523.2 188.1 522 189.9C520.5 192.2 519.2 194.5 517.9 197C516.6 199.7 515.3 202.5 514.1 205.7C512.8 208.8 511.6 212 510.5 215.4C511.2 216 511.8 216.8 512.2 217.7C512.6 218.6 512.8 219.5 512.8 220.5C512.8 221.9 512.5 223.2 511.9 224.5C511.2 224.3 510.5 224.3 509.9 224.3C509.2 224.2 508.5 224.1 507.8 224.1C506.5 228.2 505.3 232.3 504.3 236.3C503.2 240.3 502.3 244.2 501.6 247.8C500.9 251.4 500.4 254.8 499.9 257.8C499.6 260.3 499.4 262.9 499.3 265.4V267.2C499.4 267.7 499.4 268 499.5 268.3C497.8 268.2 496.6 267.9 495.9 267.4C495.2 267 494.6 266.5 494.2 265.8C493.8 265.3 493.5 264.7 493.2 264.1C492.9 263.5 492.3 263.1 491.7 262.8C491.2 262.6 490.7 262 490.2 261.2C489.7 260.3 489.3 259.3 489.1 258.4C488.8 257.4 488.6 256.3 488.4 255.2C488.2 254.3 488.1 253.4 488.1 252.5Z" fill="#00FFF9"/>
<path d="M530.6 263.1C526.3 262.6 522.9 260.7 520.3 257.4C517.7 254.1 516.5 249.8 516.5 244.6C516.5 241.4 517 238.2 517.9 235.1C518.8 231.8 520.1 228.6 521.7 225.6C523.4 222.5 525.3 219.5 527.6 216.8C529.8 214.2 532.2 211.8 535 209.7C539.1 206.6 543 205 546.6 205C549 206.3 551.4 209 553.7 213.1H554.7C555 213 555.4 213 555.7 213C559.7 213 561.7 216.6 561.7 223.7C561.7 232.9 558.6 241.8 552.9 249C550.2 252.5 546.8 255.5 543.1 257.9C539.2 260.5 535 262.2 530.6 263.1ZM536.3 227.2C533.6 230.9 531.4 234.9 529.7 239.2C528.9 241.2 528.3 243.2 527.8 245.2C527.4 246.9 527.1 248.6 527.1 250.3C527.1 252.1 527.4 253.9 528 255.5C528.6 257.2 529.3 258.1 530 258.4C533.4 257.7 536.5 256.2 539.3 254.2C542.2 252 544.7 249.4 546.6 246.3C548.8 243 550.4 239.5 551.5 235.7C552.7 231.6 553.3 227.3 553.3 223C553.3 221.4 553.2 219.9 553 218.3C552.8 217.3 552.4 216.2 551.9 215.3C548.6 216.3 545.6 217.9 543 220.1C540.6 222.4 538.3 224.7 536.3 227.2Z" fill="#00FFF9"/>
<path d="M597.9 256.6C596.5 255.4 595.5 253.8 595 252C594.6 250.5 594.4 248.9 594.3 247.3C594.3 245.9 594.5 244.5 594.9 243.2C594.6 243.2 593.9 243.8 592.9 245C591.8 246.2 590.7 247.7 589.4 249.3C588.2 251 587 252.6 585.8 254.2C584.6 255.8 583.7 257 583.1 257.7C582.3 258.6 581.3 259.5 580.3 260.2C579.5 260.8 578.8 261.1 578.3 261.2C577 261.1 575.7 260.8 574.5 260.4C571.8 259.6 569.5 258.1 567.7 256C566.9 254.9 566.3 253.7 566 252.4C566 250.3 566 248.5 566.1 247.2C566.3 245.7 566.5 244.2 566.9 242.8C567.7 239.5 568.7 236.2 569.8 233C571.2 229.4 572.7 225.8 574.4 222.3C576.1 218.9 578 215.5 580.2 212.4C582.4 209.3 584.7 206.9 587.1 205.1C587.9 205.1 588.7 205.2 589.5 205.3C590.4 205.4 591.3 205.6 592.2 205.9C593.1 206.2 594 206.6 594.9 207C595.8 207.4 596.5 207.9 597.2 208.6C596.5 209.4 594.8 211.9 592 216.2C589.3 220.5 586.2 226.8 582.8 234.9C582.4 235.7 582 237 581.4 238.5C580.9 240.1 580.3 241.8 579.8 243.5C579.3 245.2 578.8 247 578.4 248.6C578.1 249.9 578 251.2 577.9 252.6C577.9 253.1 578 253.5 578.1 254C578.3 254.2 578.5 254.5 578.7 254.7C579.8 254.2 581.3 253 583 250.9C584.7 248.8 587.1 245.7 590.2 241.4C591 240.3 591.8 239.1 592.8 237.8C593.9 236.4 594.9 235 596 233.5C597.1 231.9 598 230.3 598.9 228.6C599.8 227 600.6 225.3 601.3 223.6C601.6 222.7 602 221.6 602.4 220.4C602.9 219.1 603.5 217.8 604.2 216.4C605 215 605.8 213.7 606.7 212.3C607.7 210.9 608.8 209.5 610.1 208.3C611.2 208.3 612.2 208.4 613.3 208.6C614.4 208.8 615.4 209.1 616.5 209.5C617.5 209.8 618.4 210.1 619.2 210.6C619.8 210.9 620.4 211.3 620.9 211.9C619.5 215.2 618 218.5 616.4 221.8C614.7 225.1 613.2 228.3 611.8 231.5C610.4 234.5 609.2 237.7 608.2 240.8C607.2 243.7 606.8 246.8 606.7 249.9C606.7 251.3 606.8 252.7 607 254.1C607.3 255.2 607.6 256.2 607.9 257.1C608.2 257.9 608.5 258.5 608.7 259C609 259.4 609.1 259.9 609.2 260.4C609.2 260.5 609.1 260.6 609 260.7L608.9 260.8H608.8C608.1 260.8 607.4 260.7 606.8 260.5C605.8 260.2 604.9 259.9 604 259.5C603 259.1 602 258.7 600.9 258.1C599.8 257.8 598.8 257.3 597.9 256.6Z" fill="#00FFF9"/>
<path d="M662.1 213.8C662 215.3 661.7 216.9 661.3 218.4C660.9 219.8 660.5 221.3 659.8 222.6C659.3 223.7 658.6 224.7 657.9 225.7C657.2 226.5 656.6 227 656 227C655.2 226.9 654.7 226.4 654.5 225.3C654.5 225 654.6 224.6 654.7 224.3C654.9 223.8 655.2 223.2 655.4 222.6C655.6 222 655.8 221.4 656 220.8C656.2 220.3 656.3 219.8 656.3 219.2C656.3 218.3 656.1 217.3 655.5 216.6C655.3 216.2 655 216 654.7 215.8C654.4 215.6 654 215.5 653.6 215.5C650.6 215.5 648.3 217.4 646.7 221.2C645.1 225 644.3 230.6 644.3 238C644.3 238.8 644.3 239.2 644.4 239.4C646 239.3 647.4 239.3 648.6 239.3C649.9 239.2 651.1 239.2 652.3 239.2C652.4 239.5 652.4 239.8 652.4 240.1C652.4 240.8 652.2 241.3 651.9 241.6C650.2 242 648.8 242.3 647.7 242.6C646.9 242.8 646.2 243 645.4 243.3C644.9 243.5 644.5 243.8 644.4 244.1C644.3 244.4 644.3 244.8 644.3 245.1V246.9C644.4 247.7 644.4 248.4 644.4 249.2C644.4 255.6 642.7 260.7 639.2 264.6C635.8 268.5 631.1 270.7 625 271.3C623.9 271.2 622.7 270.9 621.7 270.4C620.5 269.8 619.4 269.2 618.4 268.4C617.4 267.6 616.5 266.6 615.8 265.5C615.1 264.6 614.5 263.5 614.2 262.4C614.2 259.6 614.8 256.8 616 254.2C617.2 251.6 618.8 249.2 620.9 247.2C623 245.1 625.5 243.5 628.3 242.3C631.2 241 634.4 240.2 637.6 240C637.6 238.1 637.4 236.3 637 234.4C636.6 232.6 636.2 230.8 635.8 229.2C635.4 227.4 635 225.8 634.7 224.2C634.3 222.6 634.1 220.9 634.1 219.3C634.1 217.2 634.5 215.2 635.3 213.3C636.1 211.3 637.2 209.4 638.6 207.7C639.9 206 641.5 204.5 643.3 203.3C645 202.1 646.9 201.3 649 200.8C649.8 201 650.9 201.7 652.3 202.8C655.3 205 657.9 207.7 660.1 210.7C661.2 211.7 661.8 212.9 662.1 213.8ZM624.7 265.8C626.6 265 628.3 263.9 629.8 262.5C631.4 261.1 632.9 259.4 634.1 257.6C635.3 255.8 636.2 253.8 636.9 251.8C637.6 249.9 638 247.8 638 245.8C636.5 246 634.8 246.8 633 248C631.1 249.2 629.4 250.6 627.9 252.2C626.4 253.7 625.1 255.4 623.9 257.2C622.8 258.9 622.3 260.5 622.3 261.8C622.5 263.3 623.2 264.7 624.7 265.8Z" fill="#00FFF9"/>
<path d="M702.6 212C702.3 216.7 701.5 220.8 700.1 224.2C698.8 227.5 696.8 230.5 694.2 233.1C691.7 235.6 688.7 237.9 685 239.9C680.9 242.2 676.7 244.1 672.3 245.8C672.3 246.3 672.3 246.8 672.2 247.3V248.8C672.2 249.8 672.3 250.9 672.4 251.9C672.5 252.9 672.8 253.9 673.2 254.9C673.5 255.8 674.1 256.5 674.8 257.2C675.6 257.8 676.5 258 677.4 258C679.5 258 681.5 257.5 683.4 256.6C685.4 255.7 687.2 254.6 688.9 253.3C690.7 252 692.3 250.5 693.9 249C695.5 247.4 696.9 246 698.1 244.7C698.8 245.3 699.4 246 700 246.6C696.6 251.2 692.9 255 688.8 258C684.8 261 681 262.9 677.4 263.7C672.2 263.1 668.1 261.2 665.2 258C662.3 254.7 660.9 250.8 660.9 246.2C660.9 243 661.3 239.8 662.1 236.7C663 233.5 664.2 230.3 665.7 227.4C667.3 224.4 669.1 221.5 671.1 218.9C673.1 216.4 675.3 214.1 677.8 212C680 210.1 682.5 208.6 685.1 207.3C687.5 206.2 690.1 205.6 692.7 205.6C696.4 205.9 699.6 208.1 702.6 212ZM694.8 215.7C692.8 216 690.6 216.8 688.5 218.2C686.2 219.7 684.1 221.5 682.3 223.7C680.3 226.2 678.5 228.8 677.1 231.7C675.5 234.8 674.2 238.1 673.4 241.5C679.4 238.5 684.4 234.7 688.4 230.3C692.4 225.8 694.5 221 694.8 215.7Z" fill="#00FFF9"/>
<path d="M98.9996 182.6C99.1996 183.9 99.3996 184.7 99.3996 185.3C99.5996 185.9 99.5996 186.6 99.5996 187.2C99.5996 189.6 98.9996 192 97.8996 194.1C96.8996 196.2 95.3996 197.7 93.5996 198.5C92.0996 196.5 90.2996 194.8 88.1996 193.4C85.9996 191.9 83.5996 190.7 81.0996 189.8C78.5996 188.8 75.8996 188.1 73.1996 187.7C70.5996 187.3 67.8996 187 65.1996 187C62.6996 187 60.2996 187.2 57.8996 187.7C55.7996 188 53.7996 188.6 51.8996 189.4C50.3996 190 48.9996 190.8 47.7996 192C46.8996 192.9 46.3996 194.2 46.3996 195.6C46.5996 197.2 47.5996 198.9 49.3996 200.6C51.3996 202.4 53.5996 204.1 55.8996 205.5C58.4996 207.1 61.2996 208.6 64.3996 210.2C67.5996 211.8 70.6996 213.2 73.6996 214.6C77.4996 216.4 80.6996 218 83.4996 219.6C86.1996 221.1 88.4996 222.7 90.2996 224.6C91.9996 226.3 93.3996 228.4 94.2996 230.7C95.1996 233 95.5996 235.8 95.5996 239C95.5996 242.6 94.9996 246.2 93.6996 249.7C92.4996 252.9 90.5996 255.8 88.0996 258.2C85.6996 260.7 82.6996 262.6 79.3996 263.9C75.9996 265.3 72.1996 266 67.9996 266C63.8996 266 59.3996 265.4 54.5996 264.1C49.8996 262.9 45.3996 261.1 41.0996 258.9C36.9996 256.8 33.4996 254.3 30.6996 251.5C27.9996 248.6 26.5996 245.6 26.5996 242.4C26.5996 240.9 26.9996 239 27.7996 236.7C28.6996 234.4 30.1996 232 32.4996 229.5C32.6996 231.7 33.8996 234.3 36.0996 237.4C38.2996 240.4 41.5996 243.2 45.9996 245.8C49.8996 248.1 54.0996 249.9 58.4996 251C62.4996 252 66.5996 252.5 70.6996 252.6C74.7996 252.6 78.1996 252.1 80.7996 251C83.3996 250 85.3996 248.7 86.8996 247.3C88.3996 245.8 89.3996 244.3 89.9996 242.9C90.5996 241.4 90.8996 240.2 90.9996 239.3C90.8996 237.8 90.1996 236.4 88.8996 235.1C87.5996 233.7 85.8996 232.4 83.6996 231.1C81.2996 229.6 78.6996 228.3 76.1996 227.1C73.2996 225.8 70.2996 224.4 67.1996 223.1C62.4996 221 58.4996 219.1 55.0996 217.3C52.1996 215.7 49.3996 213.9 46.7996 211.7C44.6996 209.8 43.0996 207.8 41.9996 205.7C40.9996 203.6 40.5996 201.3 40.5996 198.6C40.5996 194.5 41.8996 190.5 44.3996 186.8C46.8996 183.1 50.4996 180.3 55.2996 178.4C57.6996 177.3 60.2996 176.6 62.7996 176.2C65.3996 175.8 68.0996 175.5 70.7996 175.5C75.5996 175.5 80.4996 176.2 85.0996 177.5C89.6996 178.9 94.3996 180.6 98.9996 182.6Z" fill="#00FFF9"/>
<path d="M167.7 223.4C166.5 223.5 165.1 224.2 163.4 225.7C161.4 227.4 159.5 229.3 157.8 231.2C155.9 233.4 153.8 235.9 151.7 238.6C149.6 241.3 147.6 244.1 145.6 246.8C143.7 249.5 141.9 252 140.2 254.3C138.5 256.7 137.1 258.6 135.9 260C134.2 259.4 132.7 258.3 131.5 257C130.3 255.6 129.5 254 129.1 252.3C129.5 249.9 130 247.5 130.7 245.2C131.4 242.6 132.3 240 133.3 237.4C134.4 234.7 135.7 232 137.3 229.1C139.1 225.9 141 222.8 143.2 219.8C142.1 219.9 140.6 220.7 138.7 222.2C136.5 224 134.4 225.9 132.5 228.1C130.3 230.5 128 233.2 125.6 236.2C123.2 239.2 121 242.1 118.9 245C116.2 248.9 113.9 252.2 112 255.1C110.2 258 108.9 259.7 108.1 260.2C106.2 258.8 104.8 257.3 104.1 255.6C103.3 253.9 102.8 252 102.4 250.2C102.5 248 102.8 245.7 103.2 243.5C103.7 240.7 104.4 238 105.3 235.3C107.1 229.8 109.2 224.4 111.8 219.2C114.5 213.9 117.2 209 119.7 204.5C121.7 204.9 123.5 205.6 125.3 206.6C127 207.6 128.8 209 130.6 210.8C129.7 213.4 128.6 215.8 127.2 218.1C125.6 220.6 124 223.3 122.3 226.1C120.6 228.9 119 231.8 117.6 234.8C116.2 237.6 115.3 240.7 114.8 243.8C116.9 240.8 119.3 237.4 122.1 233.6C125 229.8 127.9 226.1 130.9 222.7C133.6 219.6 136.7 216.7 139.9 214C142.9 211.6 145.5 210.4 147.9 210.4C148.9 210.4 149.8 210.6 150.8 210.8C151.8 211.1 152.8 211.5 153.7 211.9C154.5 212.3 155.2 212.7 155.9 213.2C156.5 213.6 156.8 213.9 156.9 214.1C156.5 215.6 155.6 217.6 154.2 220.2C152.9 222.7 151.4 225.4 149.9 228.2C148.3 231 146.9 233.8 145.6 236.4C144.3 239 143.5 241.1 143.3 242.6C146.9 237.6 150.3 233.2 153.5 229.2C156.3 225.6 159.3 222.1 162.5 218.8C165.3 215.9 167.9 213.7 170.3 212.1C172.7 210.5 175 209.8 177.2 209.8C178.7 209.8 180.1 210.2 181.3 211C182.6 211.7 183.6 212.9 184.1 214.3C183.4 216.5 182.3 219.2 180.8 222.3C179.3 225.4 177.8 228.7 176.2 232.2C174.6 235.6 173.2 239 172 242.3C170.8 245.6 170.2 248.6 170.2 251.3C170.2 252.9 170.4 253.9 170.9 254.4C171.3 254.8 172 255.1 172.8 255.1C173.6 255.1 174.5 255 175.2 254.7C176 254.3 176.6 254.1 177 254.1C177.2 254.2 177.4 254.4 177.5 254.6C177.6 254.8 177.7 255 177.8 255.2C177.9 255.6 177.9 256 177.9 256.4C176.5 257.5 175 258.5 173.3 259.3C171.7 260.1 169.9 260.5 168.1 260.5C166.3 260.5 164.8 260.2 163.7 259.6C162.6 259 161.6 258.2 160.9 257.2C160.1 256.1 159.6 254.9 159.3 253.6C159 252.2 158.8 250.7 158.9 249.3C158.9 246.8 159.2 244.3 159.9 241.9C160.5 239.5 161.3 237.1 162.2 234.8C163.2 232.5 164.2 230.4 165.2 228.5C166.1 226.7 167 224.9 167.7 223.4Z" fill="#00FFF9"/>
<path d="M201.5 261.3C197.3 260.9 193.9 259 191.4 255.7C188.9 252.4 187.6 248.3 187.6 243.3C187.6 240.2 188.1 237.1 188.9 234.1C189.8 230.9 191.1 227.8 192.7 224.9C194.3 221.9 196.3 219 198.5 216.4C200.6 213.8 203 211.5 205.7 209.5C209.8 206.5 213.6 205 217.1 205C219.5 206.3 221.8 208.9 224.1 212.9H225.1C225.4 212.8 225.8 212.8 226.1 212.8C230 212.8 232 216.3 232 223.2C232 227.7 231.2 232.3 229.7 236.5C228.2 240.6 226.1 244.4 223.4 247.8C220.7 251.2 217.4 254.2 213.7 256.5C210 258.8 205.8 260.4 201.5 261.3ZM207.2 226.4C205.9 228.2 204.7 230 203.6 232C202.5 234 201.5 236 200.7 238.1C199.9 240 199.3 242 198.8 244C198.4 245.6 198.2 247.3 198.1 249C198.1 250.7 198.4 252.5 199 254.1C199.6 255.7 200.3 256.7 201 256.9C204.3 256.2 207.4 254.8 210.1 252.8C212.9 250.7 215.4 248.1 217.3 245.1C219.4 241.9 221 238.5 222.1 234.8C223.3 230.8 223.9 226.7 223.9 222.5C223.9 221 223.8 219.5 223.6 217.9C223.4 216.9 223 215.9 222.5 215C219.3 215.9 216.3 217.5 213.7 219.7C211.3 221.6 209.1 223.9 207.2 226.4Z" fill="#00FFF9"/>
<path d="M331.7 211.5C331.4 216.1 330.6 220 329.3 223.4C328 226.6 326 229.6 323.5 232.1C321.1 234.5 318.1 236.8 314.5 238.8C310.5 241 306.3 242.9 302.1 244.6C302.1 245.1 302.1 245.6 302 246V247.4C302 248.4 302.1 249.4 302.2 250.4C302.3 251.4 302.6 252.4 303 253.3C303.3 254.1 303.9 254.9 304.6 255.5C305.3 256 306.2 256.3 307.2 256.3C309.2 256.3 311.2 255.8 313.1 255C315 254.1 316.8 253 318.5 251.8C320.2 250.5 321.9 249.1 323.4 247.6C325 246 326.3 244.6 327.5 243.4C328.2 244 328.8 244.6 329.4 245.3C326.1 249.7 322.4 253.4 318.4 256.4C314.5 259.3 310.7 261.1 307.2 262C302.1 261.4 298.1 259.6 295.2 256.4C292.4 253.2 291 249.4 291 245C291 241.9 291.4 238.8 292.2 235.8C293.1 232.7 294.3 229.6 295.8 226.7C297.3 223.8 299.1 221 301.1 218.4C303.1 215.9 305.2 213.7 307.6 211.6C309.8 209.8 312.2 208.3 314.8 207C317.1 205.9 319.7 205.4 322.2 205.3C325.5 205.6 328.7 207.7 331.7 211.5ZM324 215.2C322 215.5 319.9 216.3 317.8 217.6C315.5 219.1 313.4 220.9 311.7 222.9C309.7 225.3 308 227.9 306.6 230.7C305 233.7 303.8 236.9 302.9 240.2C308.8 237.2 313.7 233.6 317.7 229.3C321.6 225 323.7 220.3 324 215.2Z" fill="#00FFF9"/>
<path fill-rule="evenodd" clip-rule="evenodd" d="M239.6 235.9C238.3 240.6 237.6 244.3 237.6 247C237.6 249.6 237.8 251.7 238.3 253.4C238.7 255.1 239.3 256.2 240 256.7C240.5 257.1 240.9 257.5 241.2 258C241.6 258.6 242.2 259.3 242.8 260.2C243.3 261.2 244.7 261.8 247 262C246.8 261.2 246.6 260.3 246.7 259.4C246.7 257.5 246.9 255.7 247.1 253.8C247.4 251.8 247.8 249.8 248.3 247.8C248.9 245.7 249.6 243.7 250.3 241.8C251 240 251.8 238.3 252.7 236.7C254.8 233 257.1 229.6 259.4 226.4C261.5 223.5 263.8 220.7 266.3 218.1C268.6 215.7 270.7 213.9 272.7 212.5C274.7 211.2 276.4 210.5 277.9 210.4C278.7 210.4 279.1 210.7 279.1 211.3C279.1 215.1 276.9 219.4 272.5 224.3C272.3 226.6 272.4 228.5 272.8 230.1C273.2 231.6 273.9 233 274.8 234.1C274.9 234 275 234 275.1 233.9C277.2 232.4 279 230.7 280.5 228.7C282.1 226.7 283.4 224.4 284.4 222C285.3 219.7 285.8 217.3 285.8 214.8C285.8 210.9 284.2 207.7 280.9 205.4C278.7 205.5 276.3 206.2 273.8 207.5C271.4 208.8 268.8 210.6 266.3 212.9C263.5 215.5 260.9 218.4 258.5 221.4C255.8 224.9 253.3 228.6 251.1 232.5C253 226.9 255.1 221.4 257.7 216.1C260.3 210.6 263.2 205.3 266.4 200.2C269.3 195.4 272.6 190.8 276.2 186.4C279.7 182.2 283.1 178.7 286.4 176.1C286.4 175.1 286 173.9 285.3 172.7C284.6 171.4 283.8 170.2 282.7 169.1C281.7 167.9 280.5 166.9 279.3 166.1C278.1 165.3 277 164.8 276 164.8C274.1 166.1 271.9 168.7 269.2 172.5C266.6 176.3 263.9 180.7 261 185.9C258.2 191.1 255.4 196.7 252.6 202.7C249.8 208.7 247.3 214.5 245.1 220.1C242.9 226 241 231.2 239.6 235.9ZM269.7 239.4C268.4 236 268 232.3 268.5 228.7C267.1 230 265.8 231.3 264.5 232.4C263.3 233.4 262 234.4 260.6 235.3C261.4 239.9 262.3 244.3 263.4 248.5C264.3 252.2 265.4 255.8 266.6 259.4C268 263.2 269.6 266.1 271.3 268.1C273.1 270.1 275 271.1 277 271.1C278.2 271.1 279.4 270.9 280.6 270.5C281.8 270.2 283 269.8 284 269.2C285 268.7 285.9 268.1 286.7 267.3C287.4 266.7 287.9 265.9 288.4 265.1C285.8 263.6 283.5 261.8 281.4 259.7C279.4 257.5 277.6 255.2 276 252.7C274.5 250.2 273.1 247.6 271.9 244.9C270.9 243 270.3 241.2 269.7 239.4Z" fill="#00FFF9"/>
<path d="M64.0996 163.1C52.1996 163.1 42.6996 162.5 35.3996 161.3C28.4996 160.1 25.0996 158.4 25.0996 156.2C25.0996 155.9 25.4996 155.3 26.1996 154.6C26.8996 154 27.6996 153.4 28.4996 153C34.9996 153.2 41.0996 153.3 46.8996 153.4H69.2996C88.7996 153.4 107 153.3 123.9 153.1C141.1 152.9 156.6 152.7 170.4 152.4C178.2 152.2 185.4 152.1 191.9 152L206 151.7H206.9C216.4 151.5 223.8 151.4 229 151.4C236.3 151.4 242.6 152.2 248 153.8C253.7 155.4 258 157.7 260.6 160.6C251 160.4 243.2 160.3 237 160.2C230.9 160.1 225.5 160.1 220.9 160.1C214.5 160.1 208.2 160.1 202.1 160.2C197.2 160.2 192.4 160.3 187.7 160.4C183.3 160.5 179 160.6 174.9 160.7C160.7 161 147.3 161.3 134.7 161.6C122.1 161.9 110 162.3 98.4996 162.6C87.0996 162.9 75.5996 163.1 64.0996 163.1Z" fill="#00FFF9"/>
<path d="M75.9 304.8C60.4 304.8 48 304.2 38.5 303C29.5 301.8 25 300.1 25 297.9C25 297.6 25.5 297 26.5 296.3C27.4 295.6 28.4 295.1 29.5 294.7C38 294.9 46 295 53.4 295.1H82.6C108 295.1 131.7 295 153.7 294.8C161 294.7 168 294.7 174.8 294.6L184.8 294.5C188.4 294.5 191.9 294.4 195.3 294.4H199C204.3 294.3 209.4 294.3 214.3 294.2C232.2 293.9 247.7 293.7 260.7 293.5C273.7 293.3 283.6 293.2 290.6 293.2C300.1 293.2 308.3 294 315.3 295.6C322.8 297.2 328.3 299.5 331.8 302.4C319.3 302.2 309.1 302.1 301.1 302C293.1 301.9 286.1 301.9 280.2 301.9C258.8 301.9 238.8 302.1 220.4 302.4C214.1 302.5 208 302.6 202 302.7H200.6H199.5H197.7L187.1 302.9L177.2 303.1L168.1 303.3C151.6 303.6 135.9 304 121 304.3C105.8 304.7 90.8 304.8 75.9 304.8Z" fill="#00FFF9"/>
<path d="M663.6 163.1C675.5 163.1 685 162.5 692.3 161.3C699.2 160.1 702.6 158.4 702.6 156.2C702.6 155.9 702.2 155.3 701.5 154.6C700.8 154 700 153.4 699.2 153C692.7 153.2 686.6 153.3 680.8 153.4H658.4C638.9 153.4 620.7 153.3 603.8 153.1C586.6 152.9 571.1 152.7 557.3 152.4L535 152L526.7 151.8L521.6 151.7C511.6 151.5 504 151.4 498.6 151.4C491.3 151.4 485 152.2 479.6 153.8C473.9 155.4 469.6 157.7 467 160.6C476.6 160.4 484.4 160.3 490.6 160.2C496.7 160.1 502.1 160.1 506.7 160.1C515.2 160.1 523.5 160.1 531.4 160.2C534.2 160.2 536.9 160.3 539.7 160.3C544.1 160.4 548.5 160.5 552.7 160.6C566.9 160.9 580.3 161.2 592.9 161.5C605.5 161.8 617.6 162.2 629.1 162.5C640.6 162.9 652.1 163.1 663.6 163.1Z" fill="#00FFF9"/>
<path d="M651.8 304.8C667.3 304.8 679.7 304.2 689.2 303C698.2 301.8 702.7 300.1 702.7 297.9C702.7 297.6 702.2 297 701.2 296.3C700.3 295.6 699.3 295.1 698.2 294.7C689.7 294.9 681.7 295 674.3 295.1H645C619.6 295.1 595.9 295 573.9 294.8C567.1 294.7 560.6 294.7 554.2 294.6C550 294.6 545.9 294.5 542 294.5C531.9 294.4 522.3 294.3 513.3 294.1C495.3 293.8 479.9 293.6 466.9 293.4C453.9 293.2 444 293.1 437 293.1C427.5 293.1 419.3 293.9 412.3 295.5C404.8 297.1 399.3 299.4 395.8 302.3C408.3 302.1 418.5 302 426.5 301.9C434.5 301.8 441.5 301.8 447.4 301.8C468.8 301.8 488.8 302 507.2 302.3C518.1 302.5 528.7 302.6 538.9 302.8C543.2 302.9 547.5 303 551.7 303.1C554.3 303.2 557 303.2 559.6 303.3C576.1 303.6 591.8 304 606.7 304.3C621.8 304.7 636.8 304.8 651.8 304.8Z" fill="#00FFF9"/>
<path d="M170.9 275.1C171.4 278.7 172 282.2 172.7 285.8H182.8C182 281.6 181.4 277.4 180.8 273.2L170.9 275.1Z" fill="#00FFF9"/>
<path d="M173.8 201.6L186.8 199.2C189.2 190.7 192.1 182.3 195.6 174.1H182C178.6 183 175.9 192.2 173.8 201.6Z" fill="#00FFF9"/>
<path d="M556.6 285.8C557.3 282.5 558.6 276.1 559 273.8C559.3 272 559.5 269.6 559.8 266.9L547.6 272.3C547 275.8 545.5 282.5 544.7 285.8H556.6Z" fill="#00FFF9"/>
<path d="M535.8 169.9C538.9 177.1 541.8 185.3 543.8 192C544 192.6 544.1 193.2 544.3 193.8L554.4 199.1C553.4 195.2 552.2 191.3 551 187.3C549.1 181.4 546.9 175.5 544.3 169.8H535.8V169.9Z" fill="#00FFF9"/>
<path d="M514.7 123.8C497.2 104.3 480.2 91.9 461.2 83.2C455.2 80 455.3 80.2 462.4 84.9C485.9 100.7 506.2 120.9 522 144.4L530.3 144.5C526.3 138.9 519.3 128.9 514.7 123.8Z" fill="#00FFF9"/>
<path fill-rule="evenodd" clip-rule="evenodd" d="M196.3 285.8H193.2C192.3 281 191.5 276.5 191 272.2L196.3 285.8Z" fill="#00FFF9"/>
<path fill-rule="evenodd" clip-rule="evenodd" d="M549.6 310.2C540.3 335.4 525.7 358.2 506.6 377.1C487.6 396.1 465.9 410.3 440.7 420C430.2 424 428.3 424.6 418.4 427.1C401.9 431.1 389.1 432.7 372 432.7C356.6 432.7 347.1 431.5 330.7 427.7C301.8 420.8 276.7 408.1 253 388.2C237.1 374.9 223.7 358.6 213.4 340.5C209.1 332.9 205.3 324.9 202.1 316.8C201.2 314.4 200.4 312.6 199.6 310.2H204.6C206.1 313.7 207.5 316.6 209.2 320C212.7 327.1 216.7 333.9 221.1 340.5C236.9 364.1 257.7 383.2 283.4 397.5C303.2 408.6 322.7 415 347.2 418.8C354.1 419.9 358.3 420.1 369.7 420.1C387.1 420.1 394.1 419.3 412.4 414.8C444 407.2 474.5 389.8 498.5 365.7C512.1 352.3 523.2 336.6 531.6 319.4C533 316.5 534.6 313 535.8 310.1L549.6 310.2Z" fill="#00FFF9"/>
<path fill-rule="evenodd" clip-rule="evenodd" d="M405.6 46C402.1 45.2 376.4 43.8 371 44.1C370.7 44.1 369.8 44.2 368.3 44.2C366.3 44.3 363.4 44.4 360.4 44.6C343.1 45.4 331.7 47.2 315 51.9C289.1 59.2 265.2 71.7 242.7 89.8C234.6 96.2 219.2 111.8 212.4 120.4C208.9 124.8 205.6 129.4 202.4 134.1C200.4 137.1 197.7 141.7 195.9 144.9H211.1C213.2 141.7 216.3 137.2 218.6 134.1C236 110.9 258.6 92 284.5 78.9C299 71.6 310.6 67.3 327.5 63.1C336.5 60.9 344.1 59.7 357.8 58.4C361.3 58.1 360.3 59 356 60.2C353.8 60.8 347.1 63 341.1 65.2C315.3 74.6 303.6 81.5 303.7 87.5C303.8 90.2 306.9 92.8 310.1 92.8C311.1 92.8 318.4 91.2 326.2 89.3C342 85.4 347.6 84.4 359.1 83.2C371.8 81.9 391.4 82.9 391.8 84.8C391.9 85.1 387.8 86.7 382.7 88.4C372 92 368.4 93.8 365.2 97.2L363.3 99.3H372.9C372.7 99.2 372.7 99 372.9 98.9C373.9 97.7 378.9 95.9 385.2 94.4C395.4 92.1 400.3 89.4 401.3 85.3C403 78.5 388.4 75.2 359.8 75.8C350.8 76 346.4 75.9 347.5 75.6C351.6 74.4 371.5 69.7 377.6 68.7C381.2 68 389.1 67.1 395.2 66.6C401.2 66.1 407.2 65.4 408.6 65.1C415.6 63.6 418.7 60.9 418.7 56.7C418.8 51.5 414.3 48 405.6 46Z" fill="#00FFF9"/>
<path fill-rule="evenodd" clip-rule="evenodd" d="M362 445C357.1 445.1 345.9 444.2 339.2 443.2C336.8 442.8 333.9 442.4 332.8 442.3C321.4 440.7 301.5 434.8 288.6 429.2C246.2 410.9 213.1 380.4 192 340.4C188 332.7 184.4 324.8 181.3 316.7C180.6 314.8 180 312.9 179.1 310.1H189.1C189.9 312.4 190.5 314.1 191.4 316.4C191.4 316.5 191.5 316.6 191.5 316.7C194.5 324.8 198.1 332.8 202.1 340.4C209.7 354.7 219.2 367.6 231.9 381.4C264.8 417.1 305.2 437.3 355.6 443.5C364.9 444.8 365.7 444.9 362 445Z" fill="#00FFF9"/>
</svg>
