<svg width="50" height="29" viewBox="0 0 50 29" fill="none" xmlns="http://www.w3.org/2000/svg">
<path fill-rule="evenodd" clip-rule="evenodd" d="M28.8938 24.8384C28.8938 25.1392 28.8345 25.2916 28.5982 25.5881C28.1876 26.0921 27.2897 26.2149 24.2618 26.1852C22.2205 26.1641 21.8562 26.1216 21.348 25.8711C20.997 25.6975 20.7974 25.473 20.6829 25.1046C20.6236 24.9225 20.6193 24.8419 20.6576 24.6684C20.7294 24.3381 20.8355 24.1645 21.5384 23.2158C22.0579 22.5167 22.4559 21.9379 22.7578 21.4299C23.2542 20.5958 23.4928 19.9519 23.5876 19.2815C23.6512 18.8241 23.643 16.9057 23.5791 16.6347C23.4605 16.1517 23.1344 15.6055 22.9695 15.6055C22.8298 15.6055 22.7873 15.5251 22.7958 15.2964C22.8001 15.0804 22.8551 15.0126 23.0288 15.0126C23.1051 15.0126 23.1211 14.9956 23.0923 14.9363C22.9865 14.6993 23.1559 14.2927 23.6301 13.6235C24.2442 12.7639 24.3373 12.5563 24.3798 11.9804C24.4051 11.5823 24.3458 11.324 24.0918 10.7818C23.9604 10.5023 23.8801 10.2645 23.8801 10.1762C23.8801 9.99423 23.9817 9.67222 24.1976 9.15143C24.3205 8.85916 24.3543 8.71525 24.3628 8.49503C24.3671 8.22826 24.3628 8.21552 24.2738 8.22401C24.2183 8.23233 24.1298 8.21552 24.0663 8.19427C23.9647 8.15196 23.9604 8.13885 23.9817 7.94874C23.9942 7.8379 24.0112 7.58443 24.0155 7.38121L24.0282 7.01283L23.1812 6.99159C22.2157 6.97034 21.9827 6.91954 21.7202 6.68657C21.6312 6.60621 21.5 6.4368 21.4322 6.31819C21.3644 6.19534 21.2671 6.05955 21.2162 6.01743C21.0086 5.82696 21.0468 5.82271 22.4189 5.82271H23.7107V5.70411C23.7107 5.61524 23.6809 5.56869 23.6089 5.53469C23.4437 5.46283 23.2024 5.22562 23.1219 5.06471C23.0796 4.97991 23.0033 4.76911 22.9525 4.59028C22.8551 4.24315 22.8721 4.08205 23.0118 4.027C23.05 4.01444 23.3844 4.00169 23.7572 4.00169H24.4308C24.5705 4.00169 25.0562 3.99836 25.2056 3.99171C25.2097 3.99171 25.215 3.99171 25.2213 3.99023C25.3117 3.99947 25.4861 4.00187 25.794 4.00187C26.6411 4.00187 26.7004 4.02312 26.6623 4.34494C26.6328 4.58197 26.4718 5.00134 26.332 5.20456C26.2766 5.2851 26.1415 5.40778 26.0314 5.47983C25.8788 5.58143 25.8282 5.64074 25.8282 5.71704V5.8229H27.0904C27.7806 5.8229 28.3734 5.83989 28.4032 5.8567C28.4412 5.88645 28.4327 5.91213 28.3651 5.97531C28.3184 6.0178 28.1988 6.18703 28.1065 6.3448C27.9286 6.64963 27.6958 6.84028 27.395 6.92489C27.3145 6.95039 26.8615 6.9842 26.387 6.99694L25.5317 7.02225L25.557 7.58129C25.591 8.19963 25.5867 8.20388 25.324 8.21237L25.1716 8.21662L25.1759 8.44959C25.1844 8.68661 25.2352 8.84752 25.5104 9.52516C25.7434 10.0884 25.7392 10.2664 25.455 10.8254C25.2095 11.3081 25.1409 11.6089 25.1712 12.0238C25.2136 12.5531 25.3492 12.8411 25.9167 13.6076C26.3699 14.2173 26.5561 14.6919 26.446 14.9378C26.4207 14.9971 26.4332 15.0141 26.5095 15.0141C26.6492 15.0141 26.7595 15.1327 26.7595 15.2936C26.7595 15.4843 26.7212 15.5646 26.6324 15.5646C26.4672 15.5646 26.1454 16.0634 26.0183 16.5175C25.9039 16.9072 25.8784 18.6011 25.976 19.2532C26.0606 19.842 26.2716 20.5027 26.535 20.9854C26.6034 21.1118 26.6924 21.2625 26.7963 21.4314C27.1487 22.0017 27.6712 22.7632 28.1358 23.3782C28.783 24.2371 28.8972 24.453 28.8938 24.8384Z" fill="#FF00C4"/>
<path d="M33.4934 15.0796C33.4934 14.8488 33.5316 14.5521 33.608 14.1895C33.6843 13.8269 33.7852 13.4395 33.9106 13.0273C33.5507 13.0546 33.1881 13.0903 32.8228 13.1344C32.4629 13.1784 32.1493 13.203 31.8821 13.2083C31.6569 13.7303 31.4604 14.2641 31.2933 14.8075C31.1556 15.2736 31.0437 15.7468 30.958 16.2252C30.7507 16.1759 30.5789 16.0881 30.4427 15.9616C30.2953 15.827 30.1684 15.6713 30.0664 15.4997C30.11 15.4118 30.1593 15.2991 30.2142 15.1618C30.2743 15.0244 30.3425 14.8595 30.4187 14.6673C30.5005 14.4693 30.5905 14.2415 30.6886 13.9837C30.7922 13.7201 30.9092 13.4152 31.0396 13.0689C30.8599 12.9918 30.74 12.8846 30.6799 12.7474C30.7072 12.7254 30.7671 12.7034 30.8599 12.6814C30.9584 12.6539 31.0783 12.6263 31.2196 12.5989L31.326 12.3352C31.4405 12.0384 31.5329 11.7883 31.6031 11.585C31.6769 11.3906 31.74 11.1923 31.7921 10.991C31.8468 10.7931 31.8961 10.576 31.9399 10.3398C31.9892 10.1036 32.0464 9.80412 32.1117 9.44141C32.3423 9.48611 32.5569 9.59139 32.7334 9.74642C32.9279 9.91006 33.0938 10.1051 33.2241 10.3234C33.1573 10.418 33.0972 10.5172 33.0441 10.6201C32.9732 10.752 32.8941 10.9114 32.8069 11.0982C32.7251 11.2796 32.6352 11.4857 32.537 11.7163C32.4385 11.9417 32.3322 12.1808 32.2181 12.4335C32.556 12.3896 32.8967 12.3484 33.2403 12.3099C33.5894 12.2715 33.8973 12.244 34.164 12.2275C34.2626 11.9418 34.3634 11.6642 34.4666 11.3949C34.5756 11.1202 34.682 10.8702 34.7857 10.6448C34.8894 10.4194 34.9875 10.2216 35.08 10.0514C35.1785 9.88085 35.2658 9.75442 35.3418 9.67215C35.4155 9.68344 35.4872 9.70567 35.5544 9.73811C35.65 9.77242 35.7429 9.81373 35.8325 9.8617C35.9218 9.90897 36.0067 9.96418 36.0861 10.0267C36.1625 10.0815 36.2143 10.1336 36.2415 10.1832C36.1301 10.2927 36.0313 10.4144 35.947 10.546C35.8394 10.7107 35.7411 10.8813 35.6525 11.057C35.5599 11.2494 35.4672 11.4582 35.3745 11.6835C35.2817 11.9087 35.1945 12.1422 35.1127 12.384C35.1654 12.4302 35.2073 12.4873 35.2356 12.5514C35.2639 12.6155 35.2778 12.6849 35.2764 12.755C35.2774 12.8549 35.255 12.9538 35.211 13.0435C35.1625 13.0326 35.1129 13.0271 35.0632 13.0271C35.0139 13.0216 34.9621 13.016 34.9078 13.0105C34.8151 13.3074 34.7305 13.6014 34.6542 13.8924C34.5778 14.1835 34.5124 14.461 34.458 14.7251C34.4087 14.9889 34.3678 15.2307 34.3353 15.4504C34.3106 15.6335 34.2969 15.818 34.2943 16.0028V16.1347C34.2998 16.1676 34.3052 16.1951 34.3107 16.2171C34.1909 16.2115 34.1036 16.1896 34.0489 16.1511C33.9995 16.1229 33.9575 16.0833 33.9263 16.0357C33.8985 15.9964 33.8738 15.9551 33.8524 15.9121C33.8277 15.8711 33.7903 15.8393 33.746 15.8214C33.7079 15.8049 33.6725 15.7664 33.6397 15.7059C33.605 15.6404 33.5775 15.5714 33.5579 15.4999C33.5363 15.4242 33.5199 15.3471 33.5087 15.2692C33.4994 15.2064 33.4942 15.1431 33.4934 15.0796Z" fill="#00FFF9"/>
<path d="M36.5634 15.8468C36.2524 15.8138 36.0043 15.6764 35.8191 15.4347C35.6338 15.1929 35.5411 14.885 35.541 14.5109C35.5427 14.2797 35.5757 14.0498 35.6391 13.8274C35.7053 13.5896 35.7986 13.3603 35.9172 13.1438C36.0371 12.9186 36.1795 12.706 36.3421 12.5092C36.4984 12.3184 36.6769 12.1468 36.8738 11.9981C37.1735 11.7728 37.4543 11.6602 37.7162 11.6602C37.8906 11.7536 38.0623 11.9487 38.2314 12.2454H38.3053C38.3295 12.2396 38.3544 12.2368 38.3792 12.2371C38.6682 12.2371 38.8126 12.4954 38.8126 13.0119C38.8119 13.6763 38.5871 14.3211 38.1747 14.842C37.9769 15.0962 37.736 15.3138 37.4631 15.4849C37.1863 15.6566 36.8819 15.7791 36.5634 15.8468ZM36.9804 13.2502C36.7862 13.5175 36.6269 13.8083 36.5061 14.1158C36.4482 14.2575 36.4017 14.4036 36.367 14.5527C36.3364 14.674 36.32 14.7985 36.3181 14.9237C36.3176 15.0529 36.3397 15.1812 36.3835 15.3028C36.427 15.4238 36.4763 15.4925 36.5312 15.5089C36.7736 15.4552 37.0021 15.3513 37.2019 15.2039C37.4115 15.0475 37.5915 14.8548 37.7334 14.6351C37.8904 14.3999 38.0089 14.1411 38.0844 13.8686C38.1732 13.5718 38.2173 13.2634 38.2152 12.9535C38.2175 12.8404 38.2093 12.7273 38.1908 12.6157C38.1769 12.5398 38.1491 12.4672 38.109 12.4014C37.8719 12.471 37.6518 12.5889 37.4624 12.7476C37.2852 12.8985 37.1237 13.0669 36.9804 13.2502Z" fill="#00FFF9"/>
<path d="M41.4323 15.3786C41.3299 15.2926 41.2558 15.1777 41.2197 15.0489C41.19 14.9386 41.1735 14.8251 41.1706 14.711C41.1684 14.6105 41.1823 14.5102 41.2116 14.4141C41.1897 14.4141 41.1404 14.4581 41.0638 14.546C40.9872 14.6339 40.9026 14.7386 40.8101 14.8601C40.7229 14.9809 40.6357 15.099 40.5485 15.2144C40.4613 15.3298 40.3959 15.415 40.3521 15.4701C40.2912 15.5382 40.2226 15.599 40.1476 15.6513C40.0878 15.6953 40.0385 15.7199 39.9998 15.7252C39.9054 15.7181 39.8122 15.6986 39.7227 15.6674C39.5304 15.6124 39.3593 15.5003 39.232 15.3459C39.1717 15.2684 39.1298 15.1782 39.1094 15.0821C39.1094 14.9284 39.1121 14.802 39.1175 14.703C39.13 14.5948 39.1492 14.4875 39.1748 14.3816C39.2333 14.1414 39.3044 13.9046 39.388 13.672C39.4861 13.408 39.5981 13.1494 39.7233 12.8971C39.8436 12.6477 39.9831 12.4079 40.1404 12.18C40.2986 11.9546 40.4648 11.7787 40.6392 11.6523C40.6968 11.6531 40.7542 11.6587 40.8109 11.669C40.8778 11.6747 40.9437 11.6885 41.0073 11.7102C41.0753 11.7309 41.141 11.7585 41.2035 11.7926C41.2661 11.8181 41.3221 11.8576 41.3671 11.908C41.3179 11.9628 41.1924 12.1469 40.9908 12.4602C40.7946 12.7733 40.5738 13.2239 40.3283 13.812C40.3012 13.8726 40.2685 13.9605 40.2302 14.0758C40.1919 14.1911 40.1537 14.312 40.1157 14.4385C40.0776 14.5648 40.0449 14.6885 40.0176 14.8094C39.9986 14.9045 39.9876 15.0011 39.9849 15.098C39.983 15.1317 39.9886 15.1655 40.0011 15.1968C40.0137 15.2142 40.0274 15.2307 40.0421 15.2464C40.1238 15.2133 40.2274 15.1226 40.3529 14.9742C40.4784 14.8258 40.6529 14.598 40.8763 14.2907C40.931 14.2138 40.9937 14.1259 41.0645 14.0269C41.1409 13.9283 41.2172 13.8236 41.2934 13.7128C41.3698 13.5974 41.4407 13.4792 41.5061 13.3583C41.5744 13.243 41.6319 13.1216 41.6779 12.9956C41.6997 12.9296 41.727 12.8527 41.7597 12.7649C41.7978 12.6714 41.8414 12.5752 41.8905 12.4763C41.9451 12.3778 42.0051 12.2789 42.0705 12.1796C42.1416 12.0749 42.2239 11.9781 42.3158 11.891C42.3928 11.8917 42.4695 11.9 42.5449 11.9158C42.6229 11.9312 42.6995 11.9532 42.7738 11.9817C42.8425 12.0005 42.9086 12.0282 42.9702 12.0641C43.0168 12.0858 43.0585 12.1166 43.0928 12.1548C42.9943 12.3966 42.8852 12.6357 42.7656 12.872C42.6461 13.1084 42.5343 13.3419 42.4303 13.5726C42.329 13.7922 42.2415 14.018 42.1686 14.2485C42.0997 14.4617 42.0639 14.6841 42.0623 14.9081C42.0612 15.0102 42.0694 15.1123 42.0867 15.2129C42.1088 15.2956 42.1306 15.367 42.1523 15.4272C42.1741 15.4823 42.1932 15.529 42.2096 15.5674C42.2286 15.5971 42.2398 15.6311 42.2423 15.6663C42.2423 15.6718 42.2367 15.6801 42.2258 15.691C42.2238 15.6934 42.2213 15.6954 42.2185 15.6968C42.2158 15.6983 42.2127 15.6991 42.2096 15.6993C42.1594 15.6975 42.1098 15.6892 42.0618 15.6746C41.992 15.6547 41.9236 15.6301 41.8573 15.6007C41.7863 15.5734 41.7127 15.5404 41.6365 15.5019C41.5662 15.4643 41.4981 15.4232 41.4323 15.3786Z" fill="#00FFF9"/>
<path d="M46.0721 12.2773C46.0654 12.3891 46.0462 12.4997 46.0149 12.6071C45.9893 12.712 45.9536 12.8141 45.9084 12.9121C45.8703 12.9908 45.8237 13.0652 45.7695 13.1338C45.7203 13.1942 45.6739 13.2243 45.6304 13.2243C45.5704 13.219 45.535 13.1778 45.5242 13.1007C45.526 13.0755 45.5315 13.0506 45.5404 13.0268C45.5569 12.9882 45.5731 12.947 45.5896 12.9031C45.6056 12.8599 45.6192 12.8159 45.6304 12.7712C45.6453 12.7345 45.6536 12.6955 45.655 12.6559C45.6579 12.588 45.6377 12.5212 45.5977 12.4663C45.5845 12.441 45.5645 12.4198 45.5399 12.4053C45.5153 12.3907 45.4872 12.3832 45.4586 12.3838C45.2406 12.3838 45.0743 12.5211 44.9598 12.7959C44.8452 13.0707 44.788 13.4746 44.788 14.0077C44.788 14.0631 44.7907 14.0956 44.7961 14.1067C44.9106 14.1011 45.0115 14.0984 45.0987 14.0984C45.1915 14.0928 45.2814 14.09 45.3686 14.09C45.3757 14.1113 45.3785 14.1337 45.3769 14.156C45.3769 14.2053 45.366 14.241 45.3442 14.2632C45.2189 14.2906 45.118 14.3153 45.0416 14.337C44.9857 14.3488 44.931 14.3654 44.8779 14.3866C44.8399 14.4031 44.8153 14.4223 44.804 14.4442C44.7976 14.4683 44.7948 14.4932 44.7957 14.5181V14.65C44.8018 14.7048 44.8046 14.7599 44.804 14.815C44.804 15.2765 44.6786 15.6474 44.4277 15.9277C44.1826 16.2085 43.8394 16.3711 43.3981 16.4154C43.3157 16.4082 43.2353 16.3858 43.1609 16.3495C43.0765 16.3094 42.9969 16.2598 42.9237 16.2017C42.8527 16.141 42.7896 16.0717 42.7356 15.9955C42.6838 15.9295 42.645 15.8543 42.6211 15.7738C42.6203 15.5687 42.665 15.3661 42.7521 15.1804C42.8363 14.9921 42.9554 14.8215 43.1031 14.6775C43.2574 14.5282 43.4376 14.4081 43.6348 14.3232C43.8467 14.2286 44.0738 14.1727 44.3054 14.1582C44.3056 14.0226 44.2919 13.8873 44.2646 13.7544C44.2372 13.6225 44.2073 13.4961 44.1746 13.3753C44.1473 13.2487 44.12 13.1277 44.0928 13.0124C44.0661 12.8962 44.0524 12.7774 44.0519 12.6581C44.0523 12.5079 44.0829 12.3593 44.1419 12.2212C44.2002 12.0754 44.2802 11.9393 44.3791 11.8173C44.4757 11.6925 44.5916 11.5839 44.7226 11.4959C44.8467 11.4109 44.9853 11.3494 45.1316 11.3145C45.1915 11.3308 45.2705 11.3801 45.3686 11.4622C45.5832 11.6236 45.7733 11.8152 45.933 12.0311C46.0094 12.1294 46.0557 12.2114 46.0721 12.2773ZM43.373 16.0361C43.5085 15.9783 43.6331 15.8974 43.741 15.7971C43.8603 15.6937 43.9649 15.5744 44.0519 15.4427C44.1384 15.3123 44.2072 15.1709 44.2565 15.0223C44.3093 14.8826 44.337 14.7347 44.3381 14.5853C44.2291 14.602 44.1092 14.6542 43.9782 14.742C43.8433 14.8279 43.7197 14.9304 43.6102 15.047C43.5007 15.1561 43.4047 15.2778 43.3241 15.4097C43.2476 15.536 43.2094 15.646 43.2095 15.7394C43.2095 15.8603 43.264 15.9592 43.373 16.0361Z" fill="#00FFF9"/>
<path d="M49.0056 12.1461C48.9838 12.4869 48.9238 12.781 48.8256 13.0283C48.7283 13.2688 48.5838 13.4874 48.4007 13.6712C48.2208 13.8524 48 14.0172 47.7382 14.1658C47.4432 14.3297 47.1371 14.4729 46.8221 14.5944C46.8219 14.6302 46.8192 14.666 46.814 14.7015V14.8087C46.8142 14.8832 46.8197 14.9576 46.8304 15.0313C46.8404 15.1049 46.8596 15.1769 46.8877 15.2456C46.9128 15.3085 46.9519 15.3648 47.002 15.4104C47.0563 15.4506 47.1228 15.471 47.1903 15.4682C47.3403 15.4676 47.4883 15.4337 47.6237 15.3692C47.7651 15.3034 47.8994 15.2233 48.0244 15.1301C48.1517 15.0342 48.272 14.9292 48.3843 14.8161C48.4988 14.7007 48.5997 14.596 48.6869 14.502C48.7359 14.546 48.7824 14.5928 48.826 14.6422C48.5807 14.9718 48.3108 15.2466 48.0163 15.4665C47.7273 15.6808 47.452 15.8182 47.1903 15.8785C46.8139 15.8346 46.5194 15.6972 46.3068 15.4665C46.0997 15.2301 45.9961 14.9468 45.9961 14.6167C45.9968 14.386 46.0271 14.1563 46.0861 13.9332C46.1504 13.6996 46.2381 13.4731 46.3478 13.2572C46.4606 13.0402 46.5919 12.8333 46.7404 12.639C46.8839 12.4563 47.0453 12.2883 47.2221 12.1375C47.384 12.0024 47.5626 11.8889 47.7536 11.7996C47.9254 11.7201 48.1122 11.6779 48.3015 11.6758C48.5528 11.7093 48.7875 11.8661 49.0056 12.1461ZM48.4414 12.4183C48.2936 12.4403 48.1409 12.5007 47.9834 12.5995C47.8144 12.708 47.6627 12.8414 47.5335 12.9952C47.3882 13.1738 47.2621 13.3672 47.1574 13.5722C47.0408 13.7975 46.9502 14.0354 46.8875 14.2812C47.3236 14.0614 47.6862 13.7921 47.9753 13.4733C48.2641 13.1493 48.4194 12.7976 48.4414 12.4183Z" fill="#00FFF9"/>
<path d="M5.34763 10.0246C5.36365 10.1156 5.37436 10.1798 5.37978 10.2173C5.39207 10.2617 5.39749 10.3077 5.39585 10.3538C5.39686 10.5274 5.35551 10.6986 5.2754 10.8526C5.20064 11.0024 5.09632 11.1094 4.96244 11.1737C4.85432 11.0281 4.72106 10.9029 4.56894 10.8042C4.41028 10.6955 4.23748 10.609 4.05535 10.5472C3.87108 10.4771 3.6801 10.426 3.48541 10.3948C3.29433 10.3632 3.10102 10.3471 2.90735 10.3466C2.7296 10.3457 2.55217 10.3618 2.3775 10.3948C2.2289 10.4181 2.08348 10.4585 1.94409 10.5151C1.83339 10.5555 1.73224 10.6184 1.64703 10.6998C1.57993 10.7685 1.54245 10.8608 1.54265 10.9568C1.55878 11.0745 1.63102 11.1949 1.75935 11.318C1.90639 11.4497 2.06491 11.5679 2.23303 11.6714C2.42036 11.7837 2.62642 11.8961 2.85119 12.0085C3.08126 12.1209 3.30603 12.2279 3.5255 12.3296C3.7988 12.4575 4.03398 12.578 4.23104 12.6912C4.42909 12.7981 4.59234 12.9185 4.7208 13.0523C4.84714 13.1776 4.9456 13.3281 5.00974 13.4941C5.07403 13.66 5.10617 13.8607 5.10617 14.0961C5.10795 14.3592 5.06168 14.6204 4.96965 14.8669C4.88093 15.099 4.74412 15.3096 4.5682 15.485C4.3916 15.6653 4.17798 15.805 3.9421 15.8946C3.69578 15.9962 3.4202 16.047 3.11537 16.047C2.81547 16.047 2.49168 16.0016 2.14399 15.9107C1.80425 15.8227 1.47573 15.6961 1.16484 15.5333C0.86519 15.3781 0.61363 15.1988 0.410165 14.9953C0.212366 14.7859 0.113404 14.5665 0.113281 14.337C0.113281 14.2299 0.142718 14.0934 0.201589 13.9275C0.265634 13.7616 0.37802 13.5877 0.538747 13.4058C0.554882 13.5659 0.64048 13.7558 0.795541 13.9757C0.955653 14.1952 1.19379 14.3984 1.50995 14.5853C1.79359 14.7521 2.09881 14.8791 2.41704 14.9628C2.70606 15.0343 3.0024 15.072 3.30012 15.0751C3.59977 15.0751 3.84326 15.0377 4.03059 14.9628C4.21792 14.8879 4.3651 14.7995 4.47213 14.6977C4.57904 14.5908 4.65398 14.4837 4.69696 14.3766C4.73995 14.2694 4.76403 14.1838 4.7692 14.1196C4.7639 14.0127 4.71304 13.911 4.6166 13.8146C4.52571 13.713 4.39996 13.6166 4.23935 13.5255C4.06343 13.4181 3.88112 13.3216 3.69344 13.2365C3.48492 13.1401 3.26822 13.0437 3.04332 12.9474C2.70623 12.7976 2.41451 12.6585 2.16819 12.5301C1.95563 12.4151 1.75414 12.2807 1.56629 12.1286C1.41111 11.9893 1.29601 11.8448 1.22101 11.695C1.1513 11.5453 1.1165 11.374 1.11663 11.1813C1.11663 10.8814 1.20764 10.5976 1.38968 10.3301C1.57171 10.0626 1.83393 9.85941 2.17632 9.72048C2.35093 9.64455 2.53431 9.59062 2.72224 9.55994C2.91325 9.52836 3.10651 9.51224 3.30012 9.51172C3.65033 9.51133 3.99887 9.55996 4.33561 9.65619C4.68112 9.75526 5.01929 9.87835 5.34763 10.0246Z" fill="#00FFF9"/>
<path d="M10.3184 12.9727C10.2329 12.978 10.1286 13.0342 10.0054 13.1412C9.86108 13.264 9.72683 13.3982 9.60396 13.5425C9.46491 13.7026 9.31773 13.8819 9.16242 14.0805C9.01266 14.2785 8.86554 14.4765 8.72107 14.6746C8.58177 14.8672 8.4506 15.0492 8.32757 15.2205C8.20453 15.3918 8.10021 15.5284 8.01461 15.6301C7.89323 15.5836 7.78511 15.5081 7.69972 15.4101C7.61433 15.3121 7.55429 15.1947 7.52485 15.0681C7.5532 14.8949 7.59076 14.7233 7.63736 14.5541C7.6883 14.3635 7.74998 14.1758 7.82211 13.9921C7.90228 13.7995 7.9986 13.5988 8.11104 13.3901C8.24021 13.1576 8.38206 12.9324 8.53596 12.7156C8.45578 12.7209 8.3461 12.7797 8.20693 12.8922C8.04496 13.0205 7.8945 13.1626 7.75726 13.3171C7.59715 13.4883 7.43125 13.6836 7.25956 13.9031C7.08836 14.1173 6.92782 14.3287 6.77793 14.5373C6.57989 14.8158 6.41399 15.0594 6.28023 15.268C6.15177 15.4774 6.05811 15.6005 5.99924 15.6375C5.86019 15.5359 5.76387 15.4261 5.7103 15.3083C5.65437 15.1825 5.61392 15.0504 5.58984 14.9149C5.59869 14.7534 5.61719 14.5925 5.64527 14.4331C5.68466 14.2323 5.73555 14.034 5.79768 13.839C5.92452 13.4391 6.08291 13.0499 6.27136 12.6751C6.46941 12.2897 6.65939 11.9364 6.8413 11.6152C6.98295 11.6443 7.11892 11.6962 7.24386 11.7689C7.36702 11.8385 7.49548 11.9402 7.62923 12.074C7.5666 12.2595 7.48311 12.4373 7.38038 12.604C7.26806 12.7859 7.15031 12.9786 7.02715 13.182C6.90436 13.385 6.79184 13.5941 6.68999 13.8083C6.59099 14.0139 6.52336 14.2331 6.48936 14.4586C6.63913 14.2446 6.81574 13.9982 7.01921 13.7197C7.22785 13.4414 7.43925 13.1792 7.65343 12.9328C7.85223 12.7062 8.06969 12.4967 8.30355 12.3065C8.51761 12.1353 8.71029 12.0497 8.88161 12.0496C8.95229 12.0505 9.02249 12.0614 9.09019 12.0817C9.16208 12.102 9.23196 12.1288 9.29895 12.1619C9.35521 12.1892 9.40894 12.2215 9.45949 12.2583C9.50235 12.2852 9.52643 12.3066 9.53173 12.3226C9.50488 12.4295 9.44065 12.5767 9.33904 12.7642C9.24273 12.9462 9.13841 13.1389 9.02608 13.3422C8.91376 13.5456 8.80907 13.7436 8.71202 13.9364C8.6157 14.1237 8.55954 14.2736 8.54353 14.386C8.80574 14.0273 9.05207 13.7034 9.28251 13.4145C9.4856 13.1514 9.70268 12.8995 9.93281 12.6598C10.136 12.451 10.3233 12.2904 10.4946 12.178C10.6715 12.0654 10.8374 12.0091 10.9923 12.0091C11.0979 12.0086 11.2012 12.0394 11.2894 12.0974C11.3843 12.1491 11.456 12.235 11.49 12.3376C11.442 12.4977 11.3619 12.6904 11.2498 12.9156C11.1429 13.1403 11.0332 13.3784 10.9206 13.6301C10.8083 13.8764 10.7066 14.1199 10.6156 14.3607C10.53 14.6016 10.4869 14.8184 10.4863 15.011C10.4863 15.1236 10.5024 15.1985 10.5345 15.2358C10.5665 15.268 10.6121 15.2841 10.6709 15.2841C10.7312 15.2848 10.7912 15.2739 10.8475 15.2519C10.9063 15.2252 10.9495 15.2118 10.9768 15.2118C10.9911 15.2206 11.0035 15.2322 11.013 15.246C11.0226 15.2598 11.0291 15.2755 11.0322 15.292C11.0373 15.3212 11.0399 15.3507 11.0402 15.3803C10.9389 15.4624 10.8285 15.5325 10.7111 15.5891C10.5945 15.649 10.4648 15.6793 10.3337 15.6774C10.2054 15.6774 10.0983 15.656 10.0126 15.6133C9.93291 15.5708 9.86422 15.5103 9.81198 15.4367C9.75745 15.3595 9.71923 15.2721 9.69966 15.1797C9.67749 15.0765 9.66671 14.9712 9.66751 14.8656C9.66745 14.6839 9.69174 14.5029 9.73975 14.3276C9.78551 14.1531 9.84177 13.9816 9.90824 13.8139C9.97819 13.6492 10.0507 13.4972 10.1259 13.3577C10.2007 13.2135 10.2649 13.0852 10.3184 12.9727Z" fill="#00FFF9"/>
<path d="M12.7652 15.7182C12.4603 15.686 12.2168 15.5522 12.0348 15.3167C11.8527 15.0813 11.7617 14.7815 11.7617 14.4174C11.7633 14.1919 11.7958 13.9677 11.8582 13.751C11.9231 13.5191 12.0147 13.2955 12.131 13.0847C12.249 12.865 12.3889 12.6579 12.5485 12.4665C12.7021 12.2801 12.8772 12.1127 13.0703 11.9677C13.3645 11.7485 13.6401 11.6388 13.8972 11.6387C14.0684 11.7296 14.2369 11.9195 14.4028 12.2086H14.4751C14.4987 12.203 14.523 12.2004 14.5473 12.2007C14.8306 12.2007 14.9722 12.4522 14.9722 12.9553C14.9737 13.2839 14.9167 13.6102 14.8037 13.9188C14.6983 14.2155 14.5436 14.4924 14.3461 14.7378C14.1515 14.9855 13.9152 15.1975 13.6478 15.364C13.3761 15.5319 13.0776 15.6517 12.7652 15.7182ZM13.1746 13.189C13.0805 13.3172 12.9947 13.4513 12.9178 13.5905C12.8385 13.7328 12.7687 13.8804 12.7091 14.032C12.6523 14.1698 12.6067 14.3119 12.5726 14.4569C12.5425 14.575 12.5263 14.6963 12.5243 14.8181C12.5239 14.9441 12.5456 15.0692 12.5886 15.1876C12.6315 15.3055 12.6797 15.3724 12.7331 15.3884C12.9708 15.3363 13.195 15.2351 13.3913 15.0914C13.5969 14.9391 13.7736 14.7514 13.9132 14.5371C14.0674 14.3083 14.1839 14.0562 14.2583 13.7906C14.3458 13.5016 14.3894 13.2012 14.3877 12.8994C14.39 12.7891 14.382 12.6789 14.3637 12.5702C14.35 12.4962 14.3228 12.4254 14.2833 12.3614C14.0511 12.4293 13.8354 12.544 13.6492 12.6985C13.4749 12.8456 13.3159 13.01 13.1746 13.189Z" fill="#00FFF9"/>
<path d="M22.1778 12.1114C22.1564 12.4432 22.0975 12.7296 22.0012 12.9705C21.9056 13.2052 21.7636 13.4181 21.5839 13.5968C21.4073 13.7734 21.1905 13.9339 20.9336 14.0784C20.6439 14.2382 20.3436 14.3777 20.0346 14.4959C20.0344 14.5309 20.0316 14.5657 20.0265 14.6003V14.7041C20.0267 14.7767 20.0321 14.8491 20.0426 14.9208C20.0521 14.9925 20.0707 15.0626 20.098 15.1296C20.1227 15.191 20.1611 15.2459 20.2103 15.2901C20.2638 15.329 20.329 15.3486 20.395 15.3456C20.542 15.3449 20.6871 15.312 20.82 15.2491C20.9586 15.1851 21.0904 15.1071 21.2133 15.0163C21.3381 14.9231 21.4561 14.8211 21.5665 14.7111C21.6788 14.5988 21.7779 14.4972 21.8636 14.4061C21.9116 14.449 21.9572 14.4945 21.9999 14.5427C21.7593 14.8637 21.4945 15.1314 21.2055 15.3456C20.9222 15.5549 20.652 15.6888 20.3947 15.747C20.0252 15.7041 19.7362 15.5703 19.5277 15.3456C19.3242 15.1154 19.2225 14.8397 19.2227 14.5185C19.2234 14.2935 19.253 14.0695 19.311 13.8521C19.3742 13.6246 19.4602 13.4041 19.5678 13.1938C19.6786 12.9823 19.8075 12.7808 19.9531 12.5916C20.0945 12.4131 20.2531 12.249 20.4268 12.1018C20.586 11.9703 20.7613 11.8597 20.9485 11.7726C21.1174 11.6953 21.3006 11.6543 21.4863 11.6523C21.7328 11.6852 21.9633 11.8383 22.1778 12.1114ZM21.6236 12.3764C21.4791 12.3978 21.3293 12.4567 21.1741 12.553C21.0083 12.6584 20.8595 12.7884 20.7326 12.9383C20.5899 13.1121 20.4661 13.3005 20.3631 13.5003C20.2487 13.7197 20.1599 13.9514 20.0982 14.1909C20.5264 13.9769 20.8823 13.7146 21.1658 13.4041C21.4499 13.0884 21.6027 12.7458 21.624 12.3764H21.6236Z" fill="#00FFF9"/>
<path fill-rule="evenodd" clip-rule="evenodd" d="M15.5216 13.8792C15.4252 14.2217 15.377 14.4893 15.377 14.6821C15.377 14.8694 15.393 15.0246 15.4252 15.1476C15.4573 15.2707 15.4975 15.3507 15.5456 15.3878C15.579 15.416 15.6087 15.4484 15.6339 15.4841C15.6661 15.5269 15.7035 15.5805 15.7463 15.6448C15.7832 15.7142 15.8849 15.757 16.0513 15.7732C16.0336 15.7132 16.0255 15.6509 16.0273 15.5884C16.0281 15.454 16.0389 15.3198 16.0594 15.187C16.0811 15.041 16.1106 14.8964 16.1477 14.7536C16.1906 14.6036 16.2387 14.459 16.2922 14.32C16.3403 14.192 16.3994 14.0683 16.4688 13.9505C16.624 13.6829 16.7845 13.4339 16.9504 13.2038C17.1049 12.9939 17.271 12.7929 17.4481 12.6017C17.614 12.4305 17.7692 12.2967 17.9137 12.2002C18.0581 12.1038 18.1839 12.0529 18.2909 12.0476C18.3499 12.0476 18.3794 12.0691 18.3792 12.1119C18.3792 12.3839 18.221 12.6973 17.9044 13.0521C17.8921 13.2179 17.8999 13.3581 17.9277 13.4727C17.9559 13.5796 18.0062 13.6794 18.0755 13.7656C18.0831 13.7604 18.0908 13.7552 18.0986 13.7497C18.2473 13.6437 18.3798 13.5166 18.4919 13.3724C18.6077 13.2258 18.7023 13.0636 18.7727 12.8906C18.8402 12.7248 18.8756 12.5477 18.8771 12.3687C18.8771 12.0854 18.7594 11.858 18.5239 11.6863C18.3638 11.6917 18.1926 11.7426 18.0103 11.8389C17.8337 11.9299 17.6517 12.0611 17.4644 12.2324C17.26 12.4223 17.072 12.629 16.9024 12.8505C16.7054 13.1058 16.5257 13.3741 16.3646 13.6534C16.4988 13.2483 16.6569 12.8515 16.8383 12.4652C17.0242 12.0704 17.2333 11.687 17.4644 11.317C17.6773 10.9696 17.9133 10.637 18.1708 10.3214C18.4222 10.0163 18.6685 9.76746 18.9098 9.57483C18.9098 9.49983 18.8831 9.41688 18.8296 9.32598C18.7797 9.2325 18.7176 9.14607 18.6449 9.069C18.5725 8.98543 18.4888 8.91248 18.396 8.8523C18.3104 8.7933 18.2304 8.76116 18.1559 8.75586C18.022 8.8523 17.8587 9.03704 17.6661 9.31009C17.4788 9.5829 17.2808 9.90669 17.0722 10.2815C16.8688 10.6561 16.6656 11.0602 16.4625 11.4938C16.2594 11.9273 16.0775 12.3475 15.9168 12.7543C15.7551 13.1616 15.6233 13.5365 15.5216 13.8792ZM17.6955 14.1295C17.6004 13.8841 17.5701 13.6184 17.6074 13.3578C17.5079 13.455 17.412 13.5431 17.3197 13.6222C17.2297 13.6966 17.1359 13.7663 17.0387 13.831C17.0977 14.1628 17.1646 14.4812 17.2394 14.7863C17.3028 15.0525 17.3805 15.3152 17.4721 15.5731C17.574 15.8462 17.6864 16.0549 17.8093 16.1994C17.9379 16.3439 18.0743 16.4161 18.2187 16.4163C18.3059 16.416 18.3926 16.4024 18.4757 16.376C18.5628 16.3561 18.6466 16.3237 18.7245 16.2797C18.7957 16.2449 18.8607 16.1988 18.9172 16.1432C18.9656 16.0965 19.0062 16.0423 19.0375 15.9827C18.8511 15.8762 18.6808 15.7437 18.5318 15.5892C18.3861 15.4325 18.2545 15.2632 18.1385 15.0833C18.0269 14.9029 17.9277 14.7152 17.8414 14.5214C17.7866 14.3897 17.738 14.2591 17.6955 14.1295Z" fill="#00FFF9"/>
<path d="M2.82614 8.61181C1.96745 8.61181 1.27503 8.56938 0.748874 8.48452C0.250312 8.39498 0.00133845 8.27274 0.00195426 8.1178C0.00195426 8.09317 0.0296659 8.05573 0.0850891 8.00547C0.134343 7.95968 0.190441 7.92184 0.251359 7.89334C0.722333 7.90824 1.16572 7.91821 1.58152 7.92326H3.20191C4.61446 7.92326 5.93002 7.91575 7.14859 7.90073C8.39512 7.8857 9.51689 7.86821 10.5139 7.84826C11.0774 7.83705 11.5967 7.82658 12.0718 7.81685L13.0896 7.79598L13.1552 7.79468C13.8435 7.78052 14.3756 7.77344 14.7514 7.77344C15.2778 7.77344 15.7348 7.83083 16.1225 7.94562C16.5378 8.06041 16.8425 8.22507 17.0365 8.43962C16.344 8.42472 15.7763 8.41474 15.3331 8.40969C14.89 8.40465 14.502 8.40218 14.1692 8.4023C13.7044 8.4023 13.2522 8.40421 12.8127 8.40803C12.458 8.41099 12.1115 8.41524 11.7733 8.42078C11.4569 8.42607 11.1477 8.43223 10.8457 8.43925C9.82085 8.45921 8.85144 8.48168 7.93745 8.50669C7.02346 8.53169 6.15097 8.55632 5.32 8.58058C4.4884 8.6014 3.65711 8.61181 2.82614 8.61181Z" fill="#00FFF9"/>
<path d="M3.67825 18.8618C2.56043 18.8618 1.65888 18.8194 0.973601 18.7345C0.324657 18.6447 0.000123163 18.5225 0 18.3678C0 18.3432 0.0360246 18.3057 0.108075 18.2555C0.17481 18.2084 0.247653 18.1706 0.324595 18.1432C0.937576 18.1582 1.51453 18.1682 2.05546 18.1731H4.16505C6.00424 18.1731 7.71719 18.1656 9.30389 18.1507C9.82844 18.1459 10.3361 18.1408 10.8267 18.1354L11.5472 18.1273C11.8059 18.1241 12.0598 18.1209 12.3091 18.1177L12.579 18.1141C12.9608 18.1092 13.33 18.1039 13.6864 18.0983C14.9845 18.0783 16.1024 18.0609 17.0401 18.046C17.9777 18.0311 18.6989 18.0236 19.2038 18.0234C19.8889 18.0234 20.4839 18.0808 20.9888 18.1956C21.5297 18.3104 21.9264 18.4751 22.1789 18.6896C21.2773 18.6747 20.5381 18.6647 19.961 18.6597C19.384 18.6546 18.8791 18.6521 18.4461 18.6521C16.8954 18.6521 15.4529 18.6644 14.1187 18.6891C13.6662 18.6958 13.2221 18.7029 12.7863 18.7103L12.6816 18.712L12.6005 18.7135L12.4711 18.7157L11.7054 18.7293L10.9897 18.743L10.3324 18.7565C9.14237 18.7811 8.00644 18.8061 6.92458 18.8313C5.84222 18.8516 4.76011 18.8618 3.67825 18.8618Z" fill="#00FFF9"/>
<path d="M46.1801 8.61181C47.0387 8.61181 47.7311 8.56938 48.2574 8.48452C48.7558 8.39473 49.0051 8.27249 49.0052 8.1178C49.0052 8.09317 48.9775 8.05573 48.9221 8.00547C48.8728 7.95972 48.8167 7.9219 48.7558 7.89334C48.2851 7.90824 47.8417 7.91821 47.4256 7.92326H45.8054C44.3929 7.92326 43.0773 7.91575 41.8586 7.90073C40.6123 7.8857 39.4906 7.86821 38.4935 7.84826L36.883 7.81574L36.2847 7.80355L35.9176 7.79598C35.1974 7.78107 34.6435 7.77356 34.2558 7.77344C33.7294 7.77344 33.2724 7.83083 32.8848 7.94562C32.4694 8.06041 32.1647 8.22507 31.9707 8.43962C32.6631 8.42472 33.231 8.41474 33.6742 8.40969C34.1175 8.40465 34.5055 8.40218 34.8381 8.4023C35.4553 8.4023 36.0501 8.40563 36.6226 8.41228C36.8244 8.41474 37.0236 8.41752 37.22 8.4206C37.5414 8.42589 37.8554 8.43205 38.1622 8.43907C39.1871 8.45902 40.1564 8.4815 41.0703 8.5065C41.9841 8.5315 42.8566 8.55614 43.6877 8.5804C44.5182 8.60134 45.349 8.61181 46.1801 8.61181Z" fill="#00FFF9"/>
<path d="M45.3273 18.8618C46.4454 18.8618 47.3469 18.8194 48.0319 18.7345C48.6811 18.6447 49.0057 18.5225 49.0057 18.3678C49.0057 18.3429 48.9688 18.3054 48.8975 18.2555C48.8308 18.2084 48.758 18.1706 48.6811 18.1432C48.068 18.1582 47.491 18.1682 46.9501 18.1731H44.8405C43.0014 18.1731 41.2885 18.1656 39.7016 18.1507C39.2126 18.1462 38.7384 18.1414 38.2791 18.1365C37.9775 18.1332 37.6823 18.1298 37.3935 18.1263C36.6619 18.1177 35.971 18.1084 35.3208 18.0983C34.0226 18.0783 32.9046 18.0609 31.967 18.046C31.0293 18.0311 30.3081 18.0236 29.8032 18.0234C29.1182 18.0234 28.5232 18.0808 28.0182 18.1956C27.4773 18.3104 27.0806 18.4751 26.8281 18.6896C27.7297 18.6747 28.4687 18.6647 29.0451 18.6597C29.6215 18.6546 30.1264 18.6521 30.56 18.6521C32.1106 18.6521 33.553 18.6644 34.8872 18.6891C35.6764 18.7014 36.4401 18.7141 37.178 18.7271C37.491 18.7328 37.7995 18.739 38.1034 18.7456C38.2949 18.7493 38.4848 18.7532 38.673 18.7572C39.8631 18.7819 40.9991 18.8068 42.081 18.8321C43.1633 18.8519 44.2454 18.8618 45.3273 18.8618Z" fill="#00FFF9"/>
<path d="M10.5508 16.7088C10.5866 16.9666 10.629 17.2252 10.6779 17.4847H11.4082C11.3512 17.183 11.3041 16.8801 11.267 16.5762L10.5508 16.7088Z" fill="#00FFF9"/>
<path d="M10.7578 11.3933L11.695 11.2216C11.8673 10.6036 12.0807 9.99777 12.3339 9.4082H11.356C11.1102 10.055 10.9103 10.7184 10.7578 11.3933Z" fill="#00FFF9"/>
<path d="M38.4457 17.4861C38.4989 17.2459 38.5935 16.784 38.6164 16.6167C38.6349 16.4829 38.6533 16.31 38.6718 16.1191L37.7871 16.5086C37.7444 16.7598 37.6343 17.2476 37.5781 17.4861H38.4457Z" fill="#00FFF9"/>
<path d="M36.9414 9.10742C37.1631 9.63173 37.3785 10.2227 37.5167 10.7088C37.5293 10.7524 37.5418 10.7965 37.5536 10.8412L38.2849 11.2222C38.211 10.9406 38.1284 10.6566 38.0371 10.37C37.9003 9.94019 37.7388 9.51864 37.5535 9.10742H36.9414Z" fill="#00FFF9"/>
<path d="M35.4166 5.77243C34.1476 4.35988 32.9226 3.46313 31.549 2.83943C31.1169 2.61072 31.1212 2.61922 31.6336 2.96229C33.3364 4.10405 34.8002 5.56687 35.9432 7.26886L36.5436 7.27809C36.2545 6.86408 35.7448 6.13748 35.4166 5.77243Z" fill="#00FFF9"/>
<path fill-rule="evenodd" clip-rule="evenodd" d="M12.3915 17.4849H12.1698C12.1033 17.1381 12.0496 16.8117 12.0078 16.5L12.3904 17.4791L12.3915 17.4849Z" fill="#00FFF9"/>
<path fill-rule="evenodd" clip-rule="evenodd" d="M37.9382 19.2493C37.2666 21.0695 36.2062 22.7213 34.8308 24.0896C33.4587 25.466 31.8874 26.4913 30.0664 27.1933C29.3089 27.4856 29.173 27.5279 28.4571 27.7058C27.2672 27.9981 26.3397 28.1122 25.0988 28.1122C23.985 28.1122 23.2948 28.0276 22.1132 27.7481C20.0256 27.2526 18.2044 26.3295 16.4969 24.8896C15.3482 23.9254 14.3796 22.7504 13.6351 21.4435C13.321 20.8921 13.0476 20.3184 12.817 19.7271C12.7494 19.554 12.6968 19.4241 12.6367 19.248H12.997C13.105 19.5043 13.2054 19.7118 13.3295 19.96C13.5837 20.4723 13.8704 20.9678 14.1878 21.4435C15.3301 23.1524 16.838 24.5288 18.6956 25.5633C20.127 26.3636 21.5371 26.8296 23.3116 27.1006C23.8104 27.1767 24.1163 27.193 24.9422 27.198C26.1999 27.198 26.7081 27.1387 28.0337 26.8168C30.3164 26.2705 32.5229 25.0086 34.2595 23.2636C35.2396 22.2909 36.0485 21.1598 36.6521 19.9179C36.7565 19.7062 36.8696 19.4524 36.9594 19.2484L37.9382 19.2493Z" fill="#00FFF9"/>
<path fill-rule="evenodd" clip-rule="evenodd" d="M27.5248 0.142539C27.275 0.0832365 25.4115 -0.0183727 25.0261 0.00287287C25.0077 0.00453556 24.9362 0.00767657 24.8335 0.0124799C24.6892 0.018946 24.4824 0.0285522 24.2639 0.0409301C23.0146 0.0963533 22.1888 0.231402 20.9817 0.570222C19.1056 1.0997 17.382 2.00162 15.7559 3.31034C15.1713 3.77608 14.0533 4.90265 13.562 5.52099C13.3087 5.83875 13.0685 6.16858 12.8415 6.51048C12.6952 6.73033 12.5034 7.05991 12.3691 7.28807H13.4684C13.6202 7.05899 13.8456 6.72959 14.0104 6.51048C15.2714 4.83019 16.9036 3.46395 18.7796 2.51835C19.8256 1.98906 20.6684 1.6798 21.8923 1.37497C22.5402 1.21406 23.095 1.12926 24.086 1.0319C24.3359 1.01065 24.2681 1.0742 23.9591 1.159C23.798 1.20131 23.3152 1.36222 22.8833 1.51888C21.02 2.19652 20.1729 2.70124 20.1772 3.12819C20.1814 3.32291 20.4059 3.50931 20.639 3.50931C20.7109 3.50931 21.2361 3.39496 21.8029 3.25529C22.9422 2.97577 23.3488 2.89947 24.1789 2.81486C25.0978 2.72249 26.5122 2.79362 26.542 2.93347C26.5462 2.95453 26.2497 3.07313 25.8856 3.19599C25.1096 3.45463 24.8521 3.58561 24.6193 3.83539L24.4791 3.99039H25.1713C25.1571 3.98244 25.1586 3.97191 25.1697 3.9588C25.2415 3.86994 25.6059 3.73858 26.059 3.63697C26.8001 3.46756 27.1516 3.27266 27.2229 2.98058C27.3456 2.48934 26.2868 2.24788 24.2203 2.29444C23.5724 2.31143 23.2504 2.30294 23.3309 2.27744C23.6265 2.18858 25.0631 1.85401 25.5078 1.77863C25.7703 1.72783 26.3419 1.66021 26.7782 1.62622C27.2102 1.58816 27.6465 1.54161 27.7437 1.51537C28.2477 1.40453 28.4764 1.21479 28.4764 0.909782C28.4777 0.544912 28.1555 0.290704 27.5248 0.142539Z" fill="#00FFF9"/>
<path fill-rule="evenodd" clip-rule="evenodd" d="M24.3698 28.9995C24.0188 29.0037 23.2059 28.9402 22.7182 28.8724C22.5445 28.8469 22.3328 28.817 22.2522 28.8088C21.4307 28.6902 19.9908 28.2668 19.0549 27.8644C15.9859 26.5435 13.5935 24.3367 12.0686 21.4455C11.7761 20.8898 11.5182 20.3166 11.2964 19.729C11.2463 19.5945 11.204 19.4565 11.1406 19.25H11.8611C11.9165 19.4189 11.9633 19.5417 12.0248 19.7078C12.0274 19.715 12.0302 19.722 12.0328 19.729C12.2501 20.3179 12.507 20.8913 12.8017 21.4455C13.3542 22.4778 14.0406 23.4134 14.9554 24.4088C17.3312 26.9878 20.2576 28.453 23.904 28.8981C24.5772 28.9825 24.6408 28.9952 24.3698 28.9995Z" fill="#00FFF9"/>
</svg>
