<svg width="314" height="324" viewBox="0 0 314 324" fill="none" xmlns="http://www.w3.org/2000/svg">
<path d="M290.676 165.932C291.465 165.949 292.127 166.227 292.662 166.768C293.202 167.309 293.464 167.962 293.449 168.728C293.434 169.495 293.147 170.137 292.586 170.654C292.031 171.177 291.359 171.43 290.57 171.414C289.786 171.397 289.125 171.116 288.585 170.571C288.045 170.03 287.782 169.376 287.797 168.61C287.812 167.844 288.1 167.202 288.66 166.684C289.226 166.167 289.898 165.916 290.676 165.932ZM290.584 170.711C291.186 170.723 291.693 170.537 292.105 170.153C292.523 169.778 292.737 169.298 292.749 168.714C292.76 168.134 292.564 167.643 292.162 167.242C291.759 166.845 291.26 166.64 290.663 166.628C290.071 166.616 289.564 166.799 289.141 167.179C288.729 167.563 288.517 168.045 288.506 168.625C288.494 169.21 288.687 169.698 289.085 170.089C289.492 170.491 289.992 170.698 290.584 170.711Z" fill="#00FFF9"/>
<path d="M293.252 172.275L293.026 176.087L292.342 176.047L292.435 174.485L287.677 174.207L287.718 173.512L292.476 173.79L292.568 172.235L293.252 172.275Z" fill="#00FFF9"/>
<path d="M287.579 176.008L288.23 176.069C288.145 176.42 288.223 176.691 288.466 176.88C288.708 177.075 289.163 177.203 289.83 177.264L292.908 177.548L292.577 181.026L287.15 180.526L287.216 179.825L291.961 180.263L292.159 178.185L289.763 177.964C289.282 177.92 288.881 177.837 288.559 177.716C288.236 177.601 288 177.452 287.85 177.271C287.7 177.095 287.603 176.904 287.561 176.698C287.522 176.497 287.528 176.267 287.579 176.008Z" fill="#00FFF9"/>
<path d="M286.429 185.947L286.526 185.251L290.554 185.79L286.901 182.554L286.98 181.992L292.381 182.715L292.284 183.411L288.248 182.871L291.909 186.108L291.83 186.67L286.429 185.947Z" fill="#00FFF9"/>
<path d="M288.544 190.602L291.075 191.037L290.951 191.73L285.581 190.807L285.706 190.115L287.869 190.487C287.743 190.045 287.72 189.601 287.8 189.154C287.891 188.648 288.11 188.263 288.458 188.001C288.811 187.739 289.222 187.649 289.693 187.729L291.61 188.059L291.486 188.751L289.614 188.43C289.323 188.38 289.074 188.429 288.868 188.578C288.661 188.732 288.53 188.965 288.474 189.278C288.393 189.725 288.417 190.166 288.544 190.602Z" fill="#00FFF9"/>
<path d="M287.728 195.767L289.989 196.242L289.839 196.922L284.509 195.801L284.659 195.121L287.058 195.626L287.612 193.113L285.213 192.609L285.365 191.921L290.695 193.042L290.543 193.729L288.282 193.254L287.728 195.767Z" fill="#00FFF9"/>
<path d="M283.775 198.706L284.269 196.847L289.547 198.183L289.366 198.863L287.481 198.386L287.168 199.564C287.043 200.033 286.775 200.384 286.364 200.618C285.953 200.853 285.509 200.91 285.031 200.789C284.549 200.667 284.186 200.406 283.944 200.006C283.705 199.612 283.649 199.179 283.775 198.706ZM283.016 201.559L283.197 200.879L288.475 202.215L288.294 202.895L283.016 201.559ZM286.825 198.22L284.744 197.693L284.431 198.872C284.355 199.155 284.391 199.413 284.538 199.648C284.685 199.883 284.909 200.039 285.21 200.115C285.512 200.192 285.785 200.162 286.031 200.026C286.276 199.891 286.436 199.681 286.512 199.398L286.825 198.22Z" fill="#00FFF9"/>
<path d="M287.419 207.707L288.036 205.757L288.602 205.927L287.984 207.877L287.419 207.707ZM281.355 206.904L281.567 206.232L285.453 207.401L282.39 203.632L282.562 203.09L287.772 204.657L287.56 205.329L283.667 204.158L286.737 207.929L286.566 208.471L281.355 206.904Z" fill="#00FFF9"/>
<path d="M281.734 214.098C281.529 214.288 281.297 214.41 281.037 214.467C280.777 214.524 280.513 214.503 280.245 214.407C279.836 214.259 279.546 213.995 279.375 213.616C279.204 213.237 279.195 212.847 279.348 212.445L280.164 210.305L285.276 212.154L284.52 214.138C284.37 214.53 284.111 214.81 283.742 214.978C283.372 215.15 282.989 215.165 282.595 215.022C282.137 214.857 281.85 214.549 281.734 214.098ZM283.884 213.908L284.389 212.583L282.826 212.018L282.321 213.343C282.242 213.551 282.251 213.753 282.348 213.949C282.445 214.146 282.603 214.283 282.822 214.363C283.036 214.44 283.246 214.433 283.453 214.341C283.663 214.256 283.807 214.112 283.884 213.908ZM280.548 211.194L279.983 212.675C279.898 212.897 279.908 213.113 280.011 213.322C280.114 213.531 280.282 213.678 280.516 213.763C280.745 213.845 280.969 213.838 281.189 213.74C281.406 213.652 281.556 213.497 281.641 213.275L282.206 211.794L280.548 211.194Z" fill="#00FFF9"/>
<path d="M277.73 216.44L278.492 214.67L283.522 216.721L283.243 217.369L281.447 216.637L280.964 217.759C280.772 218.205 280.455 218.516 280.014 218.691C279.572 218.866 279.124 218.861 278.669 218.675C278.209 218.488 277.888 218.179 277.707 217.75C277.528 217.328 277.536 216.891 277.73 216.44ZM276.56 219.159L276.839 218.511L281.869 220.562L281.59 221.21L276.56 219.159ZM280.821 216.382L278.838 215.573L278.355 216.695C278.239 216.965 278.237 217.226 278.347 217.479C278.458 217.732 278.657 217.917 278.945 218.034C279.232 218.151 279.507 218.159 279.77 218.059C280.033 217.959 280.223 217.774 280.339 217.504L280.821 216.382Z" fill="#00FFF9"/>
<path d="M278.655 222.439L278.096 223.603C277.898 224.013 277.584 224.298 277.151 224.457C276.726 224.614 276.304 224.597 275.886 224.407C275.462 224.214 275.174 223.907 275.02 223.487C274.867 223.078 274.892 222.661 275.096 222.237L275.962 220.437L280.902 222.686L279.52 225.561L278.899 225.278L279.975 223.04L278.655 222.439ZM276.27 221.353L275.71 222.517C275.596 222.754 275.584 222.993 275.675 223.235C275.763 223.481 275.934 223.661 276.188 223.777C276.438 223.891 276.688 223.901 276.938 223.81C277.187 223.723 277.368 223.56 277.482 223.323L278.041 222.159L276.27 221.353Z" fill="#00FFF9"/>
<path d="M276.356 225.867C277.055 226.223 277.521 226.758 277.752 227.473C277.988 228.19 277.923 228.887 277.558 229.566C277.193 230.244 276.641 230.694 275.901 230.914C275.163 231.141 274.444 231.077 273.745 230.721C273.05 230.367 272.585 229.83 272.352 229.108C272.116 228.391 272.181 227.693 272.545 227.015C272.91 226.336 273.463 225.887 274.203 225.667C274.947 225.449 275.665 225.515 276.356 225.867ZM274.08 230.098C274.614 230.37 275.154 230.423 275.7 230.258C276.246 230.103 276.658 229.767 276.937 229.25C277.213 228.736 277.263 228.213 277.086 227.68C276.908 227.151 276.554 226.752 276.024 226.483C275.499 226.216 274.961 226.16 274.407 226.316C273.861 226.482 273.45 226.821 273.174 227.335C272.895 227.852 272.844 228.372 273.021 228.894C273.202 229.43 273.555 229.831 274.08 230.098Z" fill="#00FFF9"/>
<path d="M275.509 233.064L274.524 234.727C274.275 235.146 273.921 235.416 273.46 235.536C273 235.655 272.555 235.596 272.128 235.356C271.7 235.116 271.424 234.773 271.299 234.325C271.175 233.878 271.236 233.444 271.485 233.025L272.109 231.971L270.421 231.026L270.781 230.417L275.509 233.064ZM272.697 232.3L272.072 233.354C271.92 233.612 271.883 233.871 271.963 234.13C272.05 234.4 272.223 234.607 272.484 234.754C272.755 234.905 273.027 234.947 273.3 234.879C273.574 234.812 273.786 234.651 273.936 234.398L274.56 233.344L272.697 232.3Z" fill="#00FFF9"/>
<path d="M271.936 238.926L269.805 242.13L269.229 241.768L270.103 240.455L266.097 237.937L266.485 237.353L270.491 239.871L271.36 238.564L271.936 238.926Z" fill="#00FFF9"/>
<path d="M262.283 243.381L262.722 242.766L263.98 243.091L265.376 241.136L264.624 240.104L265.062 239.49L268.388 244.133L267.922 244.785L262.283 243.381ZM267.446 243.977L265.791 241.71L264.679 243.268L267.446 243.977Z" fill="#00FFF9"/>
<path d="M264.144 246.325L263.351 247.352C263.071 247.715 262.703 247.931 262.246 248.001C261.797 248.07 261.387 247.97 261.017 247.7C260.642 247.428 260.424 247.071 260.362 246.629C260.298 246.198 260.411 245.796 260.7 245.421L261.927 243.832L266.293 247.012L264.334 249.55L263.785 249.151L265.31 247.174L264.144 246.325ZM262.036 244.789L261.243 245.816C261.081 246.026 261.019 246.258 261.057 246.512C261.092 246.77 261.221 246.981 261.446 247.144C261.666 247.305 261.909 247.365 262.173 247.325C262.435 247.289 262.647 247.166 262.808 246.957L263.601 245.929L262.036 244.789Z" fill="#00FFF9"/>
<path d="M256.21 250.94L256.694 250.358L257.924 250.771L259.464 248.92L258.791 247.838L259.274 247.256L262.243 252.122L261.73 252.739L256.21 250.94ZM261.316 251.899L259.835 249.522L258.608 250.997L261.316 251.899Z" fill="#00FFF9"/>
<path d="M256.977 254.23L253.232 254.258L253.814 253.608L257.331 253.558L255.355 251.888L255.83 251.358L259.947 254.838L259.472 255.368L257.614 253.797L257.982 257.031L257.4 257.681L256.977 254.23Z" fill="#00FFF9"/>
<path d="M254.84 256.496C255.415 257.022 255.714 257.66 255.738 258.408C255.765 259.16 255.508 259.814 254.968 260.37C254.427 260.927 253.769 261.214 252.995 261.232C252.221 261.256 251.546 261.005 250.972 260.479C250.401 259.956 250.103 259.317 250.079 258.561C250.052 257.81 250.308 257.156 250.849 256.599C251.39 256.042 252.047 255.755 252.822 255.738C253.6 255.724 254.273 255.976 254.84 256.496ZM251.468 259.968C251.906 260.37 252.412 260.563 252.984 260.547C253.554 260.543 254.044 260.328 254.457 259.903C254.866 259.482 255.06 258.991 255.039 258.432C255.014 257.877 254.784 257.4 254.349 257.001C253.918 256.606 253.414 256.412 252.838 256.417C252.265 256.432 251.774 256.65 251.365 257.072C250.953 257.496 250.759 257.983 250.783 258.532C250.809 259.094 251.037 259.573 251.468 259.968Z" fill="#00FFF9"/>
<path d="M247.818 263.599C247.549 263.684 247.284 263.698 247.024 263.641C246.764 263.583 246.535 263.455 246.335 263.256C246.031 262.952 245.885 262.593 245.898 262.18C245.911 261.767 246.075 261.411 246.392 261.113L248.076 259.524L251.881 263.324L250.319 264.798C250.01 265.089 249.652 265.233 249.245 265.23C248.833 265.231 248.481 265.085 248.187 264.792C247.847 264.452 247.724 264.054 247.818 263.599ZM249.846 264.325L250.889 263.341L249.726 262.179L248.683 263.163C248.519 263.318 248.438 263.504 248.439 263.721C248.439 263.939 248.521 264.129 248.684 264.292C248.844 264.451 249.037 264.532 249.265 264.536C249.492 264.546 249.686 264.476 249.846 264.325ZM248.03 260.485L246.864 261.585C246.69 261.75 246.603 261.948 246.603 262.18C246.604 262.412 246.691 262.614 246.865 262.788C247.035 262.958 247.241 263.045 247.484 263.049C247.719 263.06 247.923 262.983 248.098 262.818L249.264 261.718L248.03 260.485Z" fill="#00FFF9"/>
<path d="M239.824 266.887L240.369 266.426L243.044 269.406L242.481 264.641L242.921 264.269L246.507 268.265L245.961 268.726L243.282 265.74L243.85 270.511L243.41 270.883L239.824 266.887Z" fill="#00FFF9"/>
<path d="M237.73 272.041L234.044 271.384L234.741 270.853L238.208 271.446L236.589 269.445L237.158 269.012L240.53 273.18L239.961 273.613L238.439 271.732L238.174 274.974L237.477 275.505L237.73 272.041Z" fill="#00FFF9"/>
<path d="M233.175 274.808L233.955 278.002L233.363 278.419L232.327 274.152C232.103 273.212 232.355 272.517 233.081 272.066L233.476 272.592C233.219 272.737 233.048 272.907 232.965 273.103C232.88 273.306 232.874 273.56 232.948 273.864L232.978 273.993L236.773 276.013L236.182 276.43L233.175 274.808Z" fill="#00FFF9"/>
<path d="M232.315 279.118L230.676 280.188C230.263 280.457 229.822 280.547 229.354 280.458C228.885 280.368 228.513 280.125 228.237 279.727C227.961 279.33 227.868 278.903 227.959 278.449C228.05 277.994 228.302 277.632 228.715 277.362L229.754 276.684L228.665 275.114L229.265 274.722L232.315 279.118ZM230.133 277.23L229.094 277.909C228.84 278.074 228.69 278.291 228.645 278.558C228.6 278.836 228.662 279.097 228.831 279.34C229.005 279.591 229.23 279.745 229.507 279.801C229.784 279.858 230.047 279.804 230.297 279.642L231.336 278.963L230.133 277.23Z" fill="#00FFF9"/>
<path d="M221.711 279.445L222.325 279.075L224.475 282.431L224.705 277.642L225.201 277.344L228.083 281.844L227.468 282.215L225.315 278.852L225.089 283.647L224.593 283.946L221.711 279.445Z" fill="#00FFF9"/>
<path d="M223.621 284.495L220.208 286.383L219.868 285.805L221.266 285.031L218.897 281.009L219.519 280.665L221.888 284.687L223.28 283.916L223.621 284.495Z" fill="#00FFF9"/>
<path d="M217.2 284.591L216.391 283.105L214.154 284.249L213.834 283.66L216.71 282.189L219.261 286.874L216.419 288.327L216.098 287.738L218.3 286.612L217.517 285.173L215.487 286.212L215.17 285.629L217.2 284.591Z" fill="#00FFF9"/>
<path d="M213.271 283.95L213.556 284.523C213.201 284.632 213.003 284.836 212.962 285.135C212.916 285.437 213.038 285.881 213.329 286.467L214.673 289.174L211.434 290.684L209.064 285.911L209.716 285.607L211.788 289.78L213.723 288.878L212.677 286.771C212.467 286.348 212.332 285.972 212.272 285.641C212.207 285.313 212.215 285.041 212.297 284.823C212.375 284.608 212.493 284.43 212.653 284.288C212.811 284.153 213.017 284.04 213.271 283.95Z" fill="#00FFF9"/>
<path d="M208.664 289.81L207.516 290.295C207.059 290.487 206.609 290.499 206.164 290.329C205.72 290.159 205.399 289.854 205.201 289.415C205.001 288.971 204.988 288.533 205.162 288.102C205.333 287.678 205.65 287.368 206.111 287.173L207.923 286.408L210.108 291.264L209.445 291.544L208.664 289.81ZM207.531 287.292L206.383 287.777C206.107 287.893 205.919 288.08 205.82 288.336C205.72 288.593 205.733 288.86 205.858 289.138C205.978 289.406 206.171 289.594 206.435 289.703C206.694 289.814 206.964 289.81 207.244 289.691L208.393 289.206L207.531 287.292Z" fill="#00FFF9"/>
<path d="M201.436 292.31L202.283 294.402L201.616 294.655L199.62 289.724L200.286 289.471L201.185 291.69L203.648 290.755L202.75 288.536L203.424 288.281L205.42 293.212L204.746 293.467L203.899 291.375L201.436 292.31Z" fill="#00FFF9"/>
<path d="M196.47 290.801L198.341 290.184L200.107 295.197L199.421 295.423L198.791 293.632L197.605 294.023C197.133 294.179 196.683 294.154 196.255 293.949C195.826 293.744 195.532 293.415 195.372 292.961C195.211 292.503 195.235 292.066 195.445 291.65C195.652 291.241 195.993 290.958 196.47 290.801ZM193.596 291.748L194.282 291.522L196.047 296.535L195.362 296.761L193.596 291.748ZM198.571 293.009L197.875 291.033L196.689 291.424C196.404 291.518 196.201 291.689 196.08 291.936C195.959 292.184 195.949 292.451 196.05 292.738C196.151 293.024 196.327 293.23 196.58 293.354C196.832 293.479 197.1 293.494 197.385 293.4L198.571 293.009Z" fill="#00FFF9"/>
<path d="M190.884 295.381L188.405 293.24L189.196 293.014L191.091 294.651L191.764 292.282L192.548 292.058L191.665 295.15L194.001 297.165L193.217 297.389L191.465 295.877L190.843 298.066L190.059 298.29L190.884 295.381Z" fill="#00FFF9"/>
<path d="M182.787 294.495C183.596 294.313 184.323 294.42 184.968 294.818C185.612 295.212 186.026 295.786 186.209 296.542C186.392 297.299 186.285 297.991 185.889 298.619C185.493 299.252 184.891 299.66 184.082 299.843C183.602 299.951 183.13 299.939 182.666 299.805C182.202 299.672 181.81 299.439 181.49 299.108L182.02 298.623C182.241 298.873 182.523 299.048 182.867 299.146C183.206 299.251 183.558 299.262 183.922 299.18C184.538 299.041 184.992 298.736 185.283 298.266C185.576 297.802 185.652 297.279 185.512 296.7C185.372 296.125 185.065 295.692 184.589 295.401C184.113 295.105 183.566 295.026 182.949 295.166C182.586 295.248 182.275 295.406 182.017 295.64C181.756 295.881 181.583 296.158 181.499 296.472L180.803 296.272C180.933 295.839 181.174 295.46 181.528 295.137C181.877 294.82 182.297 294.606 182.787 294.495Z" fill="#00FFF9"/>
<path d="M176.255 301.275L175.451 301.419L174.447 296.214L175.151 296.087L175.936 300.155L177.142 297.008L177.234 296.991L179.532 299.503L178.748 295.442L179.46 295.315L180.464 300.52L179.661 300.664L177.423 298.219L176.255 301.275Z" fill="#00FFF9"/>
<path d="M172.632 298.839L172.385 297.176L169.88 297.52L169.783 296.861L173.004 296.419L173.782 301.66L170.599 302.097L170.501 301.438L172.967 301.1L172.728 299.49L170.455 299.802L170.358 299.151L172.632 298.839Z" fill="#00FFF9"/>
<path d="M166.133 297.16C166.959 297.075 167.667 297.268 168.258 297.74C168.848 298.206 169.186 298.826 169.273 299.598C169.359 300.37 169.166 301.044 168.693 301.62C168.22 302.201 167.571 302.534 166.745 302.62C166.255 302.67 165.788 302.602 165.344 302.414C164.9 302.227 164.54 301.949 164.264 301.582L164.852 301.164C165.039 301.439 165.297 301.646 165.626 301.784C165.95 301.928 166.298 301.981 166.67 301.943C167.299 301.878 167.788 301.63 168.136 301.198C168.485 300.772 168.627 300.263 168.56 299.671C168.495 299.085 168.244 298.618 167.809 298.273C167.372 297.922 166.84 297.779 166.21 297.844C165.839 297.883 165.51 298.003 165.225 298.205C164.935 298.412 164.728 298.666 164.606 298.968L163.94 298.687C164.123 298.272 164.41 297.926 164.802 297.647C165.189 297.374 165.633 297.212 166.133 297.16Z" fill="#00FFF9"/>
<path d="M162.157 299.944L162.037 298.269L159.512 298.434L159.464 297.77L162.711 297.558L163.092 302.839L159.884 303.049L159.836 302.385L162.322 302.223L162.205 300.6L159.913 300.75L159.866 300.094L162.157 299.944Z" fill="#00FFF9"/>
<path d="M155.47 303.772L157.571 303.706L157.592 304.281L155.491 304.347L155.47 303.772ZM154.254 297.946L154.978 297.923L155.121 301.869L157.779 297.835L158.363 297.817L158.555 303.108L157.831 303.13L157.688 299.177L155.03 303.219L154.446 303.237L154.254 297.946Z" fill="#00FFF9"/>
<path d="M152 297.857C152.14 297.858 152.26 297.906 152.358 298.002C152.457 298.098 152.506 298.214 152.506 298.35C152.506 298.486 152.457 298.602 152.359 298.697C152.26 298.793 152.141 298.841 152 298.84C151.855 298.84 151.736 298.792 151.642 298.696C151.544 298.6 151.494 298.484 151.494 298.348C151.494 298.212 151.543 298.096 151.642 298C151.735 297.905 151.855 297.857 152 297.857Z" fill="#00FFF9"/>
</svg>
