<svg width="316" height="325" viewBox="0 0 316 325" fill="none" xmlns="http://www.w3.org/2000/svg">
<path d="M130.442 41.5979C128.236 42.0215 126.31 41.9522 124.666 41.3901C123.017 40.7977 121.654 39.7426 120.579 38.225C119.504 36.7073 118.69 34.7479 118.135 32.3467L123.676 30.1076C124.009 31.5169 124.416 32.7396 124.897 33.7757C125.409 34.8061 126.01 35.5684 126.7 36.0628C127.415 36.5211 128.256 36.6575 129.223 36.4718C130.312 36.2629 131.022 35.7975 131.353 35.0756C131.679 34.3234 131.746 33.4485 131.555 32.4509C131.247 30.8486 130.632 29.6032 129.709 28.7145C128.786 27.8259 127.622 26.9837 126.215 26.188L120.806 22.9945C119.292 22.1254 118.011 21.0861 116.964 19.8766C115.941 18.631 115.235 16.9954 114.846 14.9699C114.289 12.0676 114.706 9.668 116.098 7.771C117.489 5.87399 119.651 4.64406 122.583 4.0812C124.306 3.75044 125.795 3.7469 127.048 4.07057C128.295 4.36401 129.342 4.91549 130.187 5.72501C131.062 6.52873 131.782 7.50332 132.346 8.64876C132.905 9.76397 133.358 10.978 133.704 12.2908L128.181 14.3851C127.9 13.2479 127.567 12.2461 127.181 11.3798C126.826 10.5077 126.342 9.86396 125.729 9.44867C125.147 9.02757 124.372 8.90987 123.405 9.09555C122.407 9.28704 121.7 9.76756 121.283 10.5371C120.891 11.2706 120.788 12.1211 120.974 13.0885C121.212 14.328 121.666 15.3066 122.337 16.0242C123.001 16.7116 123.899 17.3856 125.029 18.0465L130.383 21.2033C132.139 22.1829 133.711 23.4327 135.1 24.9529C136.513 26.4369 137.452 28.3882 137.916 30.8068C138.252 32.5602 138.158 34.1926 137.633 35.7039C137.139 37.2094 136.271 38.4886 135.032 39.5416C133.816 40.5585 132.287 41.2439 130.442 41.5979Z" fill="#00FFF9"/>
<path d="M139.713 38.5258L140.613 1.12891L147.678 1.17689L152.812 27.1168L158.529 1.2506L165.363 1.29702L165.801 38.703L160.722 38.6685L160.344 12.6685L154.858 38.6286L150.748 38.6007L145.523 12.4755L144.838 38.5606L139.713 38.5258Z" fill="#00FFF9"/>
<path d="M177.325 41.1663C174.734 40.626 172.77 39.7135 171.434 38.4288C170.098 37.1441 169.287 35.5285 169.001 33.5822C168.715 31.6358 168.829 29.4271 169.345 26.9559L172.2 13.2592C172.715 10.7881 173.486 8.74766 174.513 7.13799C175.547 5.49818 176.93 4.37135 178.661 3.75752C180.393 3.14369 182.555 3.1069 185.146 3.64714C187.798 4.19995 189.78 5.10051 191.092 6.34882C192.435 7.60341 193.252 9.18882 193.544 11.105C193.873 12.9974 193.78 15.1791 193.265 17.6503L190.4 31.3922C189.891 33.8332 189.102 35.8856 188.032 37.5492C186.998 39.189 185.609 40.346 183.865 41.0201C182.157 41.6704 179.977 41.7191 177.325 41.1663ZM178.352 36.2391C179.467 36.4715 180.331 36.4 180.944 36.0246C181.587 35.6555 182.087 35.0679 182.444 34.2618C182.8 33.4557 183.082 32.5554 183.29 31.5609L186.804 14.6999C187.018 13.6753 187.119 12.7373 187.108 11.886C187.097 11.0346 186.867 10.3264 186.419 9.76125C186.007 9.17228 185.244 8.76158 184.129 8.52915C183.074 8.30928 182.225 8.3839 181.582 8.753C180.945 9.09196 180.452 9.64943 180.101 10.4254C179.751 11.2014 179.469 12.1017 179.255 13.1263L175.741 29.9873C175.533 30.9818 175.417 31.9166 175.392 32.7918C175.397 33.6733 175.62 34.4117 176.062 35.007C176.504 35.6022 177.268 36.0129 178.352 36.2391Z" fill="#00FFF9"/>
<path d="M189.898 43.0813L203.972 8.42828L210.304 10.9999L204.118 26.2301L217.149 13.78L223.181 16.2299L210.26 29.0236L209.791 51.161L203.502 48.6068L204.096 30.4573L201.564 32.519L196.23 45.6529L189.898 43.0813Z" fill="#00FFF9"/>
<path d="M209.926 51.2565L229.114 19.1513L242.59 27.2055L240.127 31.3277L232.516 26.7794L226.997 36.0146L232.982 39.5916L230.542 43.6741L224.557 40.0971L218.208 50.7195L225.898 55.3152L223.482 59.358L209.926 51.2565Z" fill="#00FFF9"/>
<path d="M232.974 65.7425L259.52 39.3947L264.302 44.2124L253.192 55.2395L258.559 60.6471L269.669 49.62L274.483 54.4705L247.937 80.8183L243.123 75.9678L255.118 64.0625L249.751 58.6549L237.756 70.5602L232.974 65.7425Z" fill="#00FFF9"/>
<path d="M254.771 90.7079C253.287 88.5158 252.512 86.4937 252.448 84.6414C252.383 82.7891 252.925 81.0647 254.075 79.4683C255.224 77.8719 256.844 76.3659 258.934 74.9505L270.519 67.1053C272.609 65.6898 274.583 64.7619 276.441 64.3215C278.325 63.8639 280.102 64.0175 281.772 64.7823C283.443 65.5471 285.02 67.0256 286.505 69.2176C288.024 71.4606 288.82 73.4869 288.893 75.2964C288.983 77.1315 288.466 78.8386 287.342 80.4177C286.261 82.0051 284.675 83.5066 282.585 84.922L270.962 92.7931C268.897 94.1913 266.902 95.1151 264.975 95.5645C263.092 96.0221 261.289 95.8858 259.568 95.1555C257.889 94.4334 256.29 92.9509 254.771 90.7079ZM258.939 87.8857C259.577 88.8287 260.247 89.3788 260.949 89.536C261.667 89.7186 262.435 89.6447 263.252 89.3143C264.07 88.9839 264.899 88.5339 265.74 87.9643L280.001 78.3067C280.867 77.7198 281.593 77.1168 282.178 76.4978C282.762 75.8789 283.09 75.2105 283.162 74.4928C283.276 73.7833 283.014 72.957 282.376 72.0139C281.772 71.1218 281.11 70.5845 280.392 70.4018C279.699 70.202 278.956 70.2586 278.164 70.5717C277.373 70.8848 276.544 71.3348 275.677 71.9217L261.416 81.5794C260.575 82.149 259.841 82.7392 259.213 83.3499C258.603 83.9862 258.249 84.6718 258.152 85.4068C258.055 86.1418 258.317 86.9681 258.939 87.8857Z" fill="#00FFF9"/>
<path d="M266.079 110.266C264.977 107.724 264.586 105.545 264.906 103.729C265.226 101.913 266.131 100.363 267.621 99.0794C269.112 97.796 271.057 96.634 273.458 95.5934L296.675 85.5303L299.32 91.6311L275.382 102.006C274.309 102.472 273.323 102.983 272.424 103.54C271.553 104.086 270.931 104.741 270.558 105.506C270.226 106.288 270.286 107.201 270.739 108.246C271.217 109.348 271.842 110.016 272.615 110.252C273.428 110.503 274.332 110.497 275.325 110.234C276.359 109.988 277.412 109.632 278.486 109.166L302.423 98.7911L305.049 104.85L281.832 114.913C279.431 115.953 277.253 116.579 275.297 116.789C273.342 116.999 271.592 116.6 270.048 115.592C268.516 114.612 267.193 112.837 266.079 110.266Z" fill="#00FFF9"/>
<path d="M273.423 131.01C272.887 128.828 272.858 126.901 273.336 125.231C273.844 123.553 274.828 122.139 276.289 120.988C277.75 119.838 279.665 118.924 282.035 118.247L284.553 123.668C283.163 124.072 281.963 124.541 280.952 125.074C279.949 125.637 279.219 126.276 278.76 126.991C278.339 127.728 278.245 128.575 278.48 129.532C278.744 130.608 279.245 131.294 279.983 131.588C280.751 131.875 281.628 131.898 282.614 131.656C284.199 131.267 285.411 130.589 286.252 129.622C287.092 128.655 287.874 127.449 288.597 126.004L291.511 120.44C292.302 118.883 293.275 117.55 294.429 116.443C295.621 115.358 297.219 114.57 299.222 114.079C302.092 113.375 304.51 113.669 306.475 114.962C308.441 116.255 309.779 118.351 310.49 121.251C310.909 122.955 310.988 124.441 310.728 125.71C310.499 126.97 310.001 128.043 309.236 128.928C308.478 129.843 307.541 130.612 306.426 131.234C305.341 131.849 304.151 132.363 302.858 132.775L300.485 127.367C301.606 127.028 302.59 126.644 303.435 126.215C304.288 125.816 304.907 125.299 305.29 124.666C305.681 124.063 305.759 123.284 305.524 122.327C305.282 121.34 304.767 120.659 303.977 120.282C303.224 119.927 302.37 119.868 301.413 120.102C300.187 120.403 299.233 120.907 298.55 121.613C297.898 122.312 297.27 123.242 296.668 124.404L293.788 129.913C292.899 131.716 291.731 133.35 290.283 134.814C288.873 136.301 286.972 137.338 284.58 137.925C282.846 138.35 281.211 138.339 279.675 137.892C278.146 137.474 276.825 136.673 275.71 135.489C274.632 134.327 273.87 132.834 273.423 131.01Z" fill="#00FFF9"/>
<path d="M276.442 141.189L313.687 137.771L315.122 153.405L310.34 153.843L309.53 145.015L298.816 145.998L299.453 152.941L294.717 153.376L294.08 146.433L281.757 147.564L282.575 156.484L277.885 156.915L276.442 141.189Z" fill="#00FFF9"/>
<path d="M219.964 308.312L212.028 311.984L211.388 310.601L214.641 309.096L210.192 299.478L211.638 298.809L216.087 308.427L219.324 306.929L219.964 308.312Z" fill="#00FFF9"/>
<path d="M208.137 307.132C208.743 308.779 208.686 310.38 207.967 311.936C207.251 313.503 206.07 314.589 204.424 315.195C202.777 315.8 201.173 315.738 199.613 315.008C198.047 314.293 196.96 313.112 196.355 311.465C195.753 309.829 195.815 308.225 196.541 306.655C197.257 305.088 198.438 304.002 200.085 303.396C201.731 302.79 203.335 302.853 204.895 303.583C206.459 304.324 207.54 305.507 208.137 307.132ZM197.866 310.909C198.328 312.166 199.137 313.061 200.293 313.596C201.431 314.149 202.629 314.194 203.886 313.732C205.132 313.274 206.02 312.461 206.55 311.295C207.07 310.132 207.1 308.928 206.642 307.682C206.188 306.447 205.384 305.549 204.231 304.989C203.075 304.455 201.874 304.417 200.629 304.875C199.372 305.337 198.487 306.142 197.974 307.29C197.448 308.468 197.412 309.674 197.866 310.909Z" fill="#00FFF9"/>
<path d="M193.596 305.961L193.971 307.367C193.149 307.466 192.628 307.844 192.409 308.5C192.178 309.159 192.255 310.207 192.638 311.646L194.408 318.289L186.678 320.349L183.557 308.637L185.113 308.222L187.842 318.462L192.46 317.231L191.082 312.061C190.806 311.024 190.673 310.121 190.683 309.354C190.683 308.59 190.819 307.98 191.092 307.525C191.354 307.073 191.69 306.72 192.1 306.467C192.503 306.229 193.001 306.06 193.596 305.961Z" fill="#00FFF9"/>
<path d="M180.871 317.122L178.129 317.623C177.038 317.822 176.057 317.62 175.184 317.016C174.311 316.413 173.776 315.572 173.579 314.493C173.38 313.403 173.582 312.421 174.186 311.548C174.78 310.689 175.627 310.158 176.729 309.957L181.056 309.167L183.233 321.091L181.649 321.38L180.871 317.122ZM179.742 310.938L177 311.439C176.341 311.559 175.836 311.88 175.486 312.402C175.135 312.924 175.022 313.525 175.146 314.207C175.266 314.865 175.584 315.382 176.098 315.758C176.601 316.135 177.188 316.263 177.858 316.141L180.6 315.64L179.742 310.938Z" fill="#00FFF9"/>
<path d="M168.646 317.431L162.478 311.835L164.44 311.621L170.271 316.835L169.638 311.052L171.239 310.877L172.557 322.926L170.956 323.101L170.361 317.662L165.93 323.651L163.968 323.866L168.646 317.431Z" fill="#00FFF9"/>
<path d="M161.959 317.991C161.999 319.745 161.428 321.242 160.244 322.482C159.06 323.733 157.591 324.379 155.837 324.42C154.083 324.46 152.586 323.883 151.346 322.687C150.095 321.504 149.449 320.035 149.408 318.281C149.368 316.538 149.946 315.041 151.141 313.789C152.324 312.538 153.793 311.892 155.547 311.852C157.302 311.811 158.799 312.389 160.039 313.584C161.279 314.791 161.919 316.26 161.959 317.991ZM151.018 318.244C151.049 319.582 151.525 320.691 152.446 321.571C153.344 322.462 154.462 322.893 155.801 322.862C157.128 322.831 158.232 322.35 159.111 321.417C159.978 320.485 160.397 319.355 160.366 318.028C160.336 316.712 159.866 315.603 158.956 314.7C158.035 313.821 156.911 313.397 155.584 313.427C154.245 313.458 153.147 313.934 152.291 314.854C151.412 315.798 150.988 316.928 151.018 318.244Z" fill="#00FFF9"/>
<path d="M142.255 323.955L133.499 323.119L134.65 311.053L136.253 311.206L135.247 321.755L140.797 322.285L141.804 311.736L143.407 311.889L142.255 323.955Z" fill="#00FFF9"/>
<path d="M130.13 322.636L125.796 321.883C124.704 321.694 123.853 321.165 123.242 320.297C122.631 319.429 122.42 318.455 122.608 317.375C122.795 316.294 123.323 315.449 124.191 314.838C125.058 314.227 126.038 314.016 127.13 314.206L129.877 314.683L130.618 310.418L132.204 310.694L130.13 322.636ZM129.619 316.168L126.872 315.69C126.201 315.574 125.617 315.701 125.119 316.071C124.606 316.462 124.292 316.988 124.177 317.648C124.059 318.33 124.177 318.931 124.532 319.449C124.887 319.968 125.395 320.284 126.054 320.399L128.801 320.876L129.619 316.168Z" fill="#00FFF9"/>
<path d="M119.371 313.677L120.289 309.944L114.825 308.6L115.189 307.12L122.217 308.849L119.321 320.619L112.377 318.911L112.741 317.431L118.122 318.755L119.011 315.14L114.051 313.919L114.411 312.456L119.371 313.677Z" fill="#00FFF9"/>
<path d="M100.804 315.247L99.0792 314.673L102.906 303.172L104.418 303.675L101.427 312.662L107.273 307.654L107.47 307.72L109.155 315.215L112.14 306.245L113.668 306.753L109.841 318.254L108.116 317.68L106.475 310.382L100.804 315.247Z" fill="#00FFF9"/>
<path d="M92.0582 298.503L93.5337 299.148L89.9133 307.431L99.2455 301.645L100.435 302.165L95.5805 313.272L94.105 312.627L97.7323 304.329L88.3932 310.13L87.2032 309.61L92.0582 298.503Z" fill="#00FFF9"/>
<path d="M81.1358 292.707L82.6435 293.522L82.2178 296.383L87.015 298.979L89.1768 297.058L90.6845 297.873L80.9412 306.383L79.3421 305.518L81.1358 292.707ZM81.064 304.264L85.8107 300.04L81.9882 297.972L81.064 304.264Z" fill="#00FFF9"/>
<path d="M80.7858 292.51L79.9927 293.729C79.3686 293.185 78.7395 293.051 78.1054 293.327C77.4617 293.597 76.7338 294.356 75.9218 295.605L72.1734 301.367L65.4674 297.005L72.0767 286.844L73.4266 287.723L67.6482 296.606L71.6544 299.212L74.5719 294.727C75.1573 293.827 75.7385 293.124 76.3155 292.618C76.8829 292.105 77.427 291.798 77.9477 291.696C78.4588 291.588 78.9456 291.602 79.4082 291.737C79.8549 291.876 80.314 292.134 80.7858 292.51Z" fill="#00FFF9"/>
<path d="M64.0987 290.6L61.8867 288.903C61.0074 288.229 60.4984 287.366 60.3597 286.314C60.2211 285.262 60.4855 284.3 61.153 283.43C61.8275 282.551 62.6907 282.042 63.7428 281.903C64.7787 281.767 65.7408 282.039 66.6293 282.721L70.119 285.398L62.7417 295.015L61.4639 294.035L64.0987 290.6ZM67.9244 285.613L65.7124 283.916C65.1811 283.509 64.6045 283.35 63.9824 283.44C63.3603 283.53 62.8385 283.85 62.417 284.4C62.0094 284.931 61.8392 285.513 61.9062 286.147C61.9641 286.773 62.2632 287.294 62.8036 287.708L65.0156 289.405L67.9244 285.613Z" fill="#00FFF9"/>
<path d="M51.9633 279.392L48.5236 283.216L47.3393 282.15L55.4464 273.139L56.6307 274.205L52.9825 278.26L57.3592 282.197L61.0074 278.143L62.2045 279.22L54.0974 288.23L52.9003 287.153L56.34 283.33L51.9633 279.392Z" fill="#00FFF9"/>
<path d="M50.5709 268.081L53.5616 271.306L44.6743 279.549L43.5793 278.368L46.7533 275.424L44.8576 273.38C44.104 272.568 43.7472 271.631 43.7871 270.571C43.827 269.51 44.249 268.607 45.0531 267.861C45.8657 267.108 46.8022 266.751 47.8626 266.791C48.9067 266.83 49.8094 267.26 50.5709 268.081ZM45.9787 263.13L47.0738 264.311L38.1865 272.553L37.0914 271.372L45.9787 263.13ZM47.8579 274.4L51.362 271.15L49.4663 269.106C49.011 268.615 48.4692 268.362 47.8408 268.346C47.2124 268.331 46.6443 268.559 46.1364 269.03C45.6286 269.501 45.3587 270.05 45.3269 270.678C45.2951 271.305 45.5069 271.865 45.9622 272.356L47.8579 274.4Z" fill="#00FFF9"/>
<path d="M39.3309 263.315L42.358 260.946L38.8894 256.514L40.0893 255.575L44.5505 261.274L35.0056 268.745L30.5978 263.114L31.7977 262.175L35.213 266.538L38.1446 264.243L34.9962 260.221L36.1824 259.292L39.3309 263.315Z" fill="#00FFF9"/>
<path d="M29.527 251.087L31.839 243.085L32.8949 244.753L30.7766 252.283L35.6923 249.171L36.5537 250.532L26.3127 257.016L25.4512 255.655L30.0743 252.728L22.7465 251.383L21.6906 249.715L29.527 251.087Z" fill="#00FFF9"/>
<path d="M26.6775 233.439L27.4861 234.951L25.5545 237.103L28.1273 241.913L30.99 241.501L31.7986 243.013L18.9789 244.745L18.1213 243.142L26.6775 233.439ZM20.249 243.044L26.5375 242.135L24.4875 238.303L20.249 243.044Z" fill="#00FFF9"/>
<path d="M26.2708 232.556L24.9347 233.131C24.7168 232.332 24.2674 231.872 23.5867 231.75C22.9014 231.618 21.8747 231.846 20.5068 232.435L14.1921 235.151L11.0304 227.803L22.1647 223.012L22.8011 224.492L13.0666 228.68L14.9554 233.07L19.8704 230.955C20.8566 230.531 21.73 230.268 22.4908 230.167C23.247 230.055 23.8701 230.102 24.36 230.306C24.8453 230.499 25.2428 230.78 25.5526 231.15C25.8471 231.513 26.0865 231.982 26.2708 232.556Z" fill="#00FFF9"/>
<path d="M13.4457 221.702L12.5542 219.061C12.1998 218.011 12.2581 217.01 12.7291 216.059C13.2001 215.109 13.9551 214.458 14.9942 214.107C16.0442 213.753 17.0447 213.811 17.9956 214.282C18.9318 214.746 19.579 215.508 19.9371 216.569L21.3436 220.736L9.859 224.612L9.34403 223.087L13.4457 221.702ZM19.4012 219.692L18.5097 217.051C18.2956 216.416 17.9051 215.963 17.3383 215.692C16.7714 215.42 16.1599 215.395 15.5036 215.616C14.8692 215.831 14.4034 216.219 14.1062 216.783C13.8053 217.335 13.7637 217.934 13.9815 218.579L14.873 221.221L19.4012 219.692Z" fill="#00FFF9"/>
<path d="M5.6472 211.018L4.43455 206.323L16.1704 203.292L16.5688 204.834L12.0757 205.995L12.6777 208.325L17.9547 210.199L18.4094 211.959L13.0102 210.028C13.0392 210.879 12.7863 211.653 12.2514 212.352C11.7276 213.047 11.0522 213.502 10.2251 213.716C9.21917 213.976 8.27319 213.844 7.38714 213.322C6.48703 212.792 5.90705 212.023 5.6472 211.018ZM11.4816 209.51L10.6674 206.358L6.29159 207.489L7.10579 210.641C7.25016 211.2 7.58956 211.636 8.124 211.951C8.64437 212.258 9.21193 212.332 9.82666 212.173C10.4414 212.015 10.9077 211.674 11.2256 211.15C11.5406 210.616 11.6259 210.069 11.4816 209.51Z" fill="#00FFF9"/>
<path d="M7.48834 194.728L2.42234 195.613L2.14807 194.044L14.0881 191.957L14.3624 193.527L8.98937 194.466L10.003 200.265L15.376 199.326L15.6532 200.912L3.71318 202.999L3.43593 201.413L8.50193 200.528L7.48834 194.728Z" fill="#00FFF9"/>
<path d="M13.3759 184.998L13.7393 189.381L1.65974 190.382L1.52667 188.778L5.84081 188.42L5.61045 185.642C5.51888 184.537 5.81598 183.58 6.50176 182.77C7.18754 181.96 8.07689 181.51 9.16981 181.42C10.2742 181.328 11.2313 181.625 12.0411 182.311C12.8385 182.986 13.2834 183.882 13.3759 184.998ZM12.8179 178.268L12.951 179.872L0.871349 180.874L0.738281 179.269L12.8179 178.268ZM7.34214 188.295L12.1049 187.9L11.8746 185.122C11.8193 184.455 11.5491 183.921 11.0642 183.521C10.5793 183.121 9.99171 182.95 9.30145 183.007C8.61118 183.064 8.05984 183.33 7.64742 183.805C7.235 184.279 7.05645 184.85 7.11177 185.517L7.34214 188.295Z" fill="#00FFF9"/>
<circle cx="225.413" cy="299.564" r="4.04035" fill="#00FFF9"/>
<path d="M11.8522 169.695C11.8522 171.926 10.0433 173.735 7.81184 173.735C5.58041 173.735 3.77148 171.926 3.77148 169.695C3.77148 167.463 5.58041 165.654 7.81184 165.654C10.0433 165.654 11.8522 167.463 11.8522 169.695Z" fill="#00FFF9"/>
<path d="M114.592 26.8496C81.5241 36.6281 53.2703 57.622 34.2365 85.4257C20.2502 105.856 11.2423 129.964 8.96094 156.001M304.688 158.441C304.938 161.967 305.066 165.528 305.066 169.119C305.066 198.556 296.492 225.99 281.704 249.06C270.186 267.029 254.898 282.351 236.957 293.91" stroke="#00FFF9" stroke-width="1.15439" stroke-linejoin="round"/>
</svg>
