<svg xmlns="http://www.w3.org/2000/svg" xmlns:xlink="http://www.w3.org/1999/xlink" width="0" height="0" style="position:absolute">
  <symbol id="user" viewBox="0 0 22 22">
    <path d="M21,21.5c-0.3,0-0.5-0.2-0.5-0.5c0-2-1.7-2.8-3.7-3.7c-1.3-0.6-2.6-1.2-3.6-2.2c-0.8-0.8-0.2-1.5,0.3-2
		c0.8-0.8,2.1-2.2,2.1-5.8c0-3.9-1.5-5.8-4.5-5.8c-3,0-4.5,1.9-4.5,5.8c0,3.6,1.3,5,2.1,5.8c0.5,0.5,1.1,1.2,0.3,2
		c-1,1-2.3,1.6-3.6,2.2c-2,0.9-3.7,1.7-3.7,3.7c0,0.3-0.2,0.5-0.5,0.5S0.5,21.3,0.5,21c0-2.7,2.2-3.7,4.3-4.6c1.2-0.5,2.5-1.1,3.3-2
		c0.1-0.1,0.1-0.1,0.1-0.1c0-0.1-0.3-0.3-0.4-0.5C7,12.9,5.5,11.2,5.5,7.2c0-5.6,3-6.8,5.5-6.8c2.5,0,5.5,1.2,5.5,6.8
		c0,4-1.5,5.6-2.3,6.5c-0.2,0.2-0.4,0.4-0.4,0.5c0,0,0,0,0.1,0.1c0.9,0.9,2.1,1.4,3.3,2c2.1,1,4.3,2,4.3,4.6
		C21.5,21.3,21.3,21.5,21,21.5z"/>
  </symbol>
  <symbol id="cart" viewBox="0 0 23.9 18.5">
    <path d="M21.5,12.3H5.7c-0.2,0-0.5-0.2-0.5-0.4L3.4,0.6c0-0.1,0-0.3,0.1-0.4C3.6,0.1,3.7,0,3.9,0h19.5
		c0.1,0,0.3,0.1,0.4,0.2c0.1,0.1,0.1,0.3,0.1,0.4L22,11.8C22,12.1,21.8,12.3,21.5,12.3z M6.2,11.3h14.9L22.8,1H4.5L6.2,11.3z"/>
    <path d="M8,18.5c-1,0-1.8-0.8-1.8-1.8S7,15,8,15s1.8,0.8,1.8,1.8S9,18.5,8,18.5z M8,16c-0.4,0-0.8,0.3-0.8,0.8
      s0.3,0.8,0.8,0.8s0.8-0.3,0.8-0.8S8.4,16,8,16z"/>
    <path d="M19.3,18.5c-1,0-1.8-0.8-1.8-1.8s0.8-1.8,1.8-1.8s1.8,0.8,1.8,1.8S20.2,18.5,19.3,18.5z M19.3,16
      c-0.4,0-0.8,0.3-0.8,0.8s0.3,0.8,0.8,0.8s0.8-0.3,0.8-0.8S19.7,16,19.3,16z"/>
    <path d="M5.5,1h-5C0.2,1,0,0.8,0,0.5S0.2,0,0.5,0h5C5.8,0,6,0.2,6,0.5S5.8,1,5.5,1z"/>
  </symbol>
  <symbol id="arrow-right-sm" viewBox="0 0 58 8">
    <path d="M56.3536 4.35355C56.5488 4.15829 56.5488 3.84171 56.3536 3.64645L53.1716 0.464466C52.9763 0.269204 52.6597 0.269204 52.4645 0.464466C52.2692 0.659728 52.2692 0.976311 52.4645 1.17157L55.2929 4L52.4645 6.82843C52.2692 7.02369 52.2692 7.34027 52.4645 7.53553C52.6597 7.7308 52.9763 7.7308 53.1716 7.53553L56.3536 4.35355ZM0 4.5H56V3.5H0V4.5Z"/>
  </symbol>
  <symbol id="arrow-right" viewBox="0 0 115 8">
    <path d="M114.354 4.35355C114.549 4.15829 114.549 3.84171 114.354 3.64645L111.172 0.464466C110.976 0.269204 110.66 0.269204 110.464 0.464466C110.269 0.659728 110.269 0.976311 110.464 1.17157L113.293 4L110.464 6.82843C110.269 7.02369 110.269 7.34027 110.464 7.53553C110.66 7.7308 110.976 7.7308 111.172 7.53553L114.354 4.35355ZM0 4.5H114V3.5H0V4.5Z"/>
  </symbol>
  <symbol id="arrow-left" viewBox="0 0 115 8">
    <path d="M0.646446 4.35355C0.451187 4.15829 0.451187 3.84171 0.646446 3.64645L3.82843 0.464466C4.02369 0.269204 4.34027 0.269204 4.53554 0.464466C4.7308 0.659728 4.7308 0.976311 4.53554 1.17157L1.70711 4L4.53554 6.82843C4.7308 7.02369 4.7308 7.34027 4.53554 7.53553C4.34027 7.7308 4.02369 7.7308 3.82843 7.53553L0.646446 4.35355ZM115 4.5H1V3.5H115V4.5Z"/>
  </symbol>
  <symbol id="increment" viewBox="0 0 14 14">
    <polygon points="7.8,14 6.3,14 6.3,7.4 0,7.4 0,5.9 6.3,5.9 6.3,0 7.8,0 7.8,5.9 14,5.9 14,7.4 7.8,7.4"/>
  </symbol>
  <symbol id="decrement" viewBox="0 0 16 2">
    <rect width="15.5" height="1.5"/>
  </symbol>
  <symbol id="angle-left" viewBox="0 0 5 10">
    <path d="M4.29136 0.259812C4.37924 0.258746 4.46643 0.276076 4.54774 0.310772C4.62905 0.345468 4.70282 0.396821 4.76466 0.461775C4.89214 0.596382 4.96359 0.777741 4.96359 0.966684C4.96359 1.15563 4.89214 1.33699 4.76466 1.47159L1.64573 4.7535L4.80107 8.03541C4.92855 8.17001 5 8.35137 5 8.54032C5 8.72926 4.92855 8.91062 4.80107 9.04523C4.67371 9.17704 4.50136 9.25103 4.3217 9.25103C4.14204 9.25103 3.96968 9.17704 3.84233 9.04523L0.201553 5.25841C0.0740754 5.1238 0.00261939 4.94244 0.00261936 4.7535C0.00261934 4.56456 0.0740753 4.3832 0.201553 4.24859L3.84233 0.461775C3.96204 0.337773 4.1225 0.2656 4.29136 0.259812Z"/>
  </symbol>
  <symbol id="angle-right" viewBox="0 0 5 10">
    <path d="M0.708642 8.99214C0.620761 8.99321 0.533572 8.97588 0.452262 8.94118C0.370952 8.90648 0.297182 8.85513 0.235341 8.79018C0.107864 8.65557 0.0364078 8.47421 0.0364077 8.28527C0.0364077 8.09633 0.107864 7.91497 0.235341 7.78036L3.35427 4.49845L0.198932 1.21655C0.0714544 1.08194 -3.45436e-07 0.900579 -3.61954e-07 0.711637C-3.78472e-07 0.522694 0.0714543 0.341333 0.198932 0.206727C0.326286 0.0749178 0.498639 0.000924089 0.678302 0.000924081C0.857964 0.000924073 1.03032 0.0749177 1.15767 0.206727L4.79845 3.99354C4.92593 4.12815 4.99738 4.30951 4.99738 4.49845C4.99738 4.68739 4.92593 4.86875 4.79845 5.00336L1.15767 8.79018C1.03796 8.91418 0.877498 8.98635 0.708642 8.99214Z"/>
  </symbol>
  <symbol id="cross" viewBox="0 0 9 9">
    <path d="M5.67764 4.43796L8.7453 7.50562L7.92269 8.32823L4.85503 5.26057L1.78737 8.32823L0.947619 7.48848L4.01528 4.42082L0.947619 1.35316L1.77023 0.53055L4.83789 3.59821L7.90555 0.53055L8.7453 1.3703L5.67764 4.43796Z"/>
  </symbol>
  <symbol id="angle-down" viewBox="0 0 21 12">
    <path d="M1.88523 0.115234L0.115234 1.88523L10.1152 11.8852L20.1152 1.88523L18.3452 0.115234L10.1152 8.34524L1.88523 0.115234Z"/>
  </symbol>
  <symbol id="arrow-back" viewBox="0 0 11 8">
    <path d="M0.1,4C0,3.8,0,3.5,0.1,3.3l3.2-3.2C3.5,0,3.8,0,4,0.1c0.2,0.2,0.2,0.5,0,0.7L1.2,3.7L4,6.5C4.2,6.7,4.2,7,4,7.2c-0.2,0.2-0.5,0.2-0.7,0L0.1,4z M10.5,4.2h-10v-1h10V4.2z"/>
  </symbol>
</svg>

